Freeride One.ufo
<glyph name="exclam" format="1">
  <advance width="241"/>
  <unicode hex="0021"/>
  <outline>
    <contour>
      <point x="147" y="663" type="curve" name="hr00"/>
      <point x="124" y="670"/>
      <point x="98" y="664"/>
      <point x="79" y="658" type="curve"/>
      <point x="50" y="623"/>
      <point x="62" y="585"/>
      <point x="70" y="541" type="curve" smooth="yes"/>
      <point x="84" y="466"/>
      <point x="79" y="404"/>
      <point x="84" y="333" type="curve" smooth="yes"/>
      <point x="86" y="310"/>
      <point x="82" y="285"/>
      <point x="84" y="264" type="curve" smooth="yes"/>
      <point x="88" y="229"/>
      <point x="100" y="202"/>
      <point x="119" y="193" type="curve"/>
      <point x="124" y="205"/>
      <point x="139" y="207"/>
      <point x="144" y="219" type="curve"/>
      <point x="133" y="258"/>
      <point x="155" y="317"/>
      <point x="161" y="361" type="curve" smooth="yes"/>
      <point x="164" y="381"/>
      <point x="162" y="402"/>
      <point x="164" y="424" type="curve" smooth="yes"/>
      <point x="170" y="479"/>
      <point x="186" y="534"/>
      <point x="178" y="584" type="curve" smooth="yes"/>
      <point x="174" y="613"/>
      <point x="161" y="640"/>
    </contour>
    <contour>
      <point x="82" y="-7" type="curve"/>
      <point x="93" y="-4"/>
      <point x="105" y="-11"/>
      <point x="109" y="-10" type="curve"/>
      <point x="108" y="-9"/>
      <point x="106" y="-7"/>
      <point x="107" y="-7" type="curve"/>
      <point x="123" y="-2"/>
      <point x="135" y="2"/>
      <point x="144" y="19" type="curve" smooth="yes"/>
      <point x="150" y="30"/>
      <point x="150" y="48"/>
      <point x="147" y="56" type="curve" smooth="yes"/>
      <point x="136" y="85"/>
      <point x="103" y="78"/>
      <point x="84" y="65" type="curve" smooth="yes"/>
      <point x="68" y="53"/>
      <point x="56" y="40"/>
      <point x="67" y="13" type="curve" smooth="yes"/>
      <point x="70" y="6"/>
      <point x="79" y="0"/>
    </contour>
  </outline>
</glyph>
<glyph name="quotedbl" format="1">
  <advance width="218"/>
  <unicode hex="0022"/>
  <outline>
    <contour>
      <point x="98" y="695" type="curve" name="hr00"/>
      <point x="88" y="705"/>
      <point x="66" y="705"/>
      <point x="53" y="698" type="curve"/>
      <point x="46" y="660"/>
      <point x="32" y="627"/>
      <point x="30" y="584" type="curve"/>
      <point x="38" y="584"/>
      <point x="36" y="573"/>
      <point x="47" y="575" type="curve"/>
      <point x="71" y="584"/>
      <point x="77" y="618"/>
      <point x="87" y="647" type="curve" smooth="yes"/>
      <point x="93" y="662"/>
      <point x="104" y="681"/>
    </contour>
    <contour>
      <point x="187" y="692" type="curve"/>
      <point x="173" y="699"/>
      <point x="149" y="695"/>
      <point x="141" y="687" type="curve"/>
      <point x="138" y="663"/>
      <point x="122" y="626"/>
      <point x="124" y="598" type="curve" smooth="yes"/>
      <point x="125" y="590"/>
      <point x="129" y="572"/>
      <point x="138" y="570" type="curve"/>
      <point x="157" y="572"/>
      <point x="155" y="596"/>
      <point x="161" y="610" type="curve" smooth="yes"/>
      <point x="171" y="632"/>
      <point x="188" y="659"/>
    </contour>
  </outline>
</glyph>
<glyph name="numbersign" format="1">
  <advance width="568"/>
  <unicode hex="0023"/>
  <outline>
    <contour>
      <point x="547" y="240" type="curve" name="hr00"/>
      <point x="539" y="258"/>
      <point x="541" y="244"/>
      <point x="547" y="260" type="curve"/>
      <point x="540" y="276"/>
      <point x="521" y="266"/>
      <point x="507" y="265" type="curve" smooth="yes"/>
      <point x="471" y="263"/>
      <point x="427" y="261"/>
      <point x="393" y="257" type="curve"/>
      <point x="389" y="274"/>
      <point x="350" y="265"/>
      <point x="339" y="268" type="curve"/>
      <point x="336" y="279"/>
      <point x="349" y="274"/>
      <point x="351" y="280" type="curve"/>
      <point x="343" y="286"/>
      <point x="348" y="303"/>
      <point x="351" y="311" type="curve" smooth="yes"/>
      <point x="354" y="323"/>
      <point x="362" y="338"/>
      <point x="368" y="351" type="curve" smooth="yes"/>
      <point x="374" y="365"/>
      <point x="381" y="378"/>
      <point x="385" y="391" type="curve"/>
      <point x="424" y="422"/>
      <point x="524" y="391"/>
      <point x="567" y="411" type="curve"/>
      <point x="559" y="413"/>
      <point x="571" y="418"/>
      <point x="567" y="425" type="curve"/>
      <point x="533" y="430"/>
      <point x="481" y="432"/>
      <point x="436" y="431" type="curve"/>
      <point x="422" y="430"/>
      <point x="407" y="422"/>
      <point x="396" y="434" type="curve"/>
      <point x="420" y="475"/>
      <point x="438" y="532"/>
      <point x="450" y="585" type="curve" smooth="yes"/>
      <point x="454" y="600"/>
      <point x="456" y="611"/>
      <point x="459" y="630" type="curve" smooth="yes"/>
      <point x="461" y="645"/>
      <point x="478" y="669"/>
      <point x="456" y="676" type="curve"/>
      <point x="436" y="662"/>
      <point x="439" y="633"/>
      <point x="433" y="610" type="curve" smooth="yes"/>
      <point x="422" y="573" type="line" smooth="yes"/>
      <point x="418" y="562"/>
      <point x="415" y="547"/>
      <point x="410" y="536" type="curve"/>
      <point x="406" y="524"/>
      <point x="395" y="514"/>
      <point x="391" y="502" type="curve" smooth="yes"/>
      <point x="381" y="476"/>
      <point x="380" y="447"/>
      <point x="362" y="428" type="curve"/>
      <point x="330" y="421"/>
      <point x="277" y="421"/>
      <point x="248" y="425" type="curve"/>
      <point x="247" y="446"/>
      <point x="257" y="456"/>
      <point x="254" y="479" type="curve"/>
      <point x="266" y="489"/>
      <point x="262" y="503"/>
      <point x="265" y="519" type="curve" smooth="yes"/>
      <point x="273" y="564"/>
      <point x="288" y="621"/>
      <point x="282" y="667" type="curve"/>
      <point x="251" y="670"/>
      <point x="259" y="622"/>
      <point x="257" y="599" type="curve"/>
      <point x="249" y="539"/>
      <point x="224" y="469"/>
      <point x="211" y="419" type="curve"/>
      <point x="174" y="405"/>
      <point x="123" y="437"/>
      <point x="86" y="422" type="curve"/>
      <point x="76" y="421"/>
      <point x="93" y="410"/>
      <point x="83" y="408" type="curve" smooth="yes"/>
      <point x="69" y="405"/>
      <point x="55" y="404"/>
      <point x="43" y="399" type="curve"/>
      <point x="41" y="386"/>
      <point x="47" y="381"/>
      <point x="51" y="374" type="curve"/>
      <point x="79" y="384"/>
      <point x="103" y="385"/>
      <point x="134" y="388" type="curve" smooth="yes"/>
      <point x="161" y="390"/>
      <point x="186" y="400"/>
      <point x="205" y="385" type="curve"/>
      <point x="194" y="339"/>
      <point x="174" y="300"/>
      <point x="162" y="254" type="curve"/>
      <point x="116" y="253"/>
      <point x="84" y="243"/>
      <point x="51" y="243" type="curve"/>
      <point x="34" y="242"/>
      <point x="16" y="247"/>
      <point x="0" y="240" type="curve"/>
      <point x="2" y="228"/>
      <point x="7" y="218"/>
      <point x="11" y="208" type="curve"/>
      <point x="31" y="197"/>
      <point x="49" y="211"/>
      <point x="68" y="214" type="curve" smooth="yes"/>
      <point x="80" y="216"/>
      <point x="95" y="213"/>
      <point x="108" y="214" type="curve" smooth="yes"/>
      <point x="123" y="215"/>
      <point x="141" y="223"/>
      <point x="154" y="211" type="curve"/>
      <point x="137" y="146"/>
      <point x="116" y="83"/>
      <point x="97" y="20" type="curve"/>
      <point x="103" y="13"/>
      <point x="113" y="10"/>
      <point x="128" y="12" type="curve"/>
      <point x="141" y="33"/>
      <point x="141" y="60"/>
      <point x="148" y="89" type="curve" smooth="yes"/>
      <point x="149" y="93"/>
      <point x="155" y="98"/>
      <point x="157" y="103" type="curve" smooth="yes"/>
      <point x="171" y="146"/>
      <point x="172" y="214"/>
      <point x="208" y="217" type="curve" smooth="yes"/>
      <point x="239" y="219"/>
      <point x="274" y="229"/>
      <point x="291" y="220" type="curve"/>
      <point x="275" y="151"/>
      <point x="251" y="90"/>
      <point x="237" y="20" type="curve"/>
      <point x="245" y="13"/>
      <point x="249" y="2"/>
      <point x="265" y="3" type="curve"/>
      <point x="283" y="11"/>
      <point x="274" y="32"/>
      <point x="276" y="46" type="curve"/>
      <point x="283" y="78"/>
      <point x="297" y="109"/>
      <point x="305" y="140" type="curve" smooth="yes"/>
      <point x="313" y="171"/>
      <point x="320" y="200"/>
      <point x="331" y="225" type="curve"/>
      <point x="410" y="237"/>
      <point x="475" y="238"/>
    </contour>
    <contour>
      <point x="239" y="388" type="curve"/>
      <point x="270" y="395"/>
      <point x="308" y="401"/>
      <point x="336" y="402" type="curve"/>
      <point x="334" y="397"/>
      <point x="345" y="389"/>
      <point x="345" y="382" type="curve" smooth="yes"/>
      <point x="345" y="373"/>
      <point x="338" y="362"/>
      <point x="331" y="351" type="curve" smooth="yes"/>
      <point x="327" y="346"/>
      <point x="331" y="336"/>
      <point x="328" y="325" type="curve" smooth="yes"/>
      <point x="321" y="302"/>
      <point x="310" y="282"/>
      <point x="305" y="265" type="curve"/>
      <point x="273" y="265"/>
      <point x="223" y="255"/>
      <point x="197" y="268" type="curve"/>
      <point x="210" y="309"/>
      <point x="224" y="349"/>
    </contour>
  </outline>
</glyph>
<glyph name="dollar" format="1">
  <advance width="463"/>
  <unicode hex="0024"/>
  <outline>
    <contour>
      <point x="261" y="-19" type="curve" name="hr00"/>
      <point x="276" y="-9"/>
      <point x="295" y="-2"/>
      <point x="318" y="6" type="curve"/>
      <point x="335" y="26"/>
      <point x="358" y="40"/>
      <point x="378" y="58" type="curve"/>
      <point x="392" y="91"/>
      <point x="423" y="121"/>
      <point x="423" y="163" type="curve" smooth="yes"/>
      <point x="423" y="202"/>
      <point x="415" y="254"/>
      <point x="392" y="280" type="curve" smooth="yes"/>
      <point x="387" y="285"/>
      <point x="375" y="292"/>
      <point x="366" y="300" type="curve" smooth="yes"/>
      <point x="351" y="314"/>
      <point x="342" y="328"/>
      <point x="321" y="328" type="curve"/>
      <point x="294" y="349"/>
      <point x="263" y="366"/>
      <point x="238" y="388" type="curve"/>
      <point x="242" y="468"/>
      <point x="253" y="548"/>
      <point x="249" y="631" type="curve"/>
      <point x="277" y="637"/>
      <point x="312" y="656"/>
      <point x="329" y="625" type="curve"/>
      <point x="325" y="614"/>
      <point x="315" y="594"/>
      <point x="326" y="585" type="curve"/>
      <point x="353" y="584"/>
      <point x="352" y="611"/>
      <point x="358" y="631" type="curve"/>
      <point x="364" y="631"/>
      <point x="366" y="626"/>
      <point x="375" y="628" type="curve"/>
      <point x="369" y="643"/>
      <point x="375" y="652"/>
      <point x="366" y="665" type="curve"/>
      <point x="357" y="660"/>
      <point x="343" y="659"/>
      <point x="338" y="651" type="curve"/>
      <point x="312" y="667"/>
      <point x="284" y="663"/>
      <point x="249" y="668" type="curve"/>
      <point x="253" y="690"/>
      <point x="249" y="707"/>
      <point x="252" y="733" type="curve"/>
      <point x="242" y="732"/>
      <point x="236" y="734"/>
      <point x="229" y="736" type="curve"/>
      <point x="220" y="711"/>
      <point x="221" y="671"/>
      <point x="215" y="651" type="curve"/>
      <point x="206" y="645"/>
      <point x="196" y="641"/>
      <point x="184" y="639" type="curve"/>
      <point x="136" y="594"/>
      <point x="53" y="540"/>
      <point x="84" y="442" type="curve" smooth="yes"/>
      <point x="85" y="438"/>
      <point x="94" y="427"/>
      <point x="98" y="420" type="curve" smooth="yes"/>
      <point x="113" y="397"/>
      <point x="127" y="386"/>
      <point x="141" y="366" type="curve"/>
      <point x="164" y="348"/>
      <point x="199" y="349"/>
      <point x="207" y="320" type="curve"/>
      <point x="212" y="297"/>
      <point x="203" y="256"/>
      <point x="204" y="226" type="curve"/>
      <point x="204" y="197"/>
      <point x="200" y="163"/>
      <point x="198" y="140" type="curve"/>
      <point x="210" y="110"/>
      <point x="215" y="59"/>
      <point x="201" y="29" type="curve"/>
      <point x="193" y="28"/>
      <point x="168" y="29"/>
      <point x="141" y="32" type="curve" smooth="yes"/>
      <point x="119" y="35"/>
      <point x="114" y="45"/>
      <point x="98" y="52" type="curve" smooth="yes"/>
      <point x="89" y="56"/>
      <point x="79" y="55"/>
      <point x="75" y="58" type="curve" smooth="yes"/>
      <point x="61" y="68"/>
      <point x="60" y="85"/>
      <point x="53" y="98" type="curve"/>
      <point x="44" y="97"/>
      <point x="44" y="104"/>
      <point x="36" y="103" type="curve"/>
      <point x="33" y="100"/>
      <point x="23" y="93"/>
      <point x="21" y="86" type="curve" smooth="yes"/>
      <point x="19" y="76"/>
      <point x="22" y="33"/>
      <point x="30" y="32" type="curve"/>
      <point x="32" y="32"/>
      <point x="33" y="32"/>
      <point x="33" y="29" type="curve"/>
      <point x="45" y="26"/>
      <point x="38" y="43"/>
      <point x="47" y="43" type="curve"/>
      <point x="78" y="31"/>
      <point x="105" y="2"/>
      <point x="141" y="-8" type="curve" smooth="yes"/>
      <point x="161" y="-13"/>
      <point x="184" y="-7"/>
      <point x="204" y="-19" type="curve"/>
      <point x="205" y="-68"/>
      <point x="201" y="-84"/>
      <point x="201" y="-125" type="curve"/>
      <point x="210" y="-125"/>
      <point x="208" y="-137"/>
      <point x="218" y="-136" type="curve"/>
      <point x="231" y="-114"/>
      <point x="212" y="-81"/>
      <point x="229" y="-65" type="curve"/>
      <point x="218" y="-65"/>
      <point x="226" y="-45"/>
      <point x="224" y="-36" type="curve"/>
      <point x="226" y="-34"/>
      <point x="227" y="-34"/>
      <point x="227" y="-34" type="curve"/>
      <point x="218" y="-19"/>
      <point x="246" y="-5"/>
    </contour>
    <contour>
      <point x="229" y="246" type="curve"/>
      <point x="230" y="266"/>
      <point x="231" y="292"/>
      <point x="235" y="311" type="curve"/>
      <point x="253" y="308"/>
      <point x="261" y="294"/>
      <point x="281" y="291" type="curve"/>
      <point x="294" y="276"/>
      <point x="305" y="258"/>
      <point x="321" y="246" type="curve"/>
      <point x="334" y="172"/>
      <point x="347" y="74"/>
      <point x="286" y="43" type="curve" smooth="yes"/>
      <point x="271" y="36"/>
      <point x="250" y="36"/>
      <point x="227" y="32" type="curve"/>
      <point x="230" y="111"/>
      <point x="228" y="181"/>
    </contour>
    <contour>
      <point x="172" y="582" type="curve"/>
      <point x="191" y="588"/>
      <point x="194" y="610"/>
      <point x="212" y="616" type="curve"/>
      <point x="220" y="551"/>
      <point x="205" y="482"/>
      <point x="201" y="408" type="curve"/>
      <point x="153" y="420"/>
      <point x="130" y="469"/>
      <point x="135" y="525" type="curve"/>
      <point x="147" y="544"/>
      <point x="165" y="559"/>
    </contour>
    <contour>
      <point x="227" y="-34" type="curve"/>
      <point x="228" y="-34"/>
      <point x="228" y="-35"/>
      <point x="229" y="-36" type="curve"/>
      <point x="228" y="-35"/>
      <point x="228" y="-34"/>
    </contour>
    <contour>
      <point x="229" y="-36" type="curve"/>
      <point x="229" y="-36"/>
      <point x="229" y="-37"/>
      <point x="230" y="-38" type="curve"/>
      <point x="230" y="-37"/>
    </contour>
    <contour>
      <point x="232" y="-39" type="curve"/>
      <point x="231" y="-38"/>
      <point x="231" y="-38"/>
      <point x="230" y="-38" type="curve"/>
      <point x="231" y="-38"/>
      <point x="231" y="-39"/>
    </contour>
  </outline>
</glyph>
<glyph name="percent" format="1">
  <advance width="729"/>
  <unicode hex="0025"/>
  <outline>
    <contour>
      <point x="187" y="716" type="curve" name="hr00"/>
      <point x="152" y="702"/>
      <point x="120" y="693"/>
      <point x="98" y="671" type="curve" smooth="yes"/>
      <point x="86" y="658"/>
      <point x="66" y="619"/>
      <point x="61" y="602" type="curve" smooth="yes"/>
      <point x="47" y="552"/>
      <point x="60" y="521"/>
      <point x="76" y="488" type="curve" smooth="yes"/>
      <point x="97" y="445"/>
      <point x="132" y="418"/>
      <point x="164" y="394" type="curve"/>
      <point x="181" y="398"/>
      <point x="203" y="392"/>
      <point x="227" y="394" type="curve"/>
      <point x="250" y="419"/>
      <point x="283" y="421"/>
      <point x="304" y="448" type="curve" smooth="yes"/>
      <point x="310" y="456"/>
      <point x="319" y="476"/>
      <point x="324" y="488" type="curve"/>
      <point x="343" y="548"/>
      <point x="314" y="586"/>
      <point x="309" y="636" type="curve"/>
      <point x="289" y="654"/>
      <point x="270" y="687"/>
      <point x="235" y="702" type="curve" smooth="yes"/>
      <point x="220" y="709"/>
      <point x="201" y="706"/>
    </contour>
    <contour>
      <point x="118" y="565" type="curve"/>
      <point x="124" y="600"/>
      <point x="153" y="629"/>
      <point x="170" y="651" type="curve"/>
      <point x="169" y="653"/>
      <point x="171" y="653"/>
      <point x="173" y="653" type="curve"/>
      <point x="230" y="657"/>
      <point x="257" y="627"/>
      <point x="284" y="585" type="curve" smooth="yes"/>
      <point x="303" y="555"/>
      <point x="311" y="492"/>
      <point x="284" y="454" type="curve" smooth="yes"/>
      <point x="272" y="437"/>
      <point x="248" y="432"/>
      <point x="230" y="417" type="curve"/>
      <point x="210" y="419"/>
      <point x="184" y="417"/>
      <point x="173" y="428" type="curve" smooth="yes"/>
      <point x="154" y="447"/>
      <point x="140" y="460"/>
      <point x="130" y="488" type="curve" smooth="yes"/>
      <point x="122" y="509"/>
      <point x="114" y="536"/>
    </contour>
    <contour>
      <point x="686" y="656" type="curve"/>
      <point x="702" y="690"/>
      <point x="629" y="690"/>
      <point x="603" y="699" type="curve" smooth="yes"/>
      <point x="598" y="701"/>
      <point x="581" y="689"/>
      <point x="583" y="685" type="curve"/>
      <point x="583" y="672"/>
      <point x="597" y="674"/>
      <point x="603" y="668" type="curve"/>
      <point x="585" y="646"/>
      <point x="568" y="625"/>
      <point x="552" y="602" type="curve"/>
      <point x="535" y="580"/>
      <point x="514" y="561"/>
      <point x="497" y="539" type="curve" smooth="yes"/>
      <point x="485" y="523"/>
      <point x="476" y="506"/>
      <point x="463" y="491" type="curve" smooth="yes"/>
      <point x="425" y="446"/>
      <point x="384" y="404"/>
      <point x="346" y="360" type="curve" smooth="yes"/>
      <point x="321" y="330"/>
      <point x="295" y="302"/>
      <point x="269" y="272" type="curve" smooth="yes"/>
      <point x="257" y="257"/>
      <point x="245" y="240"/>
      <point x="232" y="226" type="curve" smooth="yes"/>
      <point x="210" y="201"/>
      <point x="188" y="179"/>
      <point x="170" y="155" type="curve" smooth="yes"/>
      <point x="137" y="111"/>
      <point x="97" y="72"/>
      <point x="64" y="32" type="curve"/>
      <point x="51" y="38"/>
      <point x="37" y="28"/>
      <point x="30" y="18" type="curve"/>
      <point x="38" y="0"/>
      <point x="60" y="-3"/>
      <point x="76" y="-14" type="curve"/>
      <point x="93" y="-1"/>
      <point x="117" y="-5"/>
      <point x="138" y="-2" type="curve"/>
      <point x="145" y="26"/>
      <point x="118" y="20"/>
      <point x="107" y="24" type="curve"/>
      <point x="115" y="41"/>
      <point x="129" y="51"/>
      <point x="141" y="66" type="curve" smooth="yes"/>
      <point x="159" y="89"/>
      <point x="175" y="111"/>
      <point x="192" y="129" type="curve" smooth="yes"/>
      <point x="213" y="150"/>
      <point x="226" y="170"/>
      <point x="244" y="192" type="curve" smooth="yes"/>
      <point x="266" y="220"/>
      <point x="295" y="244"/>
      <point x="318" y="272" type="curve" smooth="yes"/>
      <point x="342" y="300"/>
      <point x="364" y="328"/>
      <point x="386" y="357" type="curve" smooth="yes"/>
      <point x="403" y="379"/>
      <point x="420" y="403"/>
      <point x="438" y="420" type="curve" smooth="yes"/>
      <point x="444" y="426"/>
      <point x="454" y="430"/>
      <point x="460" y="437" type="curve" smooth="yes"/>
      <point x="478" y="456"/>
      <point x="485" y="486"/>
      <point x="509" y="500" type="curve"/>
      <point x="520" y="526"/>
      <point x="537" y="550"/>
      <point x="554" y="571" type="curve"/>
      <point x="572" y="591"/>
      <point x="590" y="614"/>
      <point x="614" y="628" type="curve"/>
      <point x="613" y="637"/>
      <point x="618" y="639"/>
      <point x="620" y="645" type="curve"/>
      <point x="639" y="643"/>
      <point x="642" y="657"/>
      <point x="657" y="659" type="curve"/>
      <point x="668" y="658"/>
      <point x="673" y="652"/>
    </contour>
    <contour>
      <point x="609" y="291" type="curve"/>
      <point x="545" y="300"/>
      <point x="504" y="269"/>
      <point x="475" y="240" type="curve" smooth="yes"/>
      <point x="460" y="225"/>
      <point x="451" y="216"/>
      <point x="440" y="200" type="curve" smooth="yes"/>
      <point x="424" y="175"/>
      <point x="416" y="123"/>
      <point x="423" y="83" type="curve" smooth="yes"/>
      <point x="429" y="54"/>
      <point x="447" y="32"/>
      <point x="469" y="21" type="curve"/>
      <point x="474" y="17"/>
      <point x="474" y="7"/>
      <point x="478" y="1" type="curve"/>
      <point x="510" y="-15"/>
      <point x="541" y="-21"/>
      <point x="574" y="-5" type="curve"/>
      <point x="580" y="-1"/>
      <point x="582" y="7"/>
      <point x="589" y="9" type="curve"/>
      <point x="611" y="6"/>
      <point x="626" y="29"/>
      <point x="637" y="41" type="curve"/>
      <point x="650" y="53"/>
      <point x="653" y="52"/>
      <point x="660" y="66" type="curve" smooth="yes"/>
      <point x="667" y="80"/>
      <point x="669" y="84"/>
      <point x="677" y="103" type="curve" smooth="yes"/>
      <point x="681" y="112"/>
      <point x="688" y="121"/>
      <point x="691" y="129" type="curve" smooth="yes"/>
      <point x="707" y="164"/>
      <point x="694" y="205"/>
      <point x="677" y="232" type="curve" smooth="yes"/>
      <point x="658" y="261"/>
      <point x="640" y="278"/>
    </contour>
    <contour>
      <point x="472" y="132" type="curve"/>
      <point x="470" y="185"/>
      <point x="499" y="243"/>
      <point x="543" y="249" type="curve" smooth="yes"/>
      <point x="565" y="252"/>
      <point x="569" y="243"/>
      <point x="592" y="220" type="curve" smooth="yes"/>
      <point x="613" y="199"/>
      <point x="645" y="171"/>
      <point x="646" y="132" type="curve"/>
      <point x="646" y="121"/>
      <point x="637" y="109"/>
      <point x="634" y="95" type="curve"/>
      <point x="633" y="85"/>
      <point x="637" y="78"/>
      <point x="634" y="72" type="curve" smooth="yes"/>
      <point x="625" y="47"/>
      <point x="597" y="29"/>
      <point x="572" y="29" type="curve"/>
      <point x="552" y="30"/>
      <point x="510" y="55"/>
      <point x="497" y="72" type="curve" smooth="yes"/>
      <point x="487" y="86"/>
      <point x="473" y="104"/>
    </contour>
  </outline>
</glyph>
<glyph name="ampersand" format="1">
  <advance width="592"/>
  <unicode hex="0026"/>
  <outline>
    <contour>
      <point x="259" y="386" type="curve" name="hr00"/>
      <point x="265" y="397"/>
      <point x="280" y="400"/>
      <point x="290" y="409" type="curve" smooth="yes"/>
      <point x="310" y="427"/>
      <point x="326" y="454"/>
      <point x="344" y="475" type="curve" smooth="yes"/>
      <point x="352" y="484"/>
      <point x="366" y="490"/>
      <point x="373" y="500" type="curve" smooth="yes"/>
      <point x="392" y="531"/>
      <point x="399" y="584"/>
      <point x="387" y="620" type="curve" smooth="yes"/>
      <point x="376" y="650"/>
      <point x="333" y="684"/>
      <point x="304" y="685" type="curve" smooth="yes"/>
      <point x="286" y="686"/>
      <point x="261" y="670"/>
      <point x="236" y="660" type="curve" smooth="yes"/>
      <point x="228" y="657"/>
      <point x="219" y="657"/>
      <point x="213" y="654" type="curve" smooth="yes"/>
      <point x="197" y="645"/>
      <point x="189" y="627"/>
      <point x="176" y="620" type="curve"/>
      <point x="171" y="608"/>
      <point x="166" y="597"/>
      <point x="156" y="591" type="curve"/>
      <point x="157" y="573"/>
      <point x="149" y="564"/>
      <point x="142" y="554" type="curve"/>
      <point x="150" y="554"/>
      <point x="144" y="543"/>
      <point x="144" y="540" type="curve"/>
      <point x="150" y="476"/>
      <point x="173" y="432"/>
      <point x="193" y="389" type="curve"/>
      <point x="174" y="370"/>
      <point x="158" y="345"/>
      <point x="133" y="326" type="curve" smooth="yes"/>
      <point x="105" y="305"/>
      <point x="92" y="289"/>
      <point x="68" y="249" type="curve"/>
      <point x="41" y="208"/>
      <point x="19" y="135"/>
      <point x="36" y="75" type="curve" smooth="yes"/>
      <point x="40" y="63"/>
      <point x="53" y="55"/>
      <point x="50" y="41" type="curve"/>
      <point x="62" y="30"/>
      <point x="73" y="22"/>
      <point x="90" y="13" type="curve" smooth="yes"/>
      <point x="105" y="5"/>
      <point x="117" y="4"/>
      <point x="133" y="-2" type="curve" smooth="yes"/>
      <point x="137" y="-3"/>
      <point x="141" y="-9"/>
      <point x="144" y="-10" type="curve" smooth="yes"/>
      <point x="182" y="-19"/>
      <point x="216" y="-9"/>
      <point x="236" y="1" type="curve" smooth="yes"/>
      <point x="250" y="9"/>
      <point x="256" y="18"/>
      <point x="267" y="27" type="curve" smooth="yes"/>
      <point x="290" y="45"/>
      <point x="316" y="57"/>
      <point x="338" y="67" type="curve"/>
      <point x="370" y="32"/>
      <point x="399" y="-6"/>
      <point x="452" y="-19" type="curve"/>
      <point x="492" y="-4"/>
      <point x="532" y="22"/>
      <point x="549" y="55" type="curve" smooth="yes"/>
      <point x="553" y="62"/>
      <point x="556" y="64"/>
      <point x="552" y="70" type="curve"/>
      <point x="529" y="72"/>
      <point x="501" y="46"/>
      <point x="472" y="47" type="curve" smooth="yes"/>
      <point x="445" y="48"/>
      <point x="399" y="75"/>
      <point x="390" y="90" type="curve" smooth="yes"/>
      <point x="379" y="106"/>
      <point x="395" y="118"/>
      <point x="410" y="135" type="curve" smooth="yes"/>
      <point x="418" y="145"/>
      <point x="423" y="157"/>
      <point x="430" y="164" type="curve" smooth="yes"/>
      <point x="435" y="170"/>
      <point x="445" y="172"/>
      <point x="450" y="178" type="curve" smooth="yes"/>
      <point x="458" y="188"/>
      <point x="463" y="202"/>
      <point x="469" y="212" type="curve" smooth="yes"/>
      <point x="476" y="223"/>
      <point x="487" y="236"/>
      <point x="487" y="249" type="curve"/>
      <point x="506" y="264"/>
      <point x="512" y="292"/>
      <point x="529" y="309" type="curve"/>
      <point x="553" y="309"/>
      <point x="566" y="304"/>
      <point x="572" y="323" type="curve"/>
      <point x="567" y="346"/>
      <point x="524" y="336"/>
      <point x="495" y="338" type="curve"/>
      <point x="479" y="338"/>
      <point x="460" y="346"/>
      <point x="450" y="343" type="curve"/>
      <point x="450" y="344"/>
      <point x="445" y="335"/>
      <point x="444" y="335" type="curve"/>
      <point x="437" y="331"/>
      <point x="428" y="338"/>
      <point x="432" y="329" type="curve"/>
      <point x="434" y="320"/>
      <point x="427" y="320"/>
      <point x="432" y="315" type="curve" smooth="yes"/>
      <point x="439" y="309"/>
      <point x="457" y="325"/>
      <point x="464" y="312" type="curve"/>
      <point x="466" y="303"/>
      <point x="454" y="309"/>
      <point x="458" y="298" type="curve"/>
      <point x="457" y="220"/>
      <point x="404" y="170"/>
      <point x="361" y="124" type="curve"/>
      <point x="358" y="139"/>
      <point x="341" y="142"/>
      <point x="344" y="164" type="curve"/>
      <point x="341" y="164"/>
      <point x="336" y="163"/>
      <point x="335" y="167" type="curve" smooth="yes"/>
      <point x="324" y="195"/>
      <point x="307" y="218"/>
      <point x="296" y="246" type="curve"/>
      <point x="296" y="251"/>
      <point x="303" y="248"/>
      <point x="304" y="252" type="curve"/>
      <point x="273" y="281"/>
      <point x="268" y="335"/>
    </contour>
    <contour>
      <point x="230" y="420" type="curve"/>
      <point x="214" y="430"/>
      <point x="193" y="487"/>
      <point x="219" y="446" type="curve"/>
      <point x="208" y="480"/>
      <point x="197" y="524"/>
      <point x="202" y="566" type="curve" smooth="yes"/>
      <point x="206" y="604"/>
      <point x="233" y="635"/>
      <point x="264" y="648" type="curve"/>
      <point x="272" y="649"/>
      <point x="269" y="660"/>
      <point x="276" y="663" type="curve"/>
      <point x="284" y="660"/>
      <point x="283" y="667"/>
      <point x="290" y="665" type="curve"/>
      <point x="297" y="666"/>
      <point x="297" y="660"/>
      <point x="298" y="654" type="curve"/>
      <point x="352" y="661"/>
      <point x="357" y="572"/>
      <point x="341" y="534" type="curve"/>
      <point x="334" y="532"/>
      <point x="338" y="518"/>
      <point x="327" y="520" type="curve"/>
      <point x="326" y="485"/>
      <point x="289" y="463"/>
      <point x="270" y="437" type="curve"/>
      <point x="255" y="435"/>
      <point x="248" y="425"/>
      <point x="236" y="420" type="curve"/>
      <point x="235" y="424"/>
      <point x="230" y="423"/>
    </contour>
    <contour>
      <point x="113" y="189" type="curve"/>
      <point x="122" y="265"/>
      <point x="162" y="309"/>
      <point x="213" y="343" type="curve"/>
      <point x="231" y="331"/>
      <point x="235" y="307"/>
      <point x="244" y="286" type="curve" smooth="yes"/>
      <point x="253" y="267"/>
      <point x="262" y="246"/>
      <point x="270" y="227" type="curve"/>
      <point x="272" y="218"/>
      <point x="267" y="216"/>
      <point x="267" y="209" type="curve"/>
      <point x="273" y="209"/>
      <point x="272" y="207"/>
      <point x="276" y="201" type="curve" smooth="yes"/>
      <point x="294" y="175"/>
      <point x="307" y="121"/>
      <point x="324" y="87" type="curve"/>
      <point x="302" y="68"/>
      <point x="279" y="55"/>
      <point x="256" y="47" type="curve" smooth="yes"/>
      <point x="242" y="42"/>
      <point x="227" y="30"/>
      <point x="202" y="36" type="curve"/>
      <point x="194" y="37"/>
      <point x="187" y="45"/>
      <point x="176" y="53" type="curve" smooth="yes"/>
      <point x="167" y="59"/>
      <point x="157" y="64"/>
      <point x="150" y="70" type="curve" smooth="yes"/>
      <point x="137" y="80"/>
      <point x="120" y="144"/>
      <point x="125" y="167" type="curve"/>
      <point x="123" y="177"/>
      <point x="115" y="180"/>
    </contour>
    <contour>
      <point x="53" y="84" type="curve"/>
      <point x="52" y="79"/>
      <point x="50" y="86"/>
      <point x="50" y="90" type="curve"/>
      <point x="52" y="95"/>
      <point x="54" y="88"/>
    </contour>
  </outline>
</glyph>
<glyph name="quotesingle" format="1">
  <advance width="162"/>
  <unicode hex="0027"/>
  <outline>
    <contour>
      <point x="71" y="702" type="curve" name="hr00"/>
      <point x="65" y="692"/>
      <point x="67" y="689"/>
      <point x="68" y="676" type="curve"/>
      <point x="58" y="655"/>
      <point x="60" y="633"/>
      <point x="51" y="611" type="curve" smooth="yes"/>
      <point x="44" y="594"/>
      <point x="19" y="576"/>
      <point x="37" y="554" type="curve"/>
      <point x="49" y="553"/>
      <point x="51" y="563"/>
      <point x="65" y="560" type="curve"/>
      <point x="75" y="570"/>
      <point x="82" y="583"/>
      <point x="97" y="588" type="curve"/>
      <point x="102" y="626"/>
      <point x="132" y="640"/>
      <point x="131" y="685" type="curve"/>
      <point x="114" y="698"/>
      <point x="100" y="700"/>
    </contour>
  </outline>
</glyph>
<glyph name="parenleft" format="1">
  <advance width="338"/>
  <unicode hex="0028"/>
  <outline>
    <contour>
      <point x="149" y="109" type="line" name="hr00"/>
      <point x="164" y="141"/>
      <point x="146" y="178"/>
      <point x="143" y="208" type="curve"/>
      <point x="140" y="257"/>
      <point x="148" y="310"/>
      <point x="155" y="348" type="curve" smooth="yes"/>
      <point x="169" y="430"/>
      <point x="195" y="495"/>
      <point x="220" y="556" type="curve" smooth="yes"/>
      <point x="231" y="583"/>
      <point x="240" y="596"/>
      <point x="252" y="616" type="curve" smooth="yes"/>
      <point x="258" y="626"/>
      <point x="260" y="638"/>
      <point x="266" y="647" type="curve" smooth="yes"/>
      <point x="278" y="668"/>
      <point x="293" y="689"/>
      <point x="306" y="702" type="curve" smooth="yes"/>
      <point x="318" y="713"/>
      <point x="350" y="725"/>
      <point x="332" y="750" type="curve"/>
      <point x="300" y="740"/>
      <point x="277" y="721"/>
      <point x="252" y="704" type="curve"/>
      <point x="235" y="671"/>
      <point x="199" y="647"/>
      <point x="178" y="610" type="curve"/>
      <point x="163" y="586"/>
      <point x="153" y="554"/>
      <point x="141" y="525" type="curve" smooth="yes"/>
      <point x="106" y="446"/>
      <point x="80" y="347"/>
      <point x="81" y="245" type="curve"/>
      <point x="81" y="231"/>
      <point x="80" y="216"/>
      <point x="81" y="203" type="curve" smooth="yes"/>
      <point x="84" y="127"/>
      <point x="101" y="70"/>
      <point x="126" y="20" type="curve"/>
      <point x="150" y="-25"/>
      <point x="167" y="-56"/>
      <point x="200" y="-85" type="curve"/>
      <point x="208" y="-100"/>
      <point x="234" y="-121"/>
      <point x="249" y="-102" type="curve"/>
      <point x="249" y="-76"/>
      <point x="224" y="-65"/>
      <point x="212" y="-48" type="curve" smooth="yes"/>
      <point x="197" y="-28"/>
      <point x="193" y="-5"/>
      <point x="178" y="17" type="curve"/>
      <point x="175" y="40"/>
      <point x="162" y="60"/>
      <point x="158" y="83" type="curve" smooth="yes"/>
      <point x="156" y="91"/>
      <point x="164" y="104"/>
      <point x="152" y="109" type="curve"/>
      <point x="152" y="105"/>
      <point x="151" y="98"/>
      <point x="149" y="103" type="curve"/>
    </contour>
  </outline>
</glyph>
<glyph name="parenright" format="1">
  <advance width="362"/>
  <unicode hex="0029"/>
  <outline>
    <contour>
      <point x="232" y="129" type="curve" name="hr00"/>
      <point x="252" y="163"/>
      <point x="253" y="208"/>
      <point x="260" y="252" type="curve" smooth="yes"/>
      <point x="262" y="263"/>
      <point x="268" y="271"/>
      <point x="269" y="283" type="curve"/>
      <point x="269" y="289"/>
      <point x="265" y="294"/>
      <point x="266" y="300" type="curve" smooth="yes"/>
      <point x="268" y="322"/>
      <point x="279" y="340"/>
      <point x="280" y="354" type="curve" smooth="yes"/>
      <point x="284" y="387"/>
      <point x="279" y="424"/>
      <point x="275" y="451" type="curve"/>
      <point x="273" y="459"/>
      <point x="276" y="467"/>
      <point x="275" y="474" type="curve" smooth="yes"/>
      <point x="264" y="556"/>
      <point x="231" y="587"/>
      <point x="192" y="642" type="curve"/>
      <point x="135" y="719" type="line" smooth="yes"/>
      <point x="133" y="722"/>
      <point x="132" y="731"/>
      <point x="132" y="731" type="curve"/>
      <point x="130" y="733"/>
      <point x="121" y="733"/>
      <point x="118" y="736" type="curve" smooth="yes"/>
      <point x="114" y="740"/>
      <point x="113" y="747"/>
      <point x="109" y="751" type="curve" smooth="yes"/>
      <point x="91" y="767"/>
      <point x="70" y="780"/>
      <point x="55" y="796" type="curve"/>
      <point x="54" y="799"/>
      <point x="52" y="801"/>
      <point x="49" y="802" type="curve"/>
      <point x="45" y="785"/>
      <point x="26" y="799"/>
      <point x="18" y="785" type="curve"/>
      <point x="17" y="767"/>
      <point x="34" y="767"/>
      <point x="47" y="762" type="curve"/>
      <point x="50" y="753"/>
      <point x="58" y="749"/>
      <point x="69" y="748" type="curve"/>
      <point x="84" y="732"/>
      <point x="97" y="714"/>
      <point x="112" y="699" type="curve"/>
      <point x="116" y="692"/>
      <point x="119" y="685"/>
      <point x="121" y="676" type="curve"/>
      <point x="148" y="653"/>
      <point x="154" y="609"/>
      <point x="172" y="577" type="curve"/>
      <point x="202" y="480"/>
      <point x="217" y="351"/>
      <point x="212" y="240" type="curve" smooth="yes"/>
      <point x="210" y="198"/>
      <point x="197" y="171"/>
      <point x="189" y="138" type="curve" smooth="yes"/>
      <point x="176" y="84"/>
      <point x="163" y="41"/>
      <point x="141" y="4" type="curve"/>
      <point x="122" y="-7"/>
      <point x="117" y="-24"/>
      <point x="104" y="-39" type="curve" smooth="yes"/>
      <point x="94" y="-49"/>
      <point x="81" y="-57"/>
      <point x="72" y="-68" type="curve" smooth="yes"/>
      <point x="56" y="-86"/>
      <point x="47" y="-103"/>
      <point x="29" y="-119" type="curve" smooth="yes"/>
      <point x="20" y="-128"/>
      <point x="0" y="-135"/>
      <point x="1" y="-153" type="curve"/>
      <point x="17" y="-167"/>
      <point x="22" y="-138"/>
      <point x="44" y="-142" type="curve"/>
      <point x="52" y="-129"/>
      <point x="64" y="-120"/>
      <point x="81" y="-116" type="curve"/>
      <point x="83" y="-110"/>
      <point x="85" y="-103"/>
      <point x="89" y="-99" type="curve"/>
      <point x="101" y="-99" type="line"/>
      <point x="130" y="-62"/>
      <point x="173" y="-38"/>
      <point x="183" y="18" type="curve"/>
      <point x="190" y="21"/>
      <point x="193" y="30"/>
      <point x="200" y="32" type="curve"/>
      <point x="198" y="59"/>
      <point x="220" y="87"/>
      <point x="226" y="115" type="curve"/>
      <point x="245" y="116"/>
      <point x="245" y="135"/>
      <point x="252" y="141" type="curve"/>
      <point x="240" y="143"/>
      <point x="239" y="121"/>
    </contour>
    <contour>
      <point x="175" y="622" type="curve"/>
      <point x="171" y="617"/>
      <point x="159" y="621"/>
      <point x="166" y="634" type="curve"/>
      <point x="172" y="633"/>
      <point x="169" y="623"/>
    </contour>
    <contour>
      <point x="238" y="520" type="curve"/>
      <point x="232" y="523"/>
      <point x="231" y="532"/>
      <point x="229" y="540" type="curve"/>
      <point x="234" y="535"/>
      <point x="238" y="529"/>
    </contour>
    <contour>
      <point x="200" y="577" type="curve"/>
      <point x="199" y="569"/>
      <point x="191" y="576"/>
      <point x="195" y="582" type="curve"/>
      <point x="198" y="582"/>
      <point x="197" y="577"/>
    </contour>
    <contour>
      <point x="246" y="391" type="line"/>
      <point x="248" y="401"/>
      <point x="258" y="376"/>
      <point x="249" y="391" type="curve"/>
    </contour>
  </outline>
</glyph>
<glyph name="asterisk" format="1">
  <advance width="491"/>
  <unicode hex="002A"/>
  <outline>
    <contour>
      <point x="275" y="551" type="curve" name="hr00"/>
      <point x="302" y="528"/>
      <point x="326" y="500"/>
      <point x="360" y="483" type="curve"/>
      <point x="359" y="466"/>
      <point x="376" y="461"/>
      <point x="374" y="452" type="curve"/>
      <point x="383" y="454"/>
      <point x="412" y="449"/>
      <point x="426" y="454" type="curve"/>
      <point x="444" y="488"/>
      <point x="409" y="519"/>
      <point x="374" y="500" type="curve"/>
      <point x="347" y="522"/>
      <point x="314" y="539"/>
      <point x="294" y="568" type="curve"/>
      <point x="324" y="581"/>
      <point x="349" y="598"/>
      <point x="371" y="617" type="curve"/>
      <point x="399" y="612"/>
      <point x="398" y="630"/>
      <point x="426" y="634" type="curve"/>
      <point x="436" y="696"/>
      <point x="338" y="698"/>
      <point x="349" y="634" type="curve"/>
      <point x="321" y="622"/>
      <point x="301" y="602"/>
      <point x="272" y="591" type="curve"/>
      <point x="274" y="627"/>
      <point x="269" y="655"/>
      <point x="266" y="685" type="curve"/>
      <point x="268" y="693"/>
      <point x="284" y="706"/>
      <point x="289" y="720" type="curve"/>
      <point x="275" y="740"/>
      <point x="236" y="734"/>
      <point x="220" y="720" type="curve"/>
      <point x="216" y="700"/>
      <point x="232" y="690"/>
      <point x="235" y="677" type="curve" smooth="yes"/>
      <point x="238" y="659"/>
      <point x="231" y="638"/>
      <point x="232" y="611" type="curve"/>
      <point x="227" y="613"/>
      <point x="175" y="643"/>
      <point x="175" y="654" type="curve" smooth="yes"/>
      <point x="175" y="659"/>
      <point x="192" y="662"/>
      <point x="183" y="671" type="curve"/>
      <point x="161" y="700"/>
      <point x="104" y="682"/>
      <point x="104" y="645" type="curve"/>
      <point x="113" y="636"/>
      <point x="132" y="627"/>
      <point x="149" y="634" type="curve"/>
      <point x="174" y="608"/>
      <point x="202" y="587"/>
      <point x="229" y="563" type="curve"/>
      <point x="196" y="541"/>
      <point x="167" y="515"/>
      <point x="129" y="497" type="curve"/>
      <point x="93" y="522"/>
      <point x="44" y="478"/>
      <point x="66" y="434" type="curve"/>
      <point x="100" y="420"/>
      <point x="127" y="444"/>
      <point x="138" y="469" type="curve"/>
      <point x="170" y="484"/>
      <point x="203" y="516"/>
      <point x="235" y="523" type="curve"/>
      <point x="238" y="506"/>
      <point x="240" y="483"/>
      <point x="240" y="452" type="curve"/>
      <point x="232" y="433"/>
      <point x="206" y="432"/>
      <point x="209" y="403" type="curve"/>
      <point x="229" y="383"/>
      <point x="291" y="390"/>
      <point x="294" y="420" type="curve" smooth="yes"/>
      <point x="296" y="433"/>
      <point x="284" y="440"/>
      <point x="275" y="452" type="curve"/>
      <point x="268" y="476"/>
      <point x="270" y="493"/>
      <point x="269" y="520" type="curve"/>
      <point x="278" y="525"/>
      <point x="281" y="508"/>
      <point x="286" y="517" type="curve"/>
      <point x="275" y="523"/>
      <point x="261" y="538"/>
    </contour>
    <contour>
      <point x="306" y="591" type="curve"/>
      <point x="300" y="585"/>
      <point x="313" y="601"/>
      <point x="320" y="600" type="curve"/>
      <point x="318" y="594"/>
      <point x="313" y="592"/>
    </contour>
    <contour>
      <point x="237" y="574" type="curve"/>
      <point x="236" y="566"/>
      <point x="229" y="574"/>
      <point x="232" y="580" type="curve"/>
      <point x="235" y="579"/>
      <point x="234" y="574"/>
    </contour>
  </outline>
</glyph>
<glyph name="plus" format="1">
  <advance width="382"/>
  <unicode hex="002B"/>
  <outline>
    <contour>
      <point x="238" y="442" type="curve" name="hr00"/>
      <point x="241" y="472"/>
      <point x="178" y="460"/>
      <point x="173" y="445" type="curve"/>
      <point x="169" y="428"/>
      <point x="188" y="433"/>
      <point x="187" y="419" type="curve"/>
      <point x="181" y="376"/>
      <point x="189" y="332"/>
      <point x="176" y="300" type="curve"/>
      <point x="140" y="295"/>
      <point x="112" y="303"/>
      <point x="79" y="297" type="curve" smooth="yes"/>
      <point x="59" y="293"/>
      <point x="40" y="292"/>
      <point x="30" y="277" type="curve"/>
      <point x="39" y="261"/>
      <point x="60" y="257"/>
      <point x="79" y="265" type="curve"/>
      <point x="104" y="255"/>
      <point x="151" y="286"/>
      <point x="176" y="268" type="curve"/>
      <point x="174" y="223"/>
      <point x="180" y="200"/>
      <point x="179" y="157" type="curve"/>
      <point x="171" y="152"/>
      <point x="157" y="154"/>
      <point x="156" y="143" type="curve"/>
      <point x="150" y="143"/>
      <point x="159" y="133"/>
      <point x="156" y="126" type="curve"/>
      <point x="174" y="118"/>
      <point x="181" y="134"/>
      <point x="193" y="120" type="curve"/>
      <point x="202" y="122"/>
      <point x="201" y="135"/>
      <point x="210" y="137" type="curve"/>
      <point x="210" y="185"/>
      <point x="211" y="232"/>
      <point x="216" y="274" type="curve"/>
      <point x="258" y="275"/>
      <point x="303" y="277"/>
      <point x="350" y="285" type="curve"/>
      <point x="353" y="297"/>
      <point x="350" y="303"/>
      <point x="344" y="311" type="curve"/>
      <point x="298" y="311"/>
      <point x="257" y="294"/>
      <point x="213" y="311" type="curve"/>
      <point x="206" y="361"/>
      <point x="227" y="394"/>
      <point x="221" y="437" type="curve"/>
      <point x="231" y="435"/>
      <point x="236" y="437"/>
    </contour>
  </outline>
</glyph>
<glyph name="comma" format="1">
  <advance width="172"/>
  <unicode hex="002C"/>
  <outline>
    <contour>
      <point x="69" y="-84" type="curve"/>
      <point x="88" y="-87"/>
      <point x="89" y="-72"/>
      <point x="104" y="-70" type="curve"/>
      <point x="104" y="-59" type="line"/>
      <point x="116" y="-60"/>
      <point x="115" y="-51"/>
      <point x="121" y="-41" type="curve" smooth="yes"/>
      <point x="133" y="-23"/>
      <point x="145" y="-2"/>
      <point x="141" y="27" type="curve" smooth="yes"/>
      <point x="139" y="40"/>
      <point x="128" y="65"/>
      <point x="124" y="70" type="curve" smooth="yes"/>
      <point x="110" y="86"/>
      <point x="68" y="80"/>
      <point x="52" y="70" type="curve" smooth="yes"/>
      <point x="36" y="59"/>
      <point x="28" y="36"/>
      <point x="32" y="15" type="curve"/>
      <point x="39" y="-10"/>
      <point x="80" y="-17"/>
      <point x="95" y="-2" type="curve"/>
      <point x="93" y="-33"/>
      <point x="64" y="-53"/>
    </contour>
  </outline>
</glyph>
<glyph name="hyphen" format="1">
  <advance width="293"/>
  <unicode hex="002D"/>
  <outline>
    <contour>
      <point x="252" y="324" type="curve"/>
      <point x="191" y="337"/>
      <point x="130" y="335"/>
      <point x="79" y="322" type="curve"/>
      <point x="68" y="320"/>
      <point x="73" y="335"/>
      <point x="59" y="330" type="curve"/>
      <point x="50" y="330"/>
      <point x="55" y="317"/>
      <point x="50" y="313" type="curve"/>
      <point x="37" y="316"/>
      <point x="34" y="308"/>
      <point x="30" y="302" type="curve"/>
      <point x="45" y="293"/>
      <point x="49" y="282"/>
      <point x="44" y="259" type="curve"/>
      <point x="59" y="252"/>
      <point x="84" y="257"/>
      <point x="93" y="265" type="curve"/>
      <point x="150" y="262"/>
      <point x="218" y="266"/>
      <point x="258" y="270" type="curve"/>
      <point x="269" y="287"/>
      <point x="256" y="306"/>
    </contour>
  </outline>
</glyph>
<glyph name="period" format="1">
  <advance width="163"/>
  <unicode hex="002E"/>
  <outline>
    <contour>
      <point x="133" y="45" type="curve" name="hr00"/>
      <point x="123" y="65"/>
      <point x="94" y="66"/>
      <point x="73" y="76" type="curve"/>
      <point x="55" y="70"/>
      <point x="46" y="56"/>
      <point x="33" y="45" type="curve"/>
      <point x="31" y="30"/>
      <point x="28" y="8"/>
      <point x="33" y="-7" type="curve"/>
      <point x="71" y="-32"/>
      <point x="129" y="1"/>
    </contour>
  </outline>
</glyph>
<glyph name="slash" format="1">
  <advance width="476"/>
  <unicode hex="002F"/>
  <outline>
    <contour>
      <point x="476" y="656" type="curve"/>
      <point x="452" y="657"/>
      <point x="424" y="656"/>
      <point x="407" y="642" type="curve"/>
      <point x="391" y="592"/>
      <point x="370" y="556"/>
      <point x="348" y="511" type="curve" smooth="yes"/>
      <point x="332" y="480"/>
      <point x="312" y="449"/>
      <point x="293" y="422" type="curve" smooth="yes"/>
      <point x="263" y="380"/>
      <point x="231" y="339"/>
      <point x="205" y="297" type="curve" smooth="yes"/>
      <point x="197" y="285"/>
      <point x="192" y="273"/>
      <point x="185" y="263" type="curve" smooth="yes"/>
      <point x="183" y="260"/>
      <point x="176" y="258"/>
      <point x="174" y="254" type="curve" smooth="yes"/>
      <point x="167" y="243"/>
      <point x="163" y="230"/>
      <point x="157" y="220" type="curve" smooth="yes"/>
      <point x="136" y="189"/>
      <point x="108" y="161"/>
      <point x="94" y="126" type="curve"/>
      <point x="58" y="100"/>
      <point x="38" y="63"/>
      <point x="17" y="23" type="curve" smooth="yes"/>
      <point x="10" y="11"/>
      <point x="0" y="-2"/>
      <point x="0" y="-16" type="curve"/>
      <point x="10" y="-30"/>
      <point x="24" y="-17"/>
      <point x="40" y="-19" type="curve"/>
      <point x="45" y="-1"/>
      <point x="60" y="8"/>
      <point x="63" y="29" type="curve"/>
      <point x="88" y="60"/>
      <point x="108" y="93"/>
      <point x="131" y="126" type="curve" smooth="yes"/>
      <point x="151" y="156"/>
      <point x="171" y="187"/>
      <point x="191" y="212" type="curve" smooth="yes"/>
      <point x="200" y="224"/>
      <point x="205" y="236"/>
      <point x="214" y="249" type="curve" smooth="yes"/>
      <point x="218" y="255"/>
      <point x="226" y="262"/>
      <point x="231" y="269" type="curve" smooth="yes"/>
      <point x="253" y="298"/>
      <point x="278" y="323"/>
      <point x="296" y="351" type="curve" smooth="yes"/>
      <point x="301" y="359"/>
      <point x="303" y="369"/>
      <point x="308" y="377" type="curve" smooth="yes"/>
      <point x="313" y="385"/>
      <point x="323" y="389"/>
      <point x="328" y="397" type="curve" smooth="yes"/>
      <point x="341" y="417"/>
      <point x="347" y="435"/>
      <point x="359" y="451" type="curve" smooth="yes"/>
      <point x="392" y="496"/>
      <point x="416" y="552"/>
      <point x="445" y="599" type="curve"/>
      <point x="455" y="617"/>
      <point x="474" y="634"/>
    </contour>
  </outline>
</glyph>
<glyph name="zero" format="1">
  <advance width="573"/>
  <unicode hex="0030"/>
  <outline>
    <contour>
      <point x="207" y="-17" type="curve" name="hr00"/>
      <point x="250" y="-22"/>
      <point x="301" y="-8"/>
      <point x="336" y="-5" type="curve"/>
      <point x="348" y="9"/>
      <point x="369" y="15"/>
      <point x="384" y="26" type="curve" smooth="yes"/>
      <point x="388" y="30"/>
      <point x="386" y="40"/>
      <point x="390" y="43" type="curve"/>
      <point x="404" y="35"/>
      <point x="402" y="54"/>
      <point x="416" y="55" type="curve"/>
      <point x="416" y="72"/>
      <point x="431" y="82"/>
      <point x="438" y="94" type="curve" smooth="yes"/>
      <point x="446" y="108"/>
      <point x="447" y="126"/>
      <point x="461" y="134" type="curve"/>
      <point x="460" y="151"/>
      <point x="471" y="163"/>
      <point x="475" y="171" type="curve" smooth="yes"/>
      <point x="490" y="202"/>
      <point x="500" y="248"/>
      <point x="507" y="280" type="curve" smooth="yes"/>
      <point x="516" y="324"/>
      <point x="512" y="386"/>
      <point x="507" y="431" type="curve" smooth="yes"/>
      <point x="504" y="456"/>
      <point x="506" y="484"/>
      <point x="504" y="511" type="curve" smooth="yes"/>
      <point x="500" y="572"/>
      <point x="483" y="637"/>
      <point x="453" y="665" type="curve" smooth="yes"/>
      <point x="439" y="677"/>
      <point x="417" y="685"/>
      <point x="396" y="685" type="curve"/>
      <point x="382" y="710"/>
      <point x="313" y="695"/>
      <point x="290" y="699" type="curve"/>
      <point x="288" y="699"/>
      <point x="287" y="705"/>
      <point x="282" y="704" type="curve"/>
      <point x="268" y="704"/>
      <point x="231" y="699"/>
      <point x="225" y="696" type="curve" smooth="yes"/>
      <point x="207" y="688"/>
      <point x="209" y="679"/>
      <point x="196" y="665" type="curve" smooth="yes"/>
      <point x="189" y="657"/>
      <point x="176" y="652"/>
      <point x="170" y="645" type="curve" smooth="yes"/>
      <point x="155" y="625"/>
      <point x="148" y="597"/>
      <point x="128" y="582" type="curve"/>
      <point x="126" y="552"/>
      <point x="115" y="536"/>
      <point x="105" y="516" type="curve" smooth="yes"/>
      <point x="99" y="505"/>
      <point x="89" y="495"/>
      <point x="85" y="485" type="curve" smooth="yes"/>
      <point x="83" y="480"/>
      <point x="84" y="471"/>
      <point x="82" y="465" type="curve" smooth="yes"/>
      <point x="80" y="460"/>
      <point x="75" y="456"/>
      <point x="73" y="451" type="curve" smooth="yes"/>
      <point x="65" y="427"/>
      <point x="64" y="411"/>
      <point x="62" y="382" type="curve" smooth="yes"/>
      <point x="57" y="317"/>
      <point x="46" y="262"/>
      <point x="53" y="203" type="curve"/>
      <point x="56" y="187"/>
      <point x="61" y="158"/>
      <point x="65" y="151" type="curve" smooth="yes"/>
      <point x="85" y="112"/>
      <point x="111" y="56"/>
      <point x="139" y="32" type="curve" smooth="yes"/>
      <point x="148" y="24"/>
      <point x="162" y="19"/>
      <point x="173" y="12" type="curve" smooth="yes"/>
      <point x="183" y="5"/>
      <point x="194" y="-9"/>
      <point x="207" y="-2" type="curve"/>
      <point x="207" y="-10"/>
      <point x="202" y="-11"/>
    </contour>
    <contour>
      <point x="259" y="9" type="curve" smooth="yes"/>
      <point x="236" y="11"/>
      <point x="216" y="26"/>
      <point x="187" y="26" type="curve"/>
      <point x="186" y="49"/>
      <point x="165" y="61"/>
      <point x="153" y="77" type="curve"/>
      <point x="149" y="84"/>
      <point x="147" y="97"/>
      <point x="142" y="106" type="curve" smooth="yes"/>
      <point x="131" y="128"/>
      <point x="115" y="167"/>
      <point x="113" y="206" type="curve"/>
      <point x="113" y="219"/>
      <point x="119" y="234"/>
      <point x="116" y="254" type="curve" smooth="yes"/>
      <point x="114" y="269"/>
      <point x="108" y="284"/>
      <point x="108" y="300" type="curve" smooth="yes"/>
      <point x="108" y="327"/>
      <point x="117" y="356"/>
      <point x="125" y="388" type="curve" smooth="yes"/>
      <point x="132" y="416"/>
      <point x="137" y="447"/>
      <point x="145" y="474" type="curve" smooth="yes"/>
      <point x="147" y="481"/>
      <point x="153" y="488"/>
      <point x="156" y="496" type="curve" smooth="yes"/>
      <point x="164" y="518"/>
      <point x="167" y="543"/>
      <point x="176" y="562" type="curve" smooth="yes"/>
      <point x="183" y="576"/>
      <point x="194" y="588"/>
      <point x="202" y="602" type="curve" smooth="yes"/>
      <point x="214" y="625"/>
      <point x="222" y="640"/>
      <point x="239" y="656" type="curve"/>
      <point x="270" y="656" type="line"/>
      <point x="278" y="660"/>
      <point x="276" y="669"/>
      <point x="273" y="676" type="curve"/>
      <point x="316" y="686"/>
      <point x="351" y="669"/>
      <point x="384" y="653" type="curve"/>
      <point x="406" y="616"/>
      <point x="437" y="578"/>
      <point x="444" y="525" type="curve" smooth="yes"/>
      <point x="451" y="473"/>
      <point x="424" y="417"/>
      <point x="453" y="377" type="curve"/>
      <point x="461" y="368"/>
      <point x="443" y="372"/>
      <point x="447" y="360" type="curve"/>
      <point x="450" y="287"/>
      <point x="448" y="226"/>
      <point x="421" y="163" type="curve"/>
      <point x="406" y="125"/>
      <point x="400" y="90"/>
      <point x="381" y="69" type="curve" smooth="yes"/>
      <point x="375" y="61"/>
      <point x="362" y="56"/>
      <point x="350" y="46" type="curve" smooth="yes"/>
      <point x="340" y="38"/>
      <point x="330" y="25"/>
      <point x="321" y="20" type="curve" smooth="yes"/>
      <point x="306" y="13"/>
      <point x="274" y="8"/>
    </contour>
    <contour>
      <point x="105" y="228" type="curve"/>
      <point x="100" y="233"/>
      <point x="99" y="241"/>
      <point x="99" y="251" type="curve"/>
      <point x="106" y="248"/>
      <point x="105" y="238"/>
    </contour>
    <contour>
      <point x="99" y="146" type="curve"/>
      <point x="89" y="141"/>
      <point x="97" y="155"/>
      <point x="91" y="154" type="curve"/>
      <point x="94" y="163"/>
      <point x="100" y="151"/>
    </contour>
    <contour>
      <point x="350" y="29" type="curve" smooth="yes"/>
      <point x="352" y="27"/>
      <point x="339" y="21"/>
      <point x="341" y="26" type="curve"/>
      <point x="342" y="27"/>
      <point x="348" y="31"/>
    </contour>
    <contour>
      <point x="467" y="488" type="curve" smooth="yes"/>
      <point x="466" y="482"/>
      <point x="463" y="490"/>
      <point x="464" y="494" type="curve" smooth="yes"/>
      <point x="465" y="499"/>
      <point x="468" y="492"/>
    </contour>
  </outline>
</glyph>
<glyph name="one" format="1">
  <advance width="292"/>
  <unicode hex="0031"/>
  <outline>
    <contour>
      <point x="205" y="673" type="curve" name="hr00"/>
      <point x="188" y="677"/>
      <point x="180" y="680"/>
      <point x="162" y="678" type="curve"/>
      <point x="143" y="649"/>
      <point x="121" y="623"/>
      <point x="94" y="601" type="curve" smooth="yes"/>
      <point x="78" y="589"/>
      <point x="50" y="581"/>
      <point x="51" y="559" type="curve"/>
      <point x="80" y="562"/>
      <point x="107" y="591"/>
      <point x="139" y="601" type="curve"/>
      <point x="130" y="560"/>
      <point x="136" y="525"/>
      <point x="134" y="493" type="curve" smooth="yes"/>
      <point x="131" y="459"/>
      <point x="124" y="424"/>
      <point x="122" y="388" type="curve" smooth="yes"/>
      <point x="116" y="288" type="line" smooth="yes"/>
      <point x="113" y="246"/>
      <point x="122" y="208"/>
      <point x="125" y="165" type="curve" smooth="yes"/>
      <point x="127" y="130"/>
      <point x="124" y="94"/>
      <point x="122" y="60" type="curve" smooth="yes"/>
      <point x="121" y="44"/>
      <point x="127" y="29"/>
      <point x="116" y="14" type="curve"/>
      <point x="88" y="11"/>
      <point x="68" y="26"/>
      <point x="54" y="6" type="curve"/>
      <point x="53" y="-10"/>
      <point x="71" y="-7"/>
      <point x="79" y="-6" type="curve" smooth="yes"/>
      <point x="95" y="-3"/>
      <point x="132" y="-16"/>
      <point x="153" y="0" type="curve"/>
      <point x="159" y="-1"/>
      <point x="159" y="-8"/>
      <point x="168" y="-6" type="curve"/>
      <point x="192" y="10"/>
      <point x="219" y="-14"/>
      <point x="242" y="3" type="curve"/>
      <point x="236" y="32"/>
      <point x="205" y="20"/>
      <point x="185" y="23" type="curve"/>
      <point x="181" y="113"/>
      <point x="205" y="203"/>
      <point x="185" y="271" type="curve"/>
      <point x="191" y="310"/>
      <point x="186" y="366"/>
      <point x="188" y="399" type="curve" smooth="yes"/>
      <point x="193" y="486"/>
      <point x="205" y="588"/>
    </contour>
    <contour>
      <point x="179" y="191" type="curve"/>
      <point x="171" y="194"/>
      <point x="170" y="200"/>
      <point x="173" y="208" type="curve"/>
      <point x="178" y="205"/>
      <point x="177" y="196"/>
    </contour>
    <contour>
      <point x="173" y="217" type="curve"/>
      <point x="173" y="225" type="line"/>
      <point x="182" y="229"/>
      <point x="182" y="212"/>
    </contour>
    <contour>
      <point x="165" y="77" type="curve"/>
      <point x="156" y="80"/>
      <point x="168" y="87"/>
      <point x="165" y="94" type="curve"/>
      <point x="173" y="91"/>
      <point x="164" y="82"/>
    </contour>
    <contour>
      <point x="171" y="507" type="curve"/>
      <point x="170" y="502"/>
      <point x="167" y="509"/>
      <point x="168" y="513" type="curve" smooth="yes"/>
      <point x="169" y="518"/>
      <point x="171" y="511"/>
    </contour>
  </outline>
</glyph>
<glyph name="two" format="1">
  <advance width="492"/>
  <unicode hex="0032"/>
  <outline>
    <contour>
      <point x="100" y="498" type="curve" name="hr00"/>
      <point x="114" y="510"/>
      <point x="109" y="532"/>
      <point x="117" y="549" type="curve" smooth="yes"/>
      <point x="122" y="561"/>
      <point x="135" y="568"/>
      <point x="137" y="580" type="curve"/>
      <point x="154" y="585"/>
      <point x="168" y="602"/>
      <point x="188" y="609" type="curve" smooth="yes"/>
      <point x="202" y="614"/>
      <point x="224" y="612"/>
      <point x="237" y="614" type="curve"/>
      <point x="244" y="616"/>
      <point x="250" y="622"/>
      <point x="256" y="623" type="curve" smooth="yes"/>
      <point x="307" y="628"/>
      <point x="324" y="596"/>
      <point x="353" y="563" type="curve"/>
      <point x="354" y="550"/>
      <point x="366" y="540"/>
      <point x="368" y="526" type="curve"/>
      <point x="368" y="521"/>
      <point x="364" y="514"/>
      <point x="365" y="509" type="curve" smooth="yes"/>
      <point x="366" y="500"/>
      <point x="372" y="494"/>
      <point x="373" y="486" type="curve" smooth="yes"/>
      <point x="375" y="474"/>
      <point x="374" y="451"/>
      <point x="370" y="443" type="curve" smooth="yes"/>
      <point x="336" y="362"/>
      <point x="244" y="281"/>
      <point x="180" y="218" type="curve" smooth="yes"/>
      <point x="164" y="203"/>
      <point x="146" y="187"/>
      <point x="134" y="173" type="curve" smooth="yes"/>
      <point x="126" y="163"/>
      <point x="122" y="150"/>
      <point x="114" y="141" type="curve" smooth="yes"/>
      <point x="111" y="138"/>
      <point x="107" y="142"/>
      <point x="105" y="141" type="curve"/>
      <point x="104" y="141"/>
      <point x="101" y="134"/>
      <point x="100" y="133" type="curve"/>
      <point x="87" y="121"/>
      <point x="82" y="104"/>
      <point x="68" y="99" type="curve"/>
      <point x="65" y="91"/>
      <point x="82" y="91"/>
      <point x="68" y="90" type="curve"/>
      <point x="47" y="73"/>
      <point x="20" y="37"/>
      <point x="0" y="10" type="curve"/>
      <point x="10" y="6"/>
      <point x="12" y="-6"/>
      <point x="20" y="-13" type="curve"/>
      <point x="59" y="-5"/>
      <point x="102" y="-4"/>
      <point x="134" y="-10" type="curve"/>
      <point x="159" y="-4"/>
      <point x="203" y="13"/>
      <point x="231" y="-1" type="curve"/>
      <point x="235" y="7"/>
      <point x="242" y="0"/>
      <point x="248" y="10" type="curve"/>
      <point x="277" y="-4"/>
      <point x="321" y="11"/>
      <point x="356" y="-1" type="curve"/>
      <point x="382" y="12"/>
      <point x="421" y="-7"/>
      <point x="442" y="2" type="curve"/>
      <point x="436" y="30"/>
      <point x="442" y="64"/>
      <point x="439" y="87" type="curve"/>
      <point x="420" y="85"/>
      <point x="418" y="64"/>
      <point x="408" y="53" type="curve"/>
      <point x="285" y="57"/>
      <point x="168" y="41"/>
      <point x="71" y="44" type="curve"/>
      <point x="98" y="76"/>
      <point x="131" y="111"/>
      <point x="154" y="141" type="curve" smooth="yes"/>
      <point x="160" y="150"/>
      <point x="172" y="158"/>
      <point x="177" y="164" type="curve" smooth="yes"/>
      <point x="179" y="167"/>
      <point x="177" y="173"/>
      <point x="180" y="176" type="curve" smooth="yes"/>
      <point x="190" y="187"/>
      <point x="205" y="195"/>
      <point x="217" y="207" type="curve" smooth="yes"/>
      <point x="253" y="244"/>
      <point x="279" y="295"/>
      <point x="325" y="324" type="curve"/>
      <point x="325" y="341"/>
      <point x="344" y="341"/>
      <point x="345" y="358" type="curve"/>
      <point x="378" y="375"/>
      <point x="390" y="414"/>
      <point x="416" y="438" type="curve"/>
      <point x="420" y="466"/>
      <point x="433" y="488"/>
      <point x="436" y="512" type="curve" smooth="yes"/>
      <point x="448" y="611"/>
      <point x="361" y="676"/>
      <point x="274" y="686" type="curve" smooth="yes"/>
      <point x="243" y="689"/>
      <point x="205" y="667"/>
      <point x="185" y="657" type="curve" smooth="yes"/>
      <point x="159" y="644"/>
      <point x="123" y="624"/>
      <point x="111" y="606" type="curve" smooth="yes"/>
      <point x="96" y="583"/>
      <point x="98" y="553"/>
      <point x="80" y="529" type="curve"/>
      <point x="89" y="521"/>
      <point x="81" y="496"/>
    </contour>
  </outline>
</glyph>
<glyph name="three" format="1">
  <advance width="449"/>
  <unicode hex="0033"/>
  <outline>
    <contour>
      <point x="250" y="368" type="curve"/>
      <point x="263" y="375"/>
      <point x="277" y="395"/>
      <point x="288" y="405" type="curve" smooth="yes"/>
      <point x="292" y="409"/>
      <point x="301" y="409"/>
      <point x="305" y="413" type="curve"/>
      <point x="310" y="421"/>
      <point x="312" y="435"/>
      <point x="319" y="445" type="curve" smooth="yes"/>
      <point x="323" y="450"/>
      <point x="330" y="451"/>
      <point x="333" y="456" type="curve" smooth="yes"/>
      <point x="337" y="463"/>
      <point x="341" y="476"/>
      <point x="345" y="485" type="curve" smooth="yes"/>
      <point x="349" y="495"/>
      <point x="354" y="506"/>
      <point x="356" y="513" type="curve" smooth="yes"/>
      <point x="365" y="555"/>
      <point x="349" y="575"/>
      <point x="339" y="604" type="curve"/>
      <point x="325" y="611"/>
      <point x="325" y="628"/>
      <point x="316" y="638" type="curve" smooth="yes"/>
      <point x="298" y="661"/>
      <point x="264" y="673"/>
      <point x="236" y="678" type="curve" smooth="yes"/>
      <point x="221" y="681"/>
      <point x="212" y="687"/>
      <point x="205" y="684" type="curve" smooth="yes"/>
      <point x="151" y="666"/>
      <point x="112" y="654"/>
      <point x="77" y="616" type="curve"/>
      <point x="75" y="598"/>
      <point x="47" y="573"/>
      <point x="74" y="561" type="curve"/>
      <point x="89" y="569"/>
      <point x="85" y="586"/>
      <point x="94" y="599" type="curve" smooth="yes"/>
      <point x="128" y="648"/>
      <point x="230" y="644"/>
      <point x="276" y="610" type="curve"/>
      <point x="280" y="592"/>
      <point x="299" y="589"/>
      <point x="307" y="570" type="curve" smooth="yes"/>
      <point x="325" y="531"/>
      <point x="308" y="472"/>
      <point x="285" y="450" type="curve"/>
      <point x="281" y="440"/>
      <point x="292" y="445"/>
      <point x="290" y="436" type="curve"/>
      <point x="258" y="402"/>
      <point x="230" y="379"/>
      <point x="171" y="370" type="curve"/>
      <point x="164" y="371"/>
      <point x="167" y="362"/>
      <point x="162" y="362" type="curve" smooth="yes"/>
      <point x="140" y="362"/>
      <point x="127" y="353"/>
      <point x="125" y="333" type="curve"/>
      <point x="156" y="325"/>
      <point x="221" y="342"/>
      <point x="259" y="328" type="curve"/>
      <point x="276" y="307"/>
      <point x="300" y="293"/>
      <point x="322" y="276" type="curve"/>
      <point x="333" y="256"/>
      <point x="345" y="235"/>
      <point x="347" y="211" type="curve"/>
      <point x="354" y="151"/>
      <point x="328" y="91"/>
      <point x="307" y="65" type="curve" smooth="yes"/>
      <point x="304" y="61"/>
      <point x="295" y="59"/>
      <point x="290" y="54" type="curve" smooth="yes"/>
      <point x="283" y="47"/>
      <point x="282" y="41"/>
      <point x="276" y="37" type="curve" smooth="yes"/>
      <point x="232" y="7"/>
      <point x="161" y="23"/>
      <point x="99" y="31" type="curve"/>
      <point x="82" y="50"/>
      <point x="73" y="77"/>
      <point x="54" y="94" type="curve"/>
      <point x="38" y="96"/>
      <point x="15" y="88"/>
      <point x="11" y="71" type="curve" smooth="yes"/>
      <point x="6" y="51"/>
      <point x="22" y="33"/>
      <point x="28" y="17" type="curve"/>
      <point x="47" y="15"/>
      <point x="58" y="6"/>
      <point x="74" y="0" type="curve"/>
      <point x="85" y="-2"/>
      <point x="88" y="4"/>
      <point x="99" y="3" type="curve"/>
      <point x="150" y="-25"/>
      <point x="223" y="-3"/>
      <point x="268" y="14" type="curve" smooth="yes"/>
      <point x="284" y="20"/>
      <point x="299" y="28"/>
      <point x="310" y="28" type="curve"/>
      <point x="309" y="40"/>
      <point x="320" y="40"/>
      <point x="322" y="48" type="curve"/>
      <point x="330" y="52"/>
      <point x="331" y="46"/>
      <point x="339" y="51" type="curve"/>
      <point x="349" y="81"/>
      <point x="389" y="99"/>
      <point x="396" y="134" type="curve" smooth="yes"/>
      <point x="400" y="153"/>
      <point x="391" y="179"/>
      <point x="393" y="199" type="curve" smooth="yes"/>
      <point x="394" y="206"/>
      <point x="399" y="211"/>
      <point x="399" y="217" type="curve"/>
      <point x="398" y="251"/>
      <point x="377" y="280"/>
      <point x="370" y="311" type="curve"/>
      <point x="334" y="333"/>
      <point x="300" y="367"/>
    </contour>
    <contour>
      <point x="350" y="262" type="curve"/>
      <point x="346" y="252"/>
      <point x="337" y="285"/>
      <point x="327" y="288" type="curve"/>
      <point x="340" y="296"/>
      <point x="340" y="266"/>
    </contour>
  </outline>
</glyph>
<glyph name="four" format="1">
  <advance width="492"/>
  <unicode hex="0034"/>
  <outline>
    <contour>
      <point x="385" y="678" type="curve" name="hr00"/>
      <point x="367" y="683"/>
      <point x="361" y="682"/>
      <point x="342" y="686" type="curve"/>
      <point x="335" y="679"/>
      <point x="327" y="672"/>
      <point x="316" y="669" type="curve"/>
      <point x="304" y="645"/>
      <point x="291" y="622"/>
      <point x="271" y="606" type="curve"/>
      <point x="239" y="549"/>
      <point x="198" y="496"/>
      <point x="160" y="450" type="curve" smooth="yes"/>
      <point x="145" y="432"/>
      <point x="130" y="417"/>
      <point x="117" y="401" type="curve" smooth="yes"/>
      <point x="108" y="390"/>
      <point x="103" y="375"/>
      <point x="94" y="364" type="curve" smooth="yes"/>
      <point x="80" y="347"/>
      <point x="57" y="336"/>
      <point x="54" y="313" type="curve"/>
      <point x="41" y="300"/>
      <point x="24" y="291"/>
      <point x="20" y="270" type="curve"/>
      <point x="22" y="260"/>
      <point x="41" y="266"/>
      <point x="51" y="264" type="curve"/>
      <point x="68" y="243"/>
      <point x="120" y="260"/>
      <point x="142" y="244" type="curve"/>
      <point x="187" y="265"/>
      <point x="233" y="247"/>
      <point x="294" y="256" type="curve"/>
      <point x="290" y="182"/>
      <point x="304" y="88"/>
      <point x="296" y="19" type="curve"/>
      <point x="279" y="19"/>
      <point x="259" y="22"/>
      <point x="259" y="5" type="curve"/>
      <point x="276" y="-13"/>
      <point x="312" y="1"/>
      <point x="339" y="-1" type="curve" smooth="yes"/>
      <point x="356" y="-2"/>
      <point x="378" y="-18"/>
      <point x="385" y="-1" type="curve" smooth="yes"/>
      <point x="392" y="14"/>
      <point x="364" y="18"/>
      <point x="345" y="16" type="curve"/>
      <point x="348" y="90"/>
      <point x="350" y="176"/>
      <point x="353" y="256" type="curve"/>
      <point x="387" y="259"/>
      <point x="416" y="248"/>
      <point x="442" y="259" type="curve"/>
      <point x="437" y="273"/>
      <point x="433" y="288"/>
      <point x="430" y="304" type="curve"/>
      <point x="413" y="310"/>
      <point x="360" y="298"/>
      <point x="348" y="318" type="curve"/>
      <point x="355" y="352"/>
      <point x="349" y="388"/>
      <point x="356" y="421" type="curve" smooth="yes"/>
      <point x="358" y="431"/>
      <point x="365" y="440"/>
      <point x="368" y="450" type="curve" smooth="yes"/>
      <point x="374" y="472"/>
      <point x="361" y="495"/>
      <point x="376" y="509" type="curve"/>
      <point x="363" y="536"/>
      <point x="380" y="565"/>
      <point x="385" y="595" type="curve" smooth="yes"/>
      <point x="389" y="619"/>
      <point x="386" y="643"/>
      <point x="390" y="669" type="curve"/>
      <point x="387" y="670"/>
      <point x="385" y="673"/>
    </contour>
    <contour>
      <point x="222" y="492" type="curve"/>
      <point x="260" y="540"/>
      <point x="295" y="591"/>
      <point x="328" y="643" type="curve"/>
      <point x="326" y="625"/>
      <point x="331" y="605"/>
      <point x="328" y="586" type="curve" smooth="yes"/>
      <point x="325" y="572"/>
      <point x="315" y="561"/>
      <point x="311" y="546" type="curve" smooth="yes"/>
      <point x="301" y="512"/>
      <point x="303" y="473"/>
      <point x="302" y="435" type="curve" smooth="yes"/>
      <point x="301" y="394"/>
      <point x="291" y="352"/>
      <point x="294" y="307" type="curve"/>
      <point x="224" y="310"/>
      <point x="151" y="310"/>
      <point x="80" y="313" type="curve"/>
      <point x="89" y="331"/>
      <point x="98" y="336"/>
      <point x="103" y="355" type="curve"/>
      <point x="147" y="397"/>
      <point x="185" y="445"/>
    </contour>
  </outline>
</glyph>
<glyph name="five" format="1">
  <advance width="475"/>
  <unicode hex="0035"/>
  <outline>
    <contour>
      <point x="406" y="630" type="curve" name="hr00"/>
      <point x="408" y="643"/>
      <point x="417" y="650"/>
      <point x="414" y="667" type="curve"/>
      <point x="412" y="668"/>
      <point x="411" y="670"/>
      <point x="412" y="673" type="curve"/>
      <point x="404" y="676"/>
      <point x="391" y="687"/>
      <point x="386" y="676" type="curve"/>
      <point x="354" y="679"/>
      <point x="321" y="666"/>
      <point x="298" y="679" type="curve"/>
      <point x="258" y="666"/>
      <point x="198" y="667"/>
      <point x="149" y="667" type="curve" smooth="yes"/>
      <point x="134" y="667"/>
      <point x="116" y="676"/>
      <point x="104" y="662" type="curve"/>
      <point x="109" y="562"/>
      <point x="85" y="468"/>
      <point x="92" y="368" type="curve"/>
      <point x="86" y="359"/>
      <point x="84" y="345"/>
      <point x="92" y="337" type="curve"/>
      <point x="115" y="338"/>
      <point x="132" y="354"/>
      <point x="155" y="357" type="curve" smooth="yes"/>
      <point x="168" y="358"/>
      <point x="174" y="354"/>
      <point x="181" y="354" type="curve" smooth="yes"/>
      <point x="186" y="354"/>
      <point x="192" y="359"/>
      <point x="198" y="360" type="curve"/>
      <point x="206" y="360"/>
      <point x="216" y="354"/>
      <point x="223" y="354" type="curve" smooth="yes"/>
      <point x="227" y="354"/>
      <point x="231" y="359"/>
      <point x="235" y="360" type="curve" smooth="yes"/>
      <point x="273" y="365"/>
      <point x="296" y="338"/>
      <point x="326" y="328" type="curve"/>
      <point x="349" y="300"/>
      <point x="356" y="256"/>
      <point x="369" y="217" type="curve"/>
      <point x="371" y="224"/>
      <point x="363" y="242"/>
      <point x="374" y="240" type="curve"/>
      <point x="372" y="217"/>
      <point x="387" y="205"/>
      <point x="389" y="189" type="curve"/>
      <point x="392" y="148"/>
      <point x="365" y="114"/>
      <point x="352" y="95" type="curve" smooth="yes"/>
      <point x="330" y="63"/>
      <point x="311" y="48"/>
      <point x="272" y="38" type="curve" smooth="yes"/>
      <point x="262" y="35"/>
      <point x="245" y="29"/>
      <point x="240" y="29" type="curve" smooth="yes"/>
      <point x="237" y="29"/>
      <point x="235" y="33"/>
      <point x="229" y="32" type="curve" smooth="yes"/>
      <point x="212" y="28"/>
      <point x="197" y="21"/>
      <point x="181" y="18" type="curve" smooth="yes"/>
      <point x="173" y="16"/>
      <point x="165" y="21"/>
      <point x="158" y="15" type="curve"/>
      <point x="140" y="24"/>
      <point x="125" y="23"/>
      <point x="104" y="32" type="curve"/>
      <point x="105" y="47"/>
      <point x="94" y="51"/>
      <point x="92" y="63" type="curve"/>
      <point x="80" y="72"/>
      <point x="73" y="72"/>
      <point x="69" y="86" type="curve"/>
      <point x="51" y="78"/>
      <point x="25" y="77"/>
      <point x="21" y="60" type="curve" smooth="yes"/>
      <point x="17" y="41"/>
      <point x="57" y="7"/>
      <point x="78" y="0" type="curve" smooth="yes"/>
      <point x="99" y="-6"/>
      <point x="132" y="-5"/>
      <point x="158" y="-8" type="curve" smooth="yes"/>
      <point x="187" y="-11"/>
      <point x="213" y="-16"/>
      <point x="235" y="-11" type="curve"/>
      <point x="240" y="-7"/>
      <point x="246" y="-5"/>
      <point x="249" y="0" type="curve"/>
      <point x="251" y="-5"/>
      <point x="257" y="-7"/>
      <point x="263" y="-8" type="curve"/>
      <point x="281" y="12"/>
      <point x="317" y="14"/>
      <point x="337" y="32" type="curve"/>
      <point x="326" y="34"/>
      <point x="326" y="24"/>
      <point x="315" y="26" type="curve"/>
      <point x="392" y="95" type="line"/>
      <point x="396" y="109"/>
      <point x="402" y="122"/>
      <point x="412" y="132" type="curve"/>
      <point x="425" y="178"/>
      <point x="431" y="225"/>
      <point x="412" y="271" type="curve"/>
      <point x="412" y="276"/>
      <point x="419" y="273"/>
      <point x="417" y="280" type="curve"/>
      <point x="395" y="313"/>
      <point x="378" y="353"/>
      <point x="354" y="385" type="curve"/>
      <point x="298" y="436"/>
      <point x="224" y="411"/>
      <point x="144" y="414" type="curve"/>
      <point x="151" y="433"/>
      <point x="154" y="457"/>
      <point x="152" y="485" type="curve"/>
      <point x="157" y="468"/>
      <point x="163" y="501"/>
      <point x="164" y="508" type="curve" smooth="yes"/>
      <point x="166" y="539"/>
      <point x="153" y="596"/>
      <point x="161" y="619" type="curve"/>
      <point x="234" y="634"/>
      <point x="296" y="620"/>
      <point x="360" y="616" type="curve"/>
      <point x="369" y="616"/>
      <point x="382" y="606"/>
      <point x="389" y="619" type="curve"/>
      <point x="373" y="630"/>
      <point x="352" y="624"/>
      <point x="335" y="625" type="curve"/>
      <point x="324" y="625"/>
      <point x="309" y="625"/>
      <point x="303" y="633" type="curve"/>
      <point x="346" y="634"/>
      <point x="377" y="631"/>
    </contour>
    <contour>
      <point x="189" y="642" type="curve"/>
      <point x="189" y="634"/>
      <point x="162" y="637"/>
      <point x="161" y="645" type="curve"/>
      <point x="173" y="647"/>
      <point x="177" y="640"/>
    </contour>
  </outline>
</glyph>
<glyph name="six" format="1">
  <advance width="524"/>
  <unicode hex="0036"/>
  <outline>
    <contour>
      <point x="442" y="688" type="curve" name="hr00"/>
      <point x="443" y="705"/>
      <point x="438" y="716"/>
      <point x="419" y="714" type="curve"/>
      <point x="388" y="708"/>
      <point x="348" y="690"/>
      <point x="311" y="671" type="curve" smooth="yes"/>
      <point x="269" y="649"/>
      <point x="227" y="630"/>
      <point x="197" y="602" type="curve" smooth="yes"/>
      <point x="190" y="596"/>
      <point x="180" y="589"/>
      <point x="174" y="582" type="curve" smooth="yes"/>
      <point x="153" y="559"/>
      <point x="143" y="529"/>
      <point x="129" y="503" type="curve" smooth="yes"/>
      <point x="118" y="483"/>
      <point x="108" y="470"/>
      <point x="97" y="449" type="curve" smooth="yes"/>
      <point x="84" y="422"/>
      <point x="67" y="384"/>
      <point x="60" y="357" type="curve" smooth="yes"/>
      <point x="36" y="261"/>
      <point x="60" y="130"/>
      <point x="100" y="67" type="curve" smooth="yes"/>
      <point x="123" y="30"/>
      <point x="148" y="24"/>
      <point x="180" y="-2" type="curve"/>
      <point x="199" y="1"/>
      <point x="219" y="-7"/>
      <point x="240" y="-8" type="curve"/>
      <point x="262" y="-8"/>
      <point x="281" y="4"/>
      <point x="303" y="4" type="curve"/>
      <point x="304" y="18"/>
      <point x="319" y="10"/>
      <point x="323" y="12" type="curve"/>
      <point x="326" y="15"/>
      <point x="324" y="22"/>
      <point x="328" y="24" type="curve" smooth="yes"/>
      <point x="335" y="28"/>
      <point x="345" y="31"/>
      <point x="354" y="35" type="curve" smooth="yes"/>
      <point x="388" y="53"/>
      <point x="407" y="69"/>
      <point x="428" y="98" type="curve" smooth="yes"/>
      <point x="462" y="144"/>
      <point x="480" y="201"/>
      <point x="471" y="266" type="curve" smooth="yes"/>
      <point x="469" y="279"/>
      <point x="468" y="286"/>
      <point x="465" y="297" type="curve" smooth="yes"/>
      <point x="455" y="333"/>
      <point x="433" y="368"/>
      <point x="411" y="391" type="curve" smooth="yes"/>
      <point x="404" y="399"/>
      <point x="396" y="410"/>
      <point x="391" y="414" type="curve" smooth="yes"/>
      <point x="389" y="416"/>
      <point x="381" y="414"/>
      <point x="377" y="417" type="curve" smooth="yes"/>
      <point x="373" y="420"/>
      <point x="371" y="424"/>
      <point x="368" y="426" type="curve" smooth="yes"/>
      <point x="312" y="464"/>
      <point x="231" y="445"/>
      <point x="157" y="443" type="curve"/>
      <point x="173" y="493"/>
      <point x="216" y="517"/>
      <point x="237" y="563" type="curve"/>
      <point x="252" y="561"/>
      <point x="249" y="577"/>
      <point x="263" y="577" type="curve"/>
      <point x="276" y="606"/>
      <point x="308" y="617"/>
      <point x="328" y="639" type="curve"/>
      <point x="356" y="656"/>
      <point x="388" y="669"/>
      <point x="417" y="685" type="curve"/>
      <point x="425" y="686"/>
      <point x="437" y="683"/>
    </contour>
    <contour>
      <point x="134" y="403" type="curve"/>
      <point x="208" y="425"/>
      <point x="294" y="409"/>
      <point x="345" y="380" type="curve"/>
      <point x="352" y="345"/>
      <point x="373" y="314"/>
      <point x="377" y="266" type="curve" smooth="yes"/>
      <point x="385" y="162"/>
      <point x="353" y="74"/>
      <point x="305" y="27" type="curve"/>
      <point x="254" y="7"/>
      <point x="200" y="19"/>
      <point x="163" y="41" type="curve"/>
      <point x="148" y="85"/>
      <point x="124" y="114"/>
      <point x="117" y="172" type="curve"/>
      <point x="115" y="196"/>
      <point x="115" y="225"/>
      <point x="117" y="249" type="curve" smooth="yes"/>
      <point x="118" y="258"/>
      <point x="123" y="268"/>
      <point x="123" y="277" type="curve" smooth="yes"/>
      <point x="123" y="288"/>
      <point x="118" y="299"/>
      <point x="117" y="309" type="curve" smooth="yes"/>
      <point x="115" y="343"/>
      <point x="126" y="372"/>
    </contour>
    <contour>
      <point x="388" y="269" type="curve" smooth="yes"/>
      <point x="386" y="280"/>
      <point x="386" y="296"/>
      <point x="382" y="312" type="curve" smooth="yes"/>
      <point x="379" y="325"/>
      <point x="393" y="292"/>
      <point x="394" y="277" type="curve"/>
      <point x="394" y="266"/>
      <point x="387" y="253"/>
      <point x="391" y="243" type="curve"/>
      <point x="386" y="236"/>
      <point x="389" y="262"/>
    </contour>
    <contour>
      <point x="385" y="115" type="curve"/>
      <point x="376" y="130"/>
      <point x="394" y="143"/>
      <point x="394" y="158" type="curve"/>
      <point x="404" y="151"/>
      <point x="390" y="125"/>
    </contour>
    <contour>
      <point x="83" y="323" type="curve"/>
      <point x="71" y="331"/>
      <point x="86" y="347"/>
      <point x="83" y="363" type="curve"/>
      <point x="96" y="356"/>
      <point x="78" y="340"/>
    </contour>
    <contour>
      <point x="394" y="163" type="curve"/>
      <point x="388" y="170"/>
      <point x="400" y="182"/>
      <point x="399" y="192" type="curve"/>
      <point x="407" y="184"/>
      <point x="396" y="171"/>
    </contour>
    <contour>
      <point x="362" y="89" type="curve"/>
      <point x="359" y="90"/>
      <point x="360" y="95"/>
      <point x="360" y="98" type="curve"/>
      <point x="368" y="98" type="line"/>
      <point x="367" y="94"/>
      <point x="363" y="93"/>
    </contour>
    <contour>
      <point x="274" y="617" type="curve"/>
      <point x="267" y="618"/>
      <point x="274" y="628"/>
      <point x="280" y="625" type="curve"/>
      <point x="279" y="621"/>
      <point x="275" y="621"/>
    </contour>
    <contour>
      <point x="379" y="323" type="curve"/>
      <point x="378" y="316"/>
      <point x="373" y="328"/>
      <point x="374" y="332" type="curve"/>
      <point x="376" y="330"/>
      <point x="378" y="326"/>
    </contour>
  </outline>
</glyph>
<glyph name="seven" format="1">
  <advance width="461"/>
  <unicode hex="0037"/>
  <outline>
    <contour>
      <point x="435" y="695" type="curve" name="hr00"/>
      <point x="384" y="692"/>
      <point x="357" y="695"/>
      <point x="306" y="695" type="curve"/>
      <point x="208" y="694"/>
      <point x="121" y="702"/>
      <point x="35" y="675" type="curve"/>
      <point x="32" y="652"/>
      <point x="7" y="615"/>
      <point x="30" y="601" type="curve"/>
      <point x="41" y="598"/>
      <point x="54" y="609"/>
      <point x="67" y="615" type="curve" smooth="yes"/>
      <point x="81" y="622"/>
      <point x="96" y="632"/>
      <point x="112" y="635" type="curve" smooth="yes"/>
      <point x="150" y="642"/>
      <point x="189" y="633"/>
      <point x="226" y="643" type="curve"/>
      <point x="233" y="640"/>
      <point x="244" y="642"/>
      <point x="249" y="638" type="curve"/>
      <point x="277" y="647"/>
      <point x="302" y="640"/>
      <point x="326" y="638" type="curve" smooth="yes"/>
      <point x="344" y="636"/>
      <point x="364" y="640"/>
      <point x="378" y="629" type="curve"/>
      <point x="359" y="601"/>
      <point x="348" y="568"/>
      <point x="332" y="541" type="curve" smooth="yes"/>
      <point x="328" y="533"/>
      <point x="319" y="529"/>
      <point x="315" y="521" type="curve" smooth="yes"/>
      <point x="308" y="508"/>
      <point x="302" y="493"/>
      <point x="295" y="478" type="curve" smooth="yes"/>
      <point x="275" y="435" type="line" smooth="yes"/>
      <point x="247" y="377"/>
      <point x="215" y="324"/>
      <point x="189" y="270" type="curve" smooth="yes"/>
      <point x="169" y="227"/>
      <point x="154" y="180"/>
      <point x="135" y="136" type="curve" smooth="yes"/>
      <point x="118" y="95"/>
      <point x="94" y="50"/>
      <point x="95" y="-1" type="curve"/>
      <point x="120" y="1"/>
      <point x="137" y="-6"/>
      <point x="150" y="5" type="curve"/>
      <point x="147" y="16"/>
      <point x="147" y="22"/>
      <point x="150" y="33" type="curve"/>
      <point x="168" y="55"/>
      <point x="166" y="85"/>
      <point x="175" y="110" type="curve" smooth="yes"/>
      <point x="179" y="122"/>
      <point x="188" y="133"/>
      <point x="192" y="145" type="curve" smooth="yes"/>
      <point x="218" y="210"/>
      <point x="231" y="278"/>
      <point x="272" y="324" type="curve"/>
      <point x="306" y="425"/>
      <point x="364" y="500"/>
      <point x="398" y="601" type="curve"/>
      <point x="403" y="603"/>
      <point x="409" y="612"/>
      <point x="415" y="606" type="curve"/>
      <point x="404" y="641"/>
      <point x="458" y="656"/>
    </contour>
  </outline>
</glyph>
<glyph name="eight" format="1">
  <advance width="550"/>
  <unicode hex="0038"/>
  <outline>
    <contour>
      <point x="394" y="714" type="curve" name="hr00"/>
      <point x="375" y="719"/>
      <point x="364" y="731"/>
      <point x="342" y="734" type="curve" smooth="yes"/>
      <point x="274" y="742"/>
      <point x="208" y="695"/>
      <point x="168" y="668" type="curve"/>
      <point x="157" y="635"/>
      <point x="144" y="603"/>
      <point x="146" y="565" type="curve"/>
      <point x="146" y="559"/>
      <point x="150" y="552"/>
      <point x="151" y="545" type="curve" smooth="yes"/>
      <point x="153" y="533"/>
      <point x="149" y="520"/>
      <point x="151" y="508" type="curve" smooth="yes"/>
      <point x="159" y="468"/>
      <point x="195" y="447"/>
      <point x="220" y="426" type="curve" smooth="yes"/>
      <point x="262" y="389" type="line"/>
      <point x="252" y="378"/>
      <point x="244" y="370"/>
      <point x="231" y="363" type="curve" smooth="yes"/>
      <point x="219" y="356"/>
      <point x="203" y="353"/>
      <point x="191" y="346" type="curve" smooth="yes"/>
      <point x="176" y="337"/>
      <point x="163" y="324"/>
      <point x="148" y="315" type="curve" smooth="yes"/>
      <point x="133" y="305"/>
      <point x="117" y="295"/>
      <point x="100" y="289" type="curve"/>
      <point x="83" y="268"/>
      <point x="58" y="251"/>
      <point x="40" y="220" type="curve" smooth="yes"/>
      <point x="11" y="172"/>
      <point x="14" y="99"/>
      <point x="49" y="55" type="curve"/>
      <point x="67" y="47"/>
      <point x="81" y="34"/>
      <point x="100" y="27" type="curve"/>
      <point x="106" y="11"/>
      <point x="122" y="-5"/>
      <point x="137" y="-10" type="curve" smooth="yes"/>
      <point x="145" y="-13"/>
      <point x="159" y="-10"/>
      <point x="171" y="-13" type="curve" smooth="yes"/>
      <point x="180" y="-15"/>
      <point x="187" y="-21"/>
      <point x="194" y="-22" type="curve" smooth="yes"/>
      <point x="204" y="-23"/>
      <point x="214" y="-19"/>
      <point x="225" y="-19" type="curve"/>
      <point x="244" y="-20"/>
      <point x="262" y="-26"/>
      <point x="280" y="-25" type="curve" smooth="yes"/>
      <point x="311" y="-23"/>
      <point x="324" y="-14"/>
      <point x="348" y="-8" type="curve" smooth="yes"/>
      <point x="375" y="-1"/>
      <point x="395" y="2"/>
      <point x="416" y="15" type="curve" smooth="yes"/>
      <point x="427" y="22"/>
      <point x="449" y="41"/>
      <point x="453" y="47" type="curve" smooth="yes"/>
      <point x="459" y="54"/>
      <point x="460" y="65"/>
      <point x="465" y="72" type="curve"/>
      <point x="470" y="74"/>
      <point x="477" y="63"/>
      <point x="476" y="75" type="curve"/>
      <point x="483" y="105"/>
      <point x="498" y="123"/>
      <point x="499" y="152" type="curve" smooth="yes"/>
      <point x="502" y="212"/>
      <point x="472" y="249"/>
      <point x="451" y="283" type="curve" smooth="yes"/>
      <point x="424" y="326"/>
      <point x="381" y="358"/>
      <point x="357" y="391" type="curve"/>
      <point x="349" y="398"/>
      <point x="337" y="400"/>
      <point x="331" y="409" type="curve"/>
      <point x="383" y="445"/>
      <point x="446" y="486"/>
      <point x="451" y="574" type="curve" smooth="yes"/>
      <point x="453" y="611"/>
      <point x="430" y="669"/>
      <point x="414" y="685" type="curve" smooth="yes"/>
      <point x="406" y="692"/>
      <point x="395" y="698"/>
      <point x="388" y="702" type="curve"/>
      <point x="384" y="711"/>
      <point x="397" y="704"/>
    </contour>
    <contour>
      <point x="399" y="75" type="curve"/>
      <point x="378" y="58"/>
      <point x="353" y="40"/>
      <point x="348" y="15" type="curve"/>
      <point x="329" y="5"/>
      <point x="307" y="12"/>
      <point x="285" y="10" type="curve" smooth="yes"/>
      <point x="255" y="6"/>
      <point x="229" y="-9"/>
      <point x="194" y="4" type="curve" smooth="yes"/>
      <point x="173" y="11"/>
      <point x="143" y="19"/>
      <point x="120" y="32" type="curve" smooth="yes"/>
      <point x="117" y="34"/>
      <point x="115" y="39"/>
      <point x="111" y="41" type="curve" smooth="yes"/>
      <point x="105" y="44"/>
      <point x="101" y="48"/>
      <point x="94" y="52" type="curve" smooth="yes"/>
      <point x="92" y="54"/>
      <point x="85" y="53"/>
      <point x="83" y="55" type="curve" smooth="yes"/>
      <point x="76" y="62"/>
      <point x="68" y="80"/>
      <point x="63" y="92" type="curve" smooth="yes"/>
      <point x="58" y="105"/>
      <point x="50" y="119"/>
      <point x="60" y="132" type="curve"/>
      <point x="65" y="129"/>
      <point x="63" y="120"/>
      <point x="66" y="115" type="curve"/>
      <point x="66" y="146"/>
      <point x="73" y="170"/>
      <point x="83" y="192" type="curve" smooth="yes"/>
      <point x="95" y="218"/>
      <point x="111" y="241"/>
      <point x="128" y="266" type="curve"/>
      <point x="151" y="297"/>
      <point x="166" y="307"/>
      <point x="197" y="326" type="curve" smooth="yes"/>
      <point x="219" y="339"/>
      <point x="248" y="353"/>
      <point x="271" y="372" type="curve"/>
      <point x="295" y="374"/>
      <point x="321" y="348"/>
      <point x="342" y="332" type="curve" smooth="yes"/>
      <point x="379" y="303"/>
      <point x="421" y="251"/>
      <point x="425" y="195" type="curve" smooth="yes"/>
      <point x="428" y="150"/>
      <point x="408" y="116"/>
    </contour>
    <contour>
      <point x="345" y="449" type="curve"/>
      <point x="336" y="439"/>
      <point x="327" y="429"/>
      <point x="314" y="423" type="curve"/>
      <point x="277" y="446"/>
      <point x="253" y="482"/>
      <point x="223" y="511" type="curve"/>
      <point x="220" y="515"/>
      <point x="219" y="519"/>
      <point x="220" y="525" type="curve"/>
      <point x="215" y="529"/>
      <point x="208" y="531"/>
      <point x="205" y="537" type="curve"/>
      <point x="205" y="576"/>
      <point x="203" y="623"/>
      <point x="225" y="648" type="curve" smooth="yes"/>
      <point x="236" y="660"/>
      <point x="253" y="658"/>
      <point x="254" y="677" type="curve"/>
      <point x="300" y="683"/>
      <point x="341" y="700"/>
      <point x="376" y="682" type="curve"/>
      <point x="378" y="682"/>
      <point x="380" y="675"/>
      <point x="382" y="674" type="curve" smooth="yes"/>
      <point x="400" y="663"/>
      <point x="425" y="617"/>
      <point x="425" y="582" type="curve" smooth="yes"/>
      <point x="425" y="559"/>
      <point x="410" y="542"/>
      <point x="411" y="514" type="curve"/>
      <point x="392" y="489"/>
      <point x="377" y="460"/>
    </contour>
    <contour>
      <point x="382" y="708" type="curve"/>
      <point x="378" y="705"/>
      <point x="355" y="707"/>
      <point x="354" y="716" type="curve"/>
      <point x="367" y="717"/>
      <point x="374" y="712"/>
    </contour>
    <contour>
      <point x="396" y="41" type="curve"/>
      <point x="398" y="53"/>
      <point x="411" y="55"/>
      <point x="414" y="67" type="curve"/>
      <point x="417" y="61"/>
      <point x="405" y="45"/>
    </contour>
    <contour>
      <point x="425" y="72" type="curve"/>
      <point x="419" y="81"/>
      <point x="432" y="95"/>
      <point x="436" y="104" type="curve"/>
      <point x="440" y="97"/>
      <point x="425" y="84"/>
    </contour>
    <contour>
      <point x="339" y="719" type="curve"/>
      <point x="333" y="718"/>
      <point x="328" y="720"/>
      <point x="325" y="722" type="curve"/>
      <point x="325" y="727"/>
      <point x="344" y="728"/>
    </contour>
    <contour>
      <point x="442" y="129" type="curve"/>
      <point x="433" y="133"/>
      <point x="444" y="140"/>
      <point x="445" y="144" type="curve"/>
      <point x="453" y="141"/>
      <point x="442" y="134"/>
    </contour>
    <contour>
      <point x="462" y="218" type="curve"/>
      <point x="453" y="215"/>
      <point x="457" y="224"/>
      <point x="456" y="229" type="curve"/>
      <point x="460" y="227"/>
      <point x="462" y="223"/>
    </contour>
    <contour>
      <point x="100" y="249" type="curve"/>
      <point x="95" y="251"/>
      <point x="100" y="254"/>
      <point x="100" y="258" type="curve"/>
      <point x="105" y="255"/>
      <point x="100" y="252"/>
    </contour>
  </outline>
</glyph>
<glyph name="nine" format="1">
  <advance width="567"/>
  <unicode hex="0039"/>
  <outline>
    <contour>
      <point x="50" y="11" type="curve"/>
      <point x="72" y="-30"/>
      <point x="143" y="-7"/>
      <point x="182" y="2" type="curve" smooth="yes"/>
      <point x="194" y="5"/>
      <point x="207" y="2"/>
      <point x="215" y="5" type="curve" smooth="yes"/>
      <point x="230" y="10"/>
      <point x="247" y="22"/>
      <point x="263" y="29" type="curve" smooth="yes"/>
      <point x="289" y="40"/>
      <point x="306" y="51"/>
      <point x="329" y="56" type="curve"/>
      <point x="356" y="79"/>
      <point x="383" y="103"/>
      <point x="401" y="134" type="curve"/>
      <point x="411" y="135"/>
      <point x="415" y="141"/>
      <point x="422" y="143" type="curve"/>
      <point x="451" y="181"/>
      <point x="471" y="239"/>
      <point x="489" y="287" type="curve" smooth="yes"/>
      <point x="492" y="295"/>
      <point x="498" y="301"/>
      <point x="501" y="308" type="curve"/>
      <point x="504" y="320"/>
      <point x="504" y="337"/>
      <point x="507" y="350" type="curve" smooth="yes"/>
      <point x="530" y="466"/>
      <point x="509" y="607"/>
      <point x="452" y="672" type="curve"/>
      <point x="446" y="671"/>
      <point x="443" y="674"/>
      <point x="443" y="681" type="curve"/>
      <point x="432" y="676"/>
      <point x="426" y="689"/>
      <point x="419" y="693" type="curve" smooth="yes"/>
      <point x="408" y="700"/>
      <point x="397" y="702"/>
      <point x="383" y="708" type="curve" smooth="yes"/>
      <point x="374" y="712"/>
      <point x="369" y="718"/>
      <point x="362" y="720" type="curve" smooth="yes"/>
      <point x="353" y="722"/>
      <point x="335" y="719"/>
      <point x="323" y="720" type="curve"/>
      <point x="284" y="721"/>
      <point x="234" y="718"/>
      <point x="206" y="708" type="curve" smooth="yes"/>
      <point x="188" y="701"/>
      <point x="168" y="682"/>
      <point x="155" y="672" type="curve" smooth="yes"/>
      <point x="147" y="665"/>
      <point x="136" y="661"/>
      <point x="131" y="657" type="curve" smooth="yes"/>
      <point x="113" y="640"/>
      <point x="97" y="607"/>
      <point x="86" y="585" type="curve" smooth="yes"/>
      <point x="81" y="574"/>
      <point x="73" y="566"/>
      <point x="71" y="561" type="curve" smooth="yes"/>
      <point x="67" y="546"/>
      <point x="72" y="527"/>
      <point x="68" y="509" type="curve" smooth="yes"/>
      <point x="66" y="502"/>
      <point x="60" y="496"/>
      <point x="59" y="488" type="curve" smooth="yes"/>
      <point x="52" y="431"/>
      <point x="81" y="394"/>
      <point x="107" y="356" type="curve"/>
      <point x="124" y="345"/>
      <point x="141" y="334"/>
      <point x="155" y="320" type="curve"/>
      <point x="181" y="317"/>
      <point x="202" y="309"/>
      <point x="218" y="296" type="curve"/>
      <point x="242" y="297"/>
      <point x="265" y="302"/>
      <point x="287" y="299" type="curve" smooth="yes"/>
      <point x="297" y="298"/>
      <point x="305" y="293"/>
      <point x="314" y="293" type="curve"/>
      <point x="322" y="294"/>
      <point x="339" y="305"/>
      <point x="344" y="305" type="curve"/>
      <point x="349" y="306"/>
      <point x="355" y="302"/>
      <point x="356" y="302" type="curve"/>
      <point x="360" y="304"/>
      <point x="364" y="312"/>
      <point x="368" y="314" type="curve" smooth="yes"/>
      <point x="376" y="318"/>
      <point x="386" y="315"/>
      <point x="389" y="317" type="curve" smooth="yes"/>
      <point x="393" y="319"/>
      <point x="394" y="326"/>
      <point x="398" y="329" type="curve" smooth="yes"/>
      <point x="403" y="333"/>
      <point x="410" y="333"/>
      <point x="413" y="335" type="curve" smooth="yes"/>
      <point x="423" y="342"/>
      <point x="429" y="351"/>
      <point x="440" y="353" type="curve"/>
      <point x="434" y="291"/>
      <point x="412" y="243"/>
      <point x="386" y="206" type="curve" smooth="yes"/>
      <point x="372" y="186"/>
      <point x="360" y="168"/>
      <point x="347" y="152" type="curve" smooth="yes"/>
      <point x="317" y="114"/>
      <point x="281" y="76"/>
      <point x="239" y="56" type="curve" smooth="yes"/>
      <point x="208" y="41"/>
      <point x="166" y="30"/>
      <point x="128" y="26" type="curve" smooth="yes"/>
      <point x="104" y="24"/>
      <point x="90" y="28"/>
      <point x="77" y="14" type="curve"/>
      <point x="72" y="22"/>
      <point x="52" y="23"/>
    </contour>
    <contour>
      <point x="299" y="696" type="curve" smooth="yes"/>
      <point x="426" y="690"/>
      <point x="456" y="554"/>
      <point x="443" y="419" type="curve"/>
      <point x="452" y="422"/>
      <point x="446" y="441"/>
      <point x="458" y="440" type="curve"/>
      <point x="469" y="436"/>
      <point x="459" y="429"/>
      <point x="462" y="416" type="curve"/>
      <point x="449" y="415"/>
      <point x="463" y="425"/>
      <point x="458" y="434" type="curve"/>
      <point x="451" y="402"/>
      <point x="442" y="376"/>
      <point x="419" y="356" type="curve" smooth="yes"/>
      <point x="405" y="344"/>
      <point x="382" y="331"/>
      <point x="359" y="326" type="curve" smooth="yes"/>
      <point x="348" y="324"/>
      <point x="338" y="327"/>
      <point x="326" y="326" type="curve" smooth="yes"/>
      <point x="299" y="324"/>
      <point x="268" y="312"/>
      <point x="239" y="320" type="curve" smooth="yes"/>
      <point x="231" y="323"/>
      <point x="225" y="331"/>
      <point x="215" y="338" type="curve" smooth="yes"/>
      <point x="206" y="345"/>
      <point x="194" y="349"/>
      <point x="188" y="353" type="curve"/>
      <point x="164" y="375"/>
      <point x="154" y="410"/>
      <point x="137" y="431" type="curve"/>
      <point x="136" y="460"/>
      <point x="148" y="486"/>
      <point x="146" y="512" type="curve"/>
      <point x="146" y="521"/>
      <point x="140" y="529"/>
      <point x="140" y="536" type="curve"/>
      <point x="142" y="586"/>
      <point x="169" y="626"/>
      <point x="191" y="663" type="curve"/>
      <point x="201" y="670"/>
      <point x="214" y="674"/>
      <point x="218" y="687" type="curve"/>
      <point x="254" y="689"/>
      <point x="267" y="697"/>
    </contour>
    <contour>
      <point x="311" y="80" type="curve"/>
      <point x="308" y="85"/>
      <point x="318" y="101"/>
      <point x="329" y="101" type="curve"/>
      <point x="328" y="89"/>
      <point x="317" y="87"/>
    </contour>
    <contour>
      <point x="467" y="549" type="curve"/>
      <point x="459" y="558"/>
      <point x="462" y="579"/>
      <point x="455" y="591" type="curve"/>
      <point x="467" y="584"/>
      <point x="465" y="564"/>
    </contour>
    <contour>
      <point x="458" y="350" type="curve"/>
      <point x="454" y="341"/>
      <point x="456" y="363"/>
      <point x="455" y="368" type="curve"/>
      <point x="460" y="378"/>
      <point x="458" y="355"/>
    </contour>
  </outline>
</glyph>
<glyph name="colon" format="1">
  <advance width="166"/>
  <unicode hex="003A"/>
  <outline>
    <contour>
      <point x="74" y="370" type="curve"/>
      <point x="88" y="366"/>
      <point x="94" y="375"/>
      <point x="102" y="379" type="curve" smooth="yes"/>
      <point x="109" y="383"/>
      <point x="121" y="388"/>
      <point x="125" y="396" type="curve"/>
      <point x="132" y="405"/>
      <point x="130" y="423"/>
      <point x="131" y="439" type="curve"/>
      <point x="120" y="449"/>
      <point x="114" y="461"/>
      <point x="99" y="462" type="curve" smooth="yes"/>
      <point x="79" y="463"/>
      <point x="50" y="439"/>
      <point x="48" y="422" type="curve" smooth="yes"/>
      <point x="46" y="402"/>
      <point x="62" y="385"/>
    </contour>
    <contour>
      <point x="136" y="45" type="curve"/>
      <point x="128" y="61"/>
      <point x="116" y="73"/>
      <point x="111" y="91" type="curve"/>
      <point x="80" y="115"/>
      <point x="25" y="99"/>
      <point x="31" y="54" type="curve"/>
      <point x="49" y="31"/>
      <point x="68" y="-1"/>
      <point x="105" y="11" type="curve"/>
      <point x="112" y="26"/>
      <point x="129" y="30"/>
    </contour>
  </outline>
</glyph>
<glyph name="semicolon" format="1">
  <advance width="161"/>
  <unicode hex="003B"/>
  <outline>
    <contour>
      <point x="77" y="460" type="curve"/>
      <point x="52" y="457"/>
      <point x="39" y="442"/>
      <point x="37" y="429" type="curve" smooth="yes"/>
      <point x="33" y="400"/>
      <point x="50" y="393"/>
      <point x="63" y="386" type="curve" smooth="yes"/>
      <point x="73" y="380"/>
      <point x="73" y="378"/>
      <point x="83" y="378" type="curve"/>
      <point x="101" y="377"/>
      <point x="123" y="395"/>
      <point x="125" y="415" type="curve" smooth="yes"/>
      <point x="129" y="449"/>
      <point x="101" y="464"/>
    </contour>
    <contour>
      <point x="60" y="-100" type="curve"/>
      <point x="76" y="-106"/>
      <point x="84" y="-83"/>
      <point x="94" y="-74" type="curve"/>
      <point x="103" y="-69"/>
      <point x="111" y="-63"/>
      <point x="120" y="-57" type="curve"/>
      <point x="128" y="-26"/>
      <point x="135" y="-7"/>
      <point x="128" y="31" type="curve"/>
      <point x="112" y="56"/>
      <point x="80" y="96"/>
      <point x="40" y="71" type="curve"/>
      <point x="28" y="48"/>
      <point x="28" y="32"/>
      <point x="37" y="17" type="curve" smooth="yes"/>
      <point x="48" y="-1"/>
      <point x="76" y="1"/>
      <point x="86" y="-15" type="curve" smooth="yes"/>
      <point x="99" y="-35"/>
      <point x="80" y="-52"/>
      <point x="71" y="-66" type="curve" smooth="yes"/>
      <point x="65" y="-75"/>
      <point x="51" y="-83"/>
    </contour>
  </outline>
</glyph>
<glyph name="less" format="1">
  <advance width="306"/>
  <unicode hex="003C"/>
  <outline>
    <contour>
      <point x="258" y="425" type="curve" name="hr00"/>
      <point x="209" y="416"/>
      <point x="198" y="370"/>
      <point x="149" y="362" type="curve"/>
      <point x="150" y="355"/>
      <point x="149" y="351"/>
      <point x="144" y="350" type="curve"/>
      <point x="116" y="331"/>
      <point x="83" y="316"/>
      <point x="61" y="296" type="curve"/>
      <point x="53" y="290"/>
      <point x="39" y="284"/>
      <point x="41" y="271" type="curve"/>
      <point x="45" y="261"/>
      <point x="57" y="260"/>
      <point x="58" y="248" type="curve"/>
      <point x="63" y="249"/>
      <point x="77" y="235"/>
      <point x="84" y="228" type="curve"/>
      <point x="134" y="222"/>
      <point x="161" y="169"/>
      <point x="215" y="157" type="curve"/>
      <point x="220" y="135"/>
      <point x="255" y="135"/>
      <point x="261" y="157" type="curve"/>
      <point x="255" y="177"/>
      <point x="230" y="179"/>
      <point x="215" y="191" type="curve" smooth="yes"/>
      <point x="209" y="196"/>
      <point x="207" y="204"/>
      <point x="201" y="208" type="curve" smooth="yes"/>
      <point x="192" y="214"/>
      <point x="179" y="217"/>
      <point x="169" y="222" type="curve" smooth="yes"/>
      <point x="158" y="229"/>
      <point x="151" y="239"/>
      <point x="138" y="239" type="curve"/>
      <point x="129" y="258"/>
      <point x="100" y="257"/>
      <point x="92" y="276" type="curve"/>
      <point x="118" y="286"/>
      <point x="149" y="313"/>
      <point x="184" y="336" type="curve" smooth="yes"/>
      <point x="216" y="358"/>
      <point x="289" y="375"/>
    </contour>
  </outline>
</glyph>
<glyph name="equal" format="1">
  <advance width="406"/>
  <unicode hex="003D"/>
  <outline>
    <contour>
      <point x="362" y="343" type="curve" name="hr00"/>
      <point x="332" y="348"/>
      <point x="303" y="337"/>
      <point x="273" y="337" type="curve"/>
      <point x="241" y="338"/>
      <point x="212" y="346"/>
      <point x="179" y="346" type="curve"/>
      <point x="130" y="345"/>
      <point x="76" y="333"/>
      <point x="40" y="334" type="curve"/>
      <point x="48" y="303"/>
      <point x="81" y="322"/>
      <point x="100" y="323" type="curve" smooth="yes"/>
      <point x="129" y="325"/>
      <point x="175" y="322"/>
      <point x="205" y="317" type="curve"/>
      <point x="257" y="310"/>
      <point x="323" y="315"/>
      <point x="359" y="312" type="curve"/>
      <point x="366" y="319"/>
      <point x="365" y="331"/>
    </contour>
    <contour>
      <point x="365" y="198" type="curve"/>
      <point x="366" y="225"/>
      <point x="323" y="221"/>
      <point x="296" y="223" type="curve" smooth="yes"/>
      <point x="278" y="225"/>
      <point x="263" y="233"/>
      <point x="256" y="223" type="curve"/>
      <point x="245" y="223"/>
      <point x="233" y="223"/>
      <point x="225" y="226" type="curve"/>
      <point x="192" y="209"/>
      <point x="143" y="226"/>
      <point x="105" y="220" type="curve"/>
      <point x="104" y="216"/>
      <point x="76" y="213"/>
      <point x="65" y="209" type="curve"/>
      <point x="64" y="191"/>
      <point x="62" y="184"/>
      <point x="65" y="169" type="curve"/>
      <point x="102" y="167"/>
      <point x="149" y="172"/>
      <point x="177" y="180" type="curve" smooth="yes"/>
      <point x="205" y="189"/>
      <point x="238" y="195"/>
      <point x="268" y="198" type="curve"/>
      <point x="304" y="200"/>
      <point x="334" y="187"/>
    </contour>
  </outline>
</glyph>
<glyph name="greater" format="1">
  <advance width="352"/>
  <unicode hex="003E"/>
  <outline>
    <contour>
      <point x="311" y="294" type="curve"/>
      <point x="284" y="323"/>
      <point x="234" y="322"/>
      <point x="192" y="337" type="curve" smooth="yes"/>
      <point x="187" y="339"/>
      <point x="185" y="344"/>
      <point x="180" y="346" type="curve"/>
      <point x="169" y="348"/>
      <point x="159" y="346"/>
      <point x="149" y="348" type="curve"/>
      <point x="121" y="356"/>
      <point x="78" y="384"/>
      <point x="52" y="377" type="curve"/>
      <point x="46" y="369"/>
      <point x="43" y="360"/>
      <point x="40" y="348" type="curve"/>
      <point x="44" y="344"/>
      <point x="49" y="339"/>
      <point x="52" y="334" type="curve"/>
      <point x="67" y="333"/>
      <point x="75" y="335"/>
      <point x="92" y="337" type="curve"/>
      <point x="92" y="327"/>
      <point x="97" y="335"/>
      <point x="100" y="334" type="curve" smooth="yes"/>
      <point x="146" y="319"/>
      <point x="209" y="310"/>
      <point x="246" y="291" type="curve"/>
      <point x="226" y="255"/>
      <point x="197" y="228"/>
      <point x="169" y="200" type="curve"/>
      <point x="162" y="198"/>
      <point x="161" y="189"/>
      <point x="149" y="192" type="curve"/>
      <point x="132" y="159"/>
      <point x="91" y="151"/>
      <point x="75" y="118" type="curve"/>
      <point x="86" y="100"/>
      <point x="101" y="119"/>
      <point x="120" y="118" type="curve"/>
      <point x="147" y="150"/>
      <point x="175" y="180"/>
      <point x="220" y="194" type="curve"/>
      <point x="237" y="214"/>
      <point x="251" y="235"/>
      <point x="271" y="251" type="curve" smooth="yes"/>
      <point x="285" y="262"/>
      <point x="313" y="269"/>
    </contour>
  </outline>
</glyph>
<glyph name="question" format="1">
  <advance width="398"/>
  <unicode hex="003F"/>
  <outline>
    <contour>
      <point x="167" y="161" type="curve" name="hr00"/>
      <point x="192" y="168"/>
      <point x="183" y="194"/>
      <point x="184" y="221" type="curve"/>
      <point x="212" y="277"/>
      <point x="224" y="348"/>
      <point x="266" y="389" type="curve"/>
      <point x="275" y="392"/>
      <point x="279" y="400"/>
      <point x="292" y="398" type="curve"/>
      <point x="303" y="418"/>
      <point x="313" y="422"/>
      <point x="315" y="452" type="curve"/>
      <point x="333" y="465"/>
      <point x="340" y="488"/>
      <point x="355" y="503" type="curve"/>
      <point x="350" y="524"/>
      <point x="358" y="540"/>
      <point x="358" y="558" type="curve"/>
      <point x="357" y="581"/>
      <point x="343" y="613"/>
      <point x="326" y="629" type="curve" smooth="yes"/>
      <point x="312" y="643"/>
      <point x="257" y="675"/>
      <point x="238" y="680" type="curve" smooth="yes"/>
      <point x="204" y="689"/>
      <point x="171" y="679"/>
      <point x="138" y="677" type="curve"/>
      <point x="97" y="648"/>
      <point x="32" y="626"/>
      <point x="41" y="563" type="curve"/>
      <point x="51" y="551"/>
      <point x="67" y="546"/>
      <point x="81" y="538" type="curve"/>
      <point x="110" y="553"/>
      <point x="119" y="598"/>
      <point x="121" y="632" type="curve"/>
      <point x="128" y="644"/>
      <point x="150" y="654"/>
      <point x="164" y="643" type="curve"/>
      <point x="171" y="645"/>
      <point x="165" y="661"/>
      <point x="175" y="660" type="curve"/>
      <point x="221" y="666"/>
      <point x="231" y="647"/>
      <point x="249" y="626" type="curve" smooth="yes"/>
      <point x="257" y="617"/>
      <point x="267" y="611"/>
      <point x="272" y="603" type="curve" smooth="yes"/>
      <point x="295" y="572"/>
      <point x="297" y="499"/>
      <point x="272" y="472" type="curve" smooth="yes"/>
      <point x="257" y="456"/>
      <point x="233" y="440"/>
      <point x="218" y="418" type="curve" smooth="yes"/>
      <point x="211" y="408"/>
      <point x="207" y="392"/>
      <point x="201" y="381" type="curve" smooth="yes"/>
      <point x="185" y="349"/>
      <point x="172" y="323"/>
      <point x="167" y="281" type="curve"/>
      <point x="152" y="263"/>
      <point x="151" y="243"/>
      <point x="150" y="218" type="curve" smooth="yes"/>
      <point x="148" y="192"/>
      <point x="151" y="169"/>
    </contour>
    <contour>
      <point x="204" y="53" type="curve"/>
      <point x="191" y="64"/>
      <point x="179" y="80"/>
      <point x="161" y="82" type="curve"/>
      <point x="134" y="83"/>
      <point x="98" y="47"/>
      <point x="101" y="27" type="curve" smooth="yes"/>
      <point x="104" y="4"/>
      <point x="135" y="10"/>
      <point x="144" y="-12" type="curve"/>
      <point x="180" y="-7"/>
      <point x="198" y="17"/>
    </contour>
  </outline>
</glyph>
<glyph name="at" format="1">
  <advance width="821"/>
  <unicode hex="0040"/>
  <outline>
    <contour>
      <point x="437" y="11" type="curve"/>
      <point x="435" y="0"/>
      <point x="437" y="-8"/>
      <point x="442" y="-12" type="curve"/>
      <point x="479" y="-23"/>
      <point x="521" y="-42"/>
      <point x="565" y="-41" type="curve" smooth="yes"/>
      <point x="597" y="-40"/>
      <point x="622" y="-21"/>
      <point x="650" y="-12" type="curve"/>
      <point x="663" y="7"/>
      <point x="681" y="22"/>
      <point x="687" y="48" type="curve"/>
      <point x="694" y="43"/>
      <point x="696" y="53"/>
      <point x="699" y="56" type="curve" smooth="yes"/>
      <point x="721" y="81"/>
      <point x="724" y="126"/>
      <point x="742" y="156" type="curve"/>
      <point x="735" y="185"/>
      <point x="752" y="213"/>
      <point x="761" y="236" type="curve"/>
      <point x="746" y="268"/>
      <point x="764" y="310"/>
      <point x="753" y="338" type="curve" smooth="yes"/>
      <point x="738" y="375"/>
      <point x="727" y="411"/>
      <point x="707" y="441" type="curve" smooth="yes"/>
      <point x="671" y="494"/>
      <point x="619" y="535"/>
      <point x="553" y="555" type="curve" smooth="yes"/>
      <point x="535" y="560"/>
      <point x="511" y="555"/>
      <point x="491" y="558" type="curve" smooth="yes"/>
      <point x="482" y="559"/>
      <point x="475" y="567"/>
      <point x="468" y="564" type="curve" smooth="yes"/>
      <point x="446" y="555"/>
      <point x="422" y="558"/>
      <point x="399" y="555" type="curve" smooth="yes"/>
      <point x="371" y="551"/>
      <point x="346" y="537"/>
      <point x="320" y="529" type="curve"/>
      <point x="306" y="526"/>
      <point x="291" y="528"/>
      <point x="277" y="521" type="curve" smooth="yes"/>
      <point x="269" y="517"/>
      <point x="254" y="504"/>
      <point x="243" y="495" type="curve" smooth="yes"/>
      <point x="232" y="486"/>
      <point x="221" y="475"/>
      <point x="211" y="467" type="curve"/>
      <point x="187" y="444"/>
      <point x="160" y="427"/>
      <point x="146" y="410" type="curve" smooth="yes"/>
      <point x="138" y="400"/>
      <point x="131" y="380"/>
      <point x="120" y="361" type="curve" smooth="yes"/>
      <point x="112" y="347"/>
      <point x="98" y="331"/>
      <point x="92" y="316" type="curve" smooth="yes"/>
      <point x="87" y="305"/>
      <point x="88" y="292"/>
      <point x="83" y="281" type="curve" smooth="yes"/>
      <point x="78" y="270"/>
      <point x="67" y="261"/>
      <point x="63" y="250" type="curve" smooth="yes"/>
      <point x="58" y="236"/>
      <point x="55" y="215"/>
      <point x="52" y="199" type="curve" smooth="yes"/>
      <point x="43" y="154"/>
      <point x="34" y="91"/>
      <point x="46" y="45" type="curve" smooth="yes"/>
      <point x="49" y="32"/>
      <point x="61" y="16"/>
      <point x="69" y="2" type="curve" smooth="yes"/>
      <point x="77" y="-13"/>
      <point x="84" y="-31"/>
      <point x="92" y="-44" type="curve" smooth="yes"/>
      <point x="109" y="-71"/>
      <point x="137" y="-90"/>
      <point x="154" y="-118" type="curve"/>
      <point x="203" y="-144"/>
      <point x="235" y="-186"/>
      <point x="300" y="-192" type="curve" smooth="yes"/>
      <point x="311" y="-193"/>
      <point x="324" y="-190"/>
      <point x="337" y="-192" type="curve" smooth="yes"/>
      <point x="347" y="-193"/>
      <point x="355" y="-199"/>
      <point x="365" y="-200" type="curve" smooth="yes"/>
      <point x="394" y="-204"/>
      <point x="423" y="-197"/>
      <point x="454" y="-197" type="curve"/>
      <point x="466" y="-209"/>
      <point x="485" y="-205"/>
      <point x="496" y="-200" type="curve" smooth="yes"/>
      <point x="523" y="-189"/>
      <point x="548" y="-186"/>
      <point x="565" y="-180" type="curve" smooth="yes"/>
      <point x="576" y="-177"/>
      <point x="585" y="-172"/>
      <point x="593" y="-169" type="curve"/>
      <point x="598" y="-157"/>
      <point x="611" y="-154"/>
      <point x="616" y="-143" type="curve"/>
      <point x="649" y="-125"/>
      <point x="684" y="-99"/>
      <point x="710" y="-75" type="curve" smooth="yes"/>
      <point x="718" y="-68"/>
      <point x="736" y="-58"/>
      <point x="727" y="-44" type="curve"/>
      <point x="694" y="-38"/>
      <point x="688" y="-83"/>
      <point x="653" y="-86" type="curve"/>
      <point x="641" y="-106"/>
      <point x="619" y="-115"/>
      <point x="608" y="-135" type="curve"/>
      <point x="577" y="-147"/>
      <point x="545" y="-173"/>
      <point x="508" y="-169" type="curve"/>
      <point x="497" y="-165"/>
      <point x="507" y="-182"/>
      <point x="496" y="-178" type="curve"/>
      <point x="454" y="-182"/>
      <point x="380" y="-183"/>
      <point x="334" y="-175" type="curve" smooth="yes"/>
      <point x="311" y="-171"/>
      <point x="291" y="-159"/>
      <point x="271" y="-160" type="curve"/>
      <point x="255" y="-142"/>
      <point x="231" y="-134"/>
      <point x="211" y="-118" type="curve" smooth="yes"/>
      <point x="187" y="-97"/>
      <point x="164" y="-67"/>
      <point x="146" y="-44" type="curve" smooth="yes"/>
      <point x="123" y="-15"/>
      <point x="96" y="32"/>
      <point x="92" y="73" type="curve" smooth="yes"/>
      <point x="87" y="117"/>
      <point x="98" y="147"/>
      <point x="103" y="176" type="curve" smooth="yes"/>
      <point x="106" y="193"/>
      <point x="106" y="209"/>
      <point x="109" y="224" type="curve" smooth="yes"/>
      <point x="128" y="318"/>
      <point x="177" y="386"/>
      <point x="226" y="441" type="curve"/>
      <point x="274" y="469"/>
      <point x="315" y="519"/>
      <point x="385" y="515" type="curve"/>
      <point x="393" y="531"/>
      <point x="409" y="522"/>
      <point x="425" y="527" type="curve"/>
      <point x="433" y="537"/>
      <point x="454" y="534"/>
      <point x="465" y="541" type="curve"/>
      <point x="470" y="537"/>
      <point x="472" y="531"/>
      <point x="482" y="532" type="curve" smooth="yes"/>
      <point x="521" y="537"/>
      <point x="566" y="540"/>
      <point x="588" y="512" type="curve"/>
      <point x="619" y="507"/>
      <point x="635" y="491"/>
      <point x="653" y="472" type="curve"/>
      <point x="674" y="452"/>
      <point x="687" y="432"/>
      <point x="702" y="410" type="curve" smooth="yes"/>
      <point x="711" y="396"/>
      <point x="709" y="372"/>
      <point x="716" y="353" type="curve" smooth="yes"/>
      <point x="719" y="343"/>
      <point x="726" y="335"/>
      <point x="727" y="327" type="curve" smooth="yes"/>
      <point x="729" y="314"/>
      <point x="725" y="299"/>
      <point x="727" y="284" type="curve" smooth="yes"/>
      <point x="728" y="276"/>
      <point x="733" y="266"/>
      <point x="733" y="259" type="curve" smooth="yes"/>
      <point x="733" y="246"/>
      <point x="724" y="231"/>
      <point x="722" y="216" type="curve"/>
      <point x="715" y="179"/>
      <point x="718" y="151"/>
      <point x="707" y="127" type="curve"/>
      <point x="674" y="94"/>
      <point x="668" y="23"/>
      <point x="625" y="-1" type="curve" smooth="yes"/>
      <point x="611" y="-8"/>
      <point x="604" y="-3"/>
      <point x="590" y="-6" type="curve" smooth="yes"/>
      <point x="577" y="-9"/>
      <point x="573" y="-16"/>
      <point x="562" y="-15" type="curve" smooth="yes"/>
      <point x="542" y="-13"/>
      <point x="536" y="3"/>
      <point x="511" y="5" type="curve"/>
      <point x="483" y="36"/>
      <point x="497" y="107"/>
      <point x="525" y="130" type="curve"/>
      <point x="529" y="156"/>
      <point x="528" y="180"/>
      <point x="533" y="204" type="curve" smooth="yes"/>
      <point x="538" y="227"/>
      <point x="550" y="247"/>
      <point x="556" y="267" type="curve" smooth="yes"/>
      <point x="558" y="274"/>
      <point x="557" y="283"/>
      <point x="559" y="290" type="curve" smooth="yes"/>
      <point x="562" y="298"/>
      <point x="570" y="304"/>
      <point x="573" y="313" type="curve" smooth="yes"/>
      <point x="581" y="335"/>
      <point x="579" y="362"/>
      <point x="588" y="384" type="curve" smooth="yes"/>
      <point x="592" y="396"/>
      <point x="607" y="406"/>
      <point x="605" y="421" type="curve"/>
      <point x="588" y="437"/>
      <point x="561" y="441"/>
      <point x="533" y="432" type="curve"/>
      <point x="524" y="410"/>
      <point x="517" y="388"/>
      <point x="516" y="364" type="curve"/>
      <point x="495" y="425"/>
      <point x="446" y="456"/>
      <point x="374" y="430" type="curve" smooth="yes"/>
      <point x="343" y="418"/>
      <point x="327" y="397"/>
      <point x="305" y="375" type="curve" smooth="yes"/>
      <point x="275" y="345"/>
      <point x="266" y="339"/>
      <point x="251" y="299" type="curve" smooth="yes"/>
      <point x="241" y="271"/>
      <point x="238" y="243"/>
      <point x="231" y="210" type="curve" smooth="yes"/>
      <point x="227" y="191"/>
      <point x="220" y="174"/>
      <point x="217" y="159" type="curve" smooth="yes"/>
      <point x="209" y="114"/>
      <point x="226" y="70"/>
      <point x="234" y="39" type="curve"/>
      <point x="266" y="22"/>
      <point x="285" y="-25"/>
      <point x="340" y="-24" type="curve"/>
      <point x="375" y="-22"/>
      <point x="406" y="-3"/>
    </contour>
    <contour>
      <point x="395" y="28" type="line"/>
      <point x="372" y="18"/>
      <point x="334" y="23"/>
      <point x="310" y="13" type="curve"/>
      <point x="326" y="3"/>
      <point x="347" y="12"/>
      <point x="367" y="13" type="curve"/>
      <point x="370" y="13" type="line"/>
      <point x="353" y="4"/>
      <point x="341" y="-2"/>
      <point x="314" y="8" type="curve"/>
      <point x="297" y="29"/>
      <point x="284" y="56"/>
      <point x="274" y="85" type="curve" smooth="yes"/>
      <point x="271" y="96"/>
      <point x="283" y="93"/>
      <point x="280" y="105" type="curve"/>
      <point x="267" y="144"/>
      <point x="285" y="205"/>
      <point x="300" y="247" type="curve"/>
      <point x="309" y="276"/>
      <point x="315" y="288"/>
      <point x="331" y="313" type="curve" smooth="yes"/>
      <point x="334" y="317"/>
      <point x="339" y="322"/>
      <point x="342" y="327" type="curve" smooth="yes"/>
      <point x="346" y="333"/>
      <point x="346" y="341"/>
      <point x="348" y="344" type="curve" smooth="yes"/>
      <point x="355" y="353"/>
      <point x="370" y="361"/>
      <point x="380" y="370" type="curve" smooth="yes"/>
      <point x="395" y="384"/>
      <point x="412" y="408"/>
      <point x="431" y="398" type="curve" smooth="yes"/>
      <point x="439" y="394"/>
      <point x="462" y="384"/>
      <point x="465" y="381" type="curve" smooth="yes"/>
      <point x="483" y="365"/>
      <point x="487" y="340"/>
      <point x="511" y="324" type="curve"/>
      <point x="501" y="279"/>
      <point x="476" y="227"/>
      <point x="468" y="170" type="curve" smooth="yes"/>
      <point x="464" y="144"/>
      <point x="465" y="125"/>
      <point x="456" y="93" type="curve" smooth="yes"/>
      <point x="453" y="80"/>
      <point x="449" y="61"/>
      <point x="445" y="53" type="curve"/>
      <point x="445" y="53"/>
      <point x="431" y="36"/>
      <point x="428" y="33" type="curve" smooth="yes"/>
      <point x="420" y="28"/>
      <point x="409" y="28"/>
      <point x="397" y="25" type="curve"/>
    </contour>
  </outline>
</glyph>
<glyph name="A" format="1">
  <advance width="527"/>
  <unicode hex="0041"/>
  <outline>
    <contour>
      <point x="430" y="209" type="curve"/>
      <point x="448" y="196"/>
      <point x="449" y="165"/>
      <point x="462" y="147" type="curve"/>
      <point x="446" y="197"/>
      <point x="439" y="248"/>
      <point x="424" y="298" type="curve" smooth="yes"/>
      <point x="415" y="329"/>
      <point x="408" y="360"/>
      <point x="399" y="392" type="curve" smooth="yes"/>
      <point x="388" y="430"/>
      <point x="371" y="467"/>
      <point x="365" y="506" type="curve"/>
      <point x="359" y="536"/>
      <point x="359" y="574"/>
      <point x="356" y="600" type="curve" smooth="yes"/>
      <point x="353" y="626"/>
      <point x="360" y="654"/>
      <point x="353" y="680" type="curve"/>
      <point x="345" y="687"/>
      <point x="321" y="678"/>
      <point x="313" y="685" type="curve"/>
      <point x="305" y="678"/>
      <point x="293" y="675"/>
      <point x="288" y="665" type="curve"/>
      <point x="282" y="605"/>
      <point x="263" y="559"/>
      <point x="239" y="509" type="curve" smooth="yes"/>
      <point x="206" y="439"/>
      <point x="178" y="360"/>
      <point x="151" y="289" type="curve" smooth="yes"/>
      <point x="139" y="259"/>
      <point x="124" y="230"/>
      <point x="111" y="201" type="curve"/>
      <point x="106" y="196"/>
      <point x="98" y="205"/>
      <point x="97" y="192" type="curve"/>
      <point x="87" y="186"/>
      <point x="103" y="182"/>
      <point x="100" y="172" type="curve"/>
      <point x="90" y="150"/>
      <point x="76" y="131"/>
      <point x="74" y="101" type="curve"/>
      <point x="50" y="82"/>
      <point x="43" y="44"/>
      <point x="25" y="18" type="curve"/>
      <point x="14" y="18"/>
      <point x="0" y="19"/>
      <point x="0" y="7" type="curve"/>
      <point x="1" y="-3"/>
      <point x="16" y="2"/>
      <point x="23" y="4" type="curve"/>
      <point x="22" y="-2"/>
      <point x="23" y="-7"/>
      <point x="25" y="-10" type="curve"/>
      <point x="54" y="10"/>
      <point x="107" y="-13"/>
      <point x="119" y="18" type="curve"/>
      <point x="94" y="18"/>
      <point x="74" y="24"/>
      <point x="51" y="27" type="curve"/>
      <point x="73" y="77"/>
      <point x="88" y="133"/>
      <point x="114" y="178" type="curve"/>
      <point x="152" y="181"/>
      <point x="203" y="165"/>
      <point x="251" y="172" type="curve" smooth="yes"/>
      <point x="274" y="176"/>
      <point x="301" y="180"/>
      <point x="322" y="167" type="curve"/>
      <point x="341" y="172"/>
      <point x="355" y="175"/>
      <point x="376" y="172" type="curve"/>
      <point x="397" y="121"/>
      <point x="412" y="64"/>
      <point x="430" y="10" type="curve"/>
      <point x="420" y="7"/>
      <point x="408" y="-6"/>
      <point x="416" y="-19" type="curve"/>
      <point x="430" y="-22"/>
      <point x="424" y="-5"/>
      <point x="433" y="-4" type="curve"/>
      <point x="437" y="-9"/>
      <point x="445" y="-18"/>
      <point x="450" y="-13" type="curve"/>
      <point x="452" y="-3"/>
      <point x="446" y="-2"/>
      <point x="447" y="7" type="curve"/>
      <point x="471" y="23"/>
      <point x="513" y="3"/>
      <point x="527" y="27" type="curve"/>
      <point x="514" y="25"/>
      <point x="509" y="31"/>
      <point x="499" y="33" type="curve"/>
      <point x="493" y="54"/>
      <point x="475" y="74"/>
      <point x="479" y="95" type="curve"/>
      <point x="462" y="119"/>
      <point x="445" y="151"/>
      <point x="447" y="178" type="curve"/>
      <point x="439" y="184"/>
      <point x="427" y="202"/>
    </contour>
    <contour>
      <point x="251" y="503" type="curve" smooth="yes"/>
      <point x="267" y="539"/>
      <point x="278" y="576"/>
      <point x="293" y="611" type="curve"/>
      <point x="306" y="598"/>
      <point x="308" y="563"/>
      <point x="313" y="534" type="curve" smooth="yes"/>
      <point x="317" y="515"/>
      <point x="326" y="497"/>
      <point x="328" y="480" type="curve"/>
      <point x="328" y="472"/>
      <point x="325" y="466"/>
      <point x="325" y="457" type="curve" smooth="yes"/>
      <point x="325" y="450"/>
      <point x="329" y="443"/>
      <point x="330" y="435" type="curve" smooth="yes"/>
      <point x="333" y="413"/>
      <point x="329" y="391"/>
      <point x="330" y="369" type="curve"/>
      <point x="335" y="306"/>
      <point x="360" y="249"/>
      <point x="370" y="192" type="curve"/>
      <point x="346" y="195"/>
      <point x="300" y="182"/>
      <point x="285" y="198" type="curve"/>
      <point x="273" y="201"/>
      <point x="274" y="192"/>
      <point x="265" y="192" type="curve"/>
      <point x="216" y="203"/>
      <point x="155" y="198"/>
      <point x="125" y="201" type="curve"/>
      <point x="147" y="250"/>
      <point x="166" y="299"/>
      <point x="188" y="352" type="curve" smooth="yes"/>
      <point x="195" y="370"/>
      <point x="198" y="388"/>
      <point x="205" y="406" type="curve" smooth="yes"/>
      <point x="217" y="439"/>
      <point x="236" y="471"/>
    </contour>
    <contour>
      <point x="385" y="215" type="curve" smooth="yes"/>
      <point x="371" y="265"/>
      <point x="351" y="315"/>
      <point x="345" y="378" type="curve"/>
      <point x="373" y="318"/>
      <point x="375" y="263"/>
      <point x="393" y="189" type="curve"/>
      <point x="381" y="195"/>
      <point x="387" y="206"/>
    </contour>
    <contour>
      <point x="390" y="295" type="curve"/>
      <point x="390" y="315" type="line"/>
      <point x="402" y="290"/>
      <point x="403" y="256"/>
      <point x="410" y="226" type="curve"/>
      <point x="400" y="226"/>
      <point x="405" y="239"/>
      <point x="405" y="244" type="curve"/>
      <point x="401" y="261"/>
      <point x="396" y="279"/>
    </contour>
    <contour>
      <point x="336" y="631" type="curve"/>
      <point x="328" y="639"/>
      <point x="319" y="644"/>
      <point x="319" y="660" type="curve"/>
      <point x="334" y="659"/>
      <point x="333" y="643"/>
    </contour>
    <contour>
      <point x="427" y="81" type="curve"/>
      <point x="422" y="86"/>
      <point x="417" y="101"/>
      <point x="422" y="107" type="curve"/>
      <point x="429" y="104"/>
      <point x="433" y="88"/>
    </contour>
    <contour>
      <point x="422" y="249" type="curve"/>
      <point x="413" y="252"/>
      <point x="416" y="266"/>
      <point x="413" y="275" type="curve"/>
      <point x="423" y="273"/>
      <point x="419" y="258"/>
    </contour>
  </outline>
</glyph>
<glyph name="B" format="1">
  <advance width="492"/>
  <unicode hex="0042"/>
  <outline>
    <contour>
      <point x="303" y="-6" type="curve" name="hr00"/>
      <point x="315" y="3"/>
      <point x="336" y="21"/>
      <point x="343" y="11" type="curve"/>
      <point x="340" y="11"/>
      <point x="339" y="9"/>
      <point x="340" y="6" type="curve"/>
      <point x="356" y="10"/>
      <point x="353" y="4"/>
      <point x="368" y="3" type="curve"/>
      <point x="383" y="7"/>
      <point x="388" y="21"/>
      <point x="411" y="17" type="curve"/>
      <point x="435" y="47"/>
      <point x="430" y="106"/>
      <point x="442" y="148" type="curve"/>
      <point x="430" y="161"/>
      <point x="437" y="181"/>
      <point x="434" y="196" type="curve" smooth="yes"/>
      <point x="424" y="254"/>
      <point x="398" y="299"/>
      <point x="357" y="325" type="curve"/>
      <point x="356" y="335"/>
      <point x="349" y="338"/>
      <point x="348" y="348" type="curve"/>
      <point x="336" y="351"/>
      <point x="329" y="350"/>
      <point x="320" y="345" type="curve"/>
      <point x="316" y="353"/>
      <point x="306" y="355"/>
      <point x="297" y="359" type="curve"/>
      <point x="283" y="350"/>
      <point x="260" y="352"/>
      <point x="249" y="350" type="curve"/>
      <point x="281" y="377"/>
      <point x="308" y="409"/>
      <point x="345" y="430" type="curve"/>
      <point x="374" y="484"/>
      <point x="377" y="563"/>
      <point x="365" y="638" type="curve"/>
      <point x="356" y="636"/>
      <point x="348" y="640"/>
      <point x="340" y="653" type="curve"/>
      <point x="253" y="670"/>
      <point x="161" y="693"/>
      <point x="83" y="658" type="curve"/>
      <point x="80" y="660"/>
      <point x="63" y="664"/>
      <point x="63" y="650" type="curve" smooth="yes"/>
      <point x="63" y="646"/>
      <point x="67" y="646"/>
      <point x="66" y="641" type="curve"/>
      <point x="83" y="639"/>
      <point x="100" y="643"/>
      <point x="120" y="647" type="curve"/>
      <point x="128" y="627"/>
      <point x="122" y="605"/>
      <point x="123" y="584" type="curve" smooth="yes"/>
      <point x="124" y="568"/>
      <point x="132" y="552"/>
      <point x="132" y="536" type="curve" smooth="yes"/>
      <point x="132" y="532"/>
      <point x="126" y="524"/>
      <point x="126" y="521" type="curve"/>
      <point x="119" y="466"/>
      <point x="141" y="406"/>
      <point x="126" y="345" type="curve" smooth="yes"/>
      <point x="124" y="336"/>
      <point x="119" y="331"/>
      <point x="117" y="322" type="curve"/>
      <point x="114" y="294"/>
      <point x="123" y="263"/>
      <point x="123" y="234" type="curve" smooth="yes"/>
      <point x="123" y="165"/>
      <point x="124" y="84"/>
      <point x="123" y="20" type="curve"/>
      <point x="105" y="10"/>
      <point x="70" y="18"/>
      <point x="60" y="0" type="curve"/>
      <point x="71" y="-9"/>
      <point x="85" y="0"/>
      <point x="97" y="0" type="curve" smooth="yes"/>
      <point x="101" y="0"/>
      <point x="106" y="-5"/>
      <point x="109" y="-6" type="curve" smooth="yes"/>
      <point x="132" y="-10"/>
      <point x="154" y="5"/>
      <point x="180" y="-6" type="curve"/>
      <point x="217" y="4"/>
      <point x="258" y="-8"/>
      <point x="300" y="8" type="curve"/>
      <point x="303" y="1"/>
      <point x="290" y="-6"/>
    </contour>
    <contour>
      <point x="174" y="322" type="curve"/>
      <point x="211" y="313"/>
      <point x="247" y="337"/>
      <point x="297" y="336" type="curve"/>
      <point x="324" y="305"/>
      <point x="352" y="273"/>
      <point x="363" y="225" type="curve"/>
      <point x="363" y="213"/>
      <point x="359" y="225"/>
      <point x="351" y="222" type="curve"/>
      <point x="352" y="187"/>
      <point x="354" y="146"/>
      <point x="354" y="97" type="curve"/>
      <point x="351" y="89"/>
      <point x="338" y="80"/>
      <point x="328" y="68" type="curve" smooth="yes"/>
      <point x="319" y="56"/>
      <point x="315" y="39"/>
      <point x="303" y="31" type="curve" smooth="yes"/>
      <point x="287" y="22"/>
      <point x="263" y="22"/>
      <point x="237" y="25" type="curve"/>
      <point x="226" y="25"/>
      <point x="228" y="11"/>
      <point x="217" y="11" type="curve" smooth="yes"/>
      <point x="203" y="11"/>
      <point x="205" y="28"/>
      <point x="186" y="23" type="curve"/>
      <point x="180" y="131"/>
      <point x="171" y="216"/>
    </contour>
    <contour>
      <point x="206" y="661" type="line"/>
      <point x="236" y="662"/>
      <point x="259" y="657"/>
      <point x="283" y="653" type="curve"/>
      <point x="317" y="612"/>
      <point x="306" y="541"/>
      <point x="314" y="482" type="curve"/>
      <point x="297" y="455"/>
      <point x="277" y="427"/>
      <point x="254" y="399" type="curve"/>
      <point x="252" y="391"/>
      <point x="258" y="392"/>
      <point x="257" y="385" type="curve"/>
      <point x="226" y="370"/>
      <point x="212" y="341"/>
      <point x="180" y="333" type="curve"/>
      <point x="184" y="429"/>
      <point x="168" y="540"/>
      <point x="180" y="641" type="curve" smooth="yes"/>
      <point x="181" y="647"/>
      <point x="178" y="650"/>
      <point x="172" y="650" type="curve"/>
      <point x="180" y="660"/>
      <point x="197" y="643"/>
      <point x="206" y="653" type="curve"/>
    </contour>
    <contour>
      <point x="154" y="279" type="curve"/>
      <point x="148" y="293"/>
      <point x="154" y="320"/>
      <point x="152" y="339" type="curve"/>
      <point x="164" y="330"/>
      <point x="156" y="294"/>
    </contour>
    <contour>
      <point x="334" y="45" type="curve"/>
      <point x="318" y="43"/>
      <point x="338" y="73"/>
      <point x="351" y="77" type="curve"/>
      <point x="349" y="65"/>
      <point x="331" y="53"/>
    </contour>
    <contour>
      <point x="371" y="134" type="curve"/>
      <point x="364" y="142"/>
      <point x="372" y="159"/>
      <point x="374" y="168" type="curve"/>
      <point x="382" y="159"/>
      <point x="374" y="142"/>
    </contour>
    <contour>
      <point x="380" y="88" type="curve"/>
      <point x="372" y="100"/>
      <point x="390" y="110"/>
      <point x="391" y="122" type="curve"/>
      <point x="401" y="108"/>
      <point x="381" y="100"/>
    </contour>
    <contour>
      <point x="371" y="179" type="curve"/>
      <point x="363" y="186"/>
      <point x="373" y="198"/>
      <point x="371" y="208" type="curve"/>
      <point x="383" y="204"/>
      <point x="369" y="190"/>
    </contour>
    <contour>
      <point x="380" y="51" type="curve"/>
      <point x="383" y="59"/>
      <point x="386" y="68"/>
      <point x="391" y="74" type="curve"/>
      <point x="396" y="69"/>
      <point x="386" y="54"/>
    </contour>
    <contour>
      <point x="154" y="216" type="curve"/>
      <point x="149" y="219"/>
      <point x="147" y="229"/>
      <point x="152" y="234" type="curve"/>
      <point x="158" y="233"/>
      <point x="153" y="221"/>
    </contour>
    <contour>
      <point x="303" y="439" type="curve"/>
      <point x="304" y="445"/>
      <point x="309" y="448"/>
      <point x="311" y="453" type="curve"/>
      <point x="317" y="451"/>
      <point x="310" y="437"/>
    </contour>
    <contour>
      <point x="337" y="624" type="curve"/>
      <point x="328" y="621"/>
      <point x="332" y="630"/>
      <point x="331" y="635" type="curve"/>
      <point x="336" y="635"/>
      <point x="338" y="631"/>
    </contour>
    <contour>
      <point x="397" y="57" type="curve"/>
      <point x="396" y="62"/>
      <point x="400" y="63"/>
      <point x="400" y="68" type="curve"/>
      <point x="405" y="69"/>
      <point x="405" y="52"/>
    </contour>
    <contour>
      <point x="320" y="31" type="curve"/>
      <point x="320" y="40" type="line"/>
      <point x="328" y="44"/>
      <point x="328" y="27"/>
    </contour>
    <contour>
      <point x="300" y="416" type="curve"/>
      <point x="289" y="422"/>
      <point x="308" y="422"/>
      <point x="306" y="430" type="curve"/>
      <point x="319" y="429"/>
      <point x="299" y="422"/>
    </contour>
    <contour>
      <point x="154" y="259" type="curve" smooth="yes"/>
      <point x="151" y="250"/>
      <point x="151" y="267"/>
      <point x="152" y="271" type="curve" smooth="yes"/>
      <point x="155" y="280"/>
      <point x="155" y="263"/>
    </contour>
    <contour>
      <point x="351" y="536" type="curve" smooth="yes"/>
      <point x="350" y="530"/>
      <point x="348" y="538"/>
      <point x="348" y="541" type="curve"/>
      <point x="349" y="547"/>
      <point x="352" y="540"/>
    </contour>
    <contour>
      <point x="397" y="128" type="curve" smooth="yes"/>
      <point x="396" y="123"/>
      <point x="393" y="130"/>
      <point x="394" y="134" type="curve" smooth="yes"/>
      <point x="395" y="139"/>
      <point x="398" y="132"/>
    </contour>
  </outline>
</glyph>
<glyph name="D" format="1">
  <advance width="557"/>
  <unicode hex="0044"/>
  <outline>
    <contour>
      <point x="154" y="79" type="curve" name="hr00"/>
      <point x="161" y="56"/>
      <point x="151" y="34"/>
      <point x="159" y="13" type="curve"/>
      <point x="150" y="15"/>
      <point x="130" y="6"/>
      <point x="134" y="22" type="curve"/>
      <point x="114" y="13"/>
      <point x="68" y="20"/>
      <point x="60" y="-7" type="curve"/>
      <point x="67" y="-9"/>
      <point x="74" y="-8"/>
      <point x="82" y="-7" type="curve"/>
      <point x="86" y="15"/>
      <point x="130" y="-4"/>
      <point x="137" y="7" type="curve"/>
      <point x="142" y="0"/>
      <point x="149" y="-5"/>
      <point x="159" y="-7" type="curve"/>
      <point x="208" y="-4"/>
      <point x="239" y="16"/>
      <point x="279" y="27" type="curve"/>
      <point x="278" y="16"/>
      <point x="285" y="14"/>
      <point x="291" y="10" type="curve"/>
      <point x="298" y="22"/>
      <point x="309" y="32"/>
      <point x="316" y="44" type="curve"/>
      <point x="353" y="62"/>
      <point x="376" y="93"/>
      <point x="390" y="133" type="curve"/>
      <point x="377" y="135"/>
      <point x="386" y="116"/>
      <point x="373" y="118" type="curve"/>
      <point x="404" y="177"/>
      <point x="444" y="226"/>
      <point x="462" y="298" type="curve"/>
      <point x="496" y="336"/>
      <point x="492" y="404"/>
      <point x="487" y="469" type="curve"/>
      <point x="493" y="477"/>
      <point x="500" y="483"/>
      <point x="507" y="489" type="curve"/>
      <point x="496" y="487"/>
      <point x="496" y="487"/>
      <point x="484" y="489" type="curve"/>
      <point x="482" y="484"/>
      <point x="493" y="479"/>
      <point x="484" y="478" type="curve"/>
      <point x="483" y="501"/>
      <point x="465" y="523"/>
      <point x="467" y="540" type="curve"/>
      <point x="475" y="539"/>
      <point x="472" y="528"/>
      <point x="479" y="526" type="curve"/>
      <point x="470" y="578"/>
      <point x="417" y="610"/>
      <point x="382" y="637" type="curve" smooth="yes"/>
      <point x="367" y="648"/>
      <point x="352" y="654"/>
      <point x="333" y="663" type="curve" smooth="yes"/>
      <point x="295" y="681"/>
      <point x="256" y="689"/>
      <point x="211" y="669" type="curve"/>
      <point x="196" y="676"/>
      <point x="176" y="670"/>
      <point x="159" y="671" type="curve"/>
      <point x="156" y="672"/>
      <point x="155" y="677"/>
      <point x="154" y="677" type="curve"/>
      <point x="149" y="677"/>
      <point x="145" y="673"/>
      <point x="139" y="674" type="curve" smooth="yes"/>
      <point x="135" y="675"/>
      <point x="130" y="680"/>
      <point x="125" y="680" type="curve" smooth="yes"/>
      <point x="122" y="680"/>
      <point x="115" y="674"/>
      <point x="111" y="674" type="curve" smooth="yes"/>
      <point x="101" y="674"/>
      <point x="92" y="681"/>
      <point x="85" y="680" type="curve" smooth="yes"/>
      <point x="76" y="678"/>
      <point x="61" y="672"/>
      <point x="62" y="657" type="curve"/>
      <point x="72" y="648"/>
      <point x="98" y="658"/>
      <point x="119" y="654" type="curve"/>
      <point x="131" y="635"/>
      <point x="123" y="614"/>
      <point x="122" y="592" type="curve" smooth="yes"/>
      <point x="121" y="554"/>
      <point x="131" y="512"/>
      <point x="131" y="475" type="curve"/>
      <point x="130" y="381"/>
      <point x="119" y="281"/>
      <point x="119" y="184" type="curve"/>
      <point x="120" y="143"/>
      <point x="126" y="103"/>
      <point x="128" y="64" type="curve" smooth="yes"/>
      <point x="129" y="49"/>
      <point x="121" y="38"/>
      <point x="131" y="27" type="curve"/>
      <point x="133" y="36"/>
      <point x="132" y="47"/>
      <point x="139" y="50" type="curve"/>
      <point x="139" y="41"/>
      <point x="138" y="31"/>
      <point x="148" y="33" type="curve"/>
      <point x="159" y="45"/>
      <point x="145" y="64"/>
    </contour>
    <contour>
      <point x="248" y="50" type="curve"/>
      <point x="236" y="50"/>
      <point x="232" y="55"/>
      <point x="222" y="50" type="curve"/>
      <point x="216" y="39"/>
      <point x="225" y="37"/>
      <point x="225" y="24" type="curve"/>
      <point x="211" y="28"/>
      <point x="213" y="15"/>
      <point x="199" y="19" type="curve"/>
      <point x="207" y="34"/>
      <point x="203" y="62"/>
      <point x="222" y="67" type="curve"/>
      <point x="213" y="84"/>
      <point x="206" y="106"/>
      <point x="208" y="127" type="curve"/>
      <point x="208" y="132"/>
      <point x="213" y="137"/>
      <point x="214" y="141" type="curve"/>
      <point x="215" y="190"/>
      <point x="202" y="243"/>
      <point x="225" y="289" type="curve"/>
      <point x="225" y="300"/>
      <point x="216" y="283"/>
      <point x="216" y="292" type="curve"/>
      <point x="210" y="352"/>
      <point x="224" y="409"/>
      <point x="225" y="463" type="curve" smooth="yes"/>
      <point x="227" y="526"/>
      <point x="206" y="587"/>
      <point x="225" y="649" type="curve"/>
      <point x="250" y="648"/>
      <point x="279" y="653"/>
      <point x="310" y="643" type="curve" smooth="yes"/>
      <point x="342" y="632"/>
      <point x="409" y="593"/>
      <point x="425" y="569" type="curve"/>
      <point x="429" y="561"/>
      <point x="433" y="547"/>
      <point x="433" y="540" type="curve"/>
      <point x="434" y="530"/>
      <point x="425" y="527"/>
      <point x="425" y="517" type="curve"/>
      <point x="424" y="510"/>
      <point x="432" y="498"/>
      <point x="433" y="489" type="curve" smooth="yes"/>
      <point x="434" y="476"/>
      <point x="427" y="468"/>
      <point x="430" y="455" type="curve"/>
      <point x="429" y="445"/>
      <point x="439" y="446"/>
      <point x="442" y="441" type="curve"/>
      <point x="441" y="387"/>
      <point x="426" y="339"/>
      <point x="416" y="295" type="curve" smooth="yes"/>
      <point x="413" y="284"/>
      <point x="415" y="273"/>
      <point x="413" y="264" type="curve" smooth="yes"/>
      <point x="404" y="229"/>
      <point x="376" y="176"/>
      <point x="353" y="150" type="curve"/>
      <point x="348" y="143"/>
      <point x="339" y="139"/>
      <point x="333" y="133" type="curve" smooth="yes"/>
      <point x="309" y="105"/>
      <point x="284" y="70"/>
    </contour>
    <contour>
      <point x="422" y="190" type="curve"/>
      <point x="414" y="176"/>
      <point x="397" y="157"/>
      <point x="405" y="138" type="curve"/>
      <point x="406" y="158"/>
      <point x="436" y="172"/>
    </contour>
    <contour>
      <point x="142" y="364" type="line" smooth="yes"/>
      <point x="142" y="373"/>
      <point x="137" y="378"/>
      <point x="139" y="389" type="curve"/>
      <point x="143" y="390"/>
      <point x="145" y="389"/>
      <point x="145" y="386" type="curve" smooth="yes"/>
      <point x="145" y="332" type="line"/>
      <point x="146" y="316"/>
      <point x="140" y="329"/>
      <point x="142" y="338" type="curve"/>
    </contour>
    <contour>
      <point x="348" y="79" type="curve"/>
      <point x="344" y="86"/>
      <point x="361" y="97"/>
      <point x="365" y="107" type="curve"/>
      <point x="377" y="101"/>
      <point x="352" y="87"/>
    </contour>
    <contour>
      <point x="194" y="193" type="curve"/>
      <point x="181" y="188"/>
      <point x="184" y="203"/>
      <point x="188" y="207" type="curve"/>
      <point x="192" y="204"/>
      <point x="194" y="200"/>
    </contour>
    <contour>
      <point x="473" y="386" type="curve"/>
      <point x="465" y="394"/>
      <point x="469" y="396"/>
      <point x="470" y="406" type="curve"/>
      <point x="476" y="405"/>
      <point x="471" y="392"/>
    </contour>
    <contour>
      <point x="202" y="-4" type="curve"/>
      <point x="201" y="-11"/>
      <point x="203" y="-15"/>
      <point x="208" y="-16" type="curve"/>
      <point x="209" y="-9"/>
      <point x="207" y="-5"/>
    </contour>
    <contour>
      <point x="436" y="215" type="curve"/>
      <point x="439" y="208"/>
      <point x="427" y="202"/>
      <point x="436" y="198" type="curve"/>
      <point x="435" y="203"/>
      <point x="444" y="212"/>
    </contour>
    <contour>
      <point x="162" y="649" type="curve"/>
      <point x="163" y="643"/>
      <point x="149" y="644"/>
      <point x="154" y="651" type="curve"/>
      <point x="158" y="652"/>
      <point x="159" y="649"/>
    </contour>
    <contour>
      <point x="162" y="295" type="line"/>
      <point x="162" y="301" type="line"/>
      <point x="168" y="301" type="line"/>
      <point x="168" y="295" type="line"/>
    </contour>
  </outline>
</glyph>
<glyph name="E" format="1">
  <advance width="591"/>
  <unicode hex="0045"/>
  <outline>
    <contour>
      <point x="585" y="674" type="curve" name="hr00"/>
      <point x="568" y="690"/>
      <point x="553" y="678"/>
      <point x="536" y="677" type="curve"/>
      <point x="498" y="673"/>
      <point x="460" y="679"/>
      <point x="419" y="679" type="curve" smooth="yes"/>
      <point x="325" y="679"/>
      <point x="227" y="688"/>
      <point x="123" y="682" type="curve"/>
      <point x="112" y="702"/>
      <point x="79" y="697"/>
      <point x="72" y="677" type="curve"/>
      <point x="73" y="664"/>
      <point x="93" y="671"/>
      <point x="100" y="665" type="curve"/>
      <point x="102" y="650"/>
      <point x="97" y="642"/>
      <point x="94" y="631" type="curve"/>
      <point x="124" y="607"/>
      <point x="95" y="567"/>
      <point x="94" y="543" type="curve"/>
      <point x="105" y="540"/>
      <point x="101" y="557"/>
      <point x="109" y="548" type="curve"/>
      <point x="124" y="434"/>
      <point x="105" y="307"/>
      <point x="103" y="198" type="curve"/>
      <point x="95" y="196"/>
      <point x="105" y="211"/>
      <point x="97" y="209" type="curve"/>
      <point x="96" y="136"/>
      <point x="112" y="57"/>
      <point x="86" y="-2" type="curve"/>
      <point x="70" y="-5"/>
      <point x="60" y="2"/>
      <point x="60" y="-19" type="curve"/>
      <point x="83" y="-37"/>
      <point x="122" y="-3"/>
      <point x="146" y="-22" type="curve"/>
      <point x="144" y="-11"/>
      <point x="158" y="-15"/>
      <point x="160" y="-8" type="curve"/>
      <point x="229" y="-2"/>
      <point x="319" y="16"/>
      <point x="405" y="21" type="curve" smooth="yes"/>
      <point x="436" y="23"/>
      <point x="464" y="22"/>
      <point x="494" y="24" type="curve"/>
      <point x="498" y="24"/>
      <point x="504" y="26"/>
      <point x="508" y="27" type="curve" smooth="yes"/>
      <point x="539" y="30"/>
      <point x="574" y="9"/>
      <point x="590" y="35" type="curve"/>
      <point x="593" y="50"/>
      <point x="574" y="41"/>
      <point x="573" y="52" type="curve"/>
      <point x="577" y="65"/>
      <point x="579" y="94"/>
      <point x="562" y="95" type="curve"/>
      <point x="542" y="93"/>
      <point x="558" y="53"/>
      <point x="545" y="44" type="curve"/>
      <point x="395" y="45"/>
      <point x="300" y="25"/>
      <point x="160" y="10" type="curve"/>
      <point x="160" y="22"/>
      <point x="152" y="8"/>
      <point x="149" y="15" type="curve"/>
      <point x="151" y="31"/>
      <point x="144" y="39"/>
      <point x="146" y="55" type="curve"/>
      <point x="146" y="58"/>
      <point x="149" y="74"/>
      <point x="151" y="78" type="curve" smooth="yes"/>
      <point x="153" y="82"/>
      <point x="160" y="83"/>
      <point x="162" y="86" type="curve"/>
      <point x="160" y="85"/>
      <point x="155" y="89"/>
      <point x="154" y="92" type="curve"/>
      <point x="154" y="95"/>
      <point x="156" y="104"/>
      <point x="157" y="109" type="curve" smooth="yes"/>
      <point x="163" y="156"/>
      <point x="167" y="238"/>
      <point x="174" y="280" type="curve"/>
      <point x="208" y="291"/>
      <point x="244" y="300"/>
      <point x="283" y="306" type="curve"/>
      <point x="278" y="278"/>
      <point x="287" y="261"/>
      <point x="305" y="249" type="curve"/>
      <point x="314" y="276"/>
      <point x="301" y="313"/>
      <point x="320" y="326" type="curve"/>
      <point x="306" y="335"/>
      <point x="322" y="352"/>
      <point x="317" y="360" type="curve"/>
      <point x="309" y="365"/>
      <point x="302" y="375"/>
      <point x="291" y="369" type="curve"/>
      <point x="286" y="359"/>
      <point x="290" y="340"/>
      <point x="280" y="335" type="curve"/>
      <point x="274" y="343"/>
      <point x="261" y="335"/>
      <point x="254" y="337" type="curve" smooth="yes"/>
      <point x="252" y="338"/>
      <point x="252" y="343"/>
      <point x="248" y="343" type="curve" smooth="yes"/>
      <point x="244" y="343"/>
      <point x="237" y="335"/>
      <point x="231" y="335" type="curve"/>
      <point x="210" y="331"/>
      <point x="186" y="337"/>
      <point x="169" y="335" type="curve"/>
      <point x="168" y="347"/>
      <point x="164" y="357"/>
      <point x="166" y="372" type="curve"/>
      <point x="187" y="395"/>
      <point x="182" y="440"/>
      <point x="180" y="483" type="curve" smooth="yes"/>
      <point x="177" y="544"/>
      <point x="188" y="609"/>
      <point x="186" y="654" type="curve"/>
      <point x="262" y="655"/>
      <point x="378" y="656"/>
      <point x="448" y="648" type="curve" smooth="yes"/>
      <point x="473" y="645"/>
      <point x="507" y="649"/>
      <point x="528" y="651" type="curve" smooth="yes"/>
      <point x="552" y="653"/>
      <point x="587" y="650"/>
    </contour>
    <contour>
      <point x="120" y="662" type="curve"/>
      <point x="124" y="662"/>
      <point x="128" y="662"/>
      <point x="129" y="665" type="curve"/>
      <point x="139" y="663"/>
      <point x="131" y="646"/>
      <point x="123" y="645" type="curve"/>
      <point x="125" y="654"/>
      <point x="118" y="654"/>
    </contour>
    <contour>
      <point x="109" y="4" type="curve"/>
      <point x="112" y="8"/>
      <point x="112" y="14"/>
      <point x="114" y="18" type="curve"/>
      <point x="122" y="20"/>
      <point x="112" y="5"/>
      <point x="120" y="7" type="curve"/>
      <point x="119" y="3"/>
      <point x="113" y="4"/>
    </contour>
    <contour>
      <point x="117" y="52" type="line"/>
      <point x="117" y="64" type="line"/>
      <point x="123" y="64" type="line"/>
      <point x="123" y="52" type="line"/>
    </contour>
    <contour>
      <point x="134" y="7" type="curve"/>
      <point x="126" y="4"/>
      <point x="129" y="13"/>
      <point x="129" y="18" type="curve"/>
      <point x="134" y="17"/>
      <point x="135" y="13"/>
    </contour>
    <contour>
      <point x="160" y="642" type="curve"/>
      <point x="153" y="643"/>
      <point x="153" y="650"/>
      <point x="157" y="654" type="curve"/>
      <point x="161" y="653"/>
      <point x="160" y="647"/>
    </contour>
    <contour>
      <point x="146" y="420" type="curve"/>
      <point x="140" y="420"/>
      <point x="144" y="430"/>
      <point x="143" y="434" type="curve"/>
      <point x="147" y="431"/>
      <point x="149" y="423"/>
    </contour>
    <contour>
      <point x="146" y="457" type="curve"/>
      <point x="140" y="457"/>
      <point x="144" y="467"/>
      <point x="143" y="471" type="curve"/>
      <point x="147" y="468"/>
      <point x="149" y="460"/>
    </contour>
    <contour>
      <point x="149" y="303" type="curve"/>
      <point x="147" y="297"/>
      <point x="143" y="301"/>
      <point x="146" y="312" type="curve" smooth="yes"/>
      <point x="148" y="320"/>
      <point x="149" y="305"/>
    </contour>
    <contour>
      <point x="100" y="602" type="curve" smooth="yes"/>
      <point x="99" y="599"/>
      <point x="102" y="591"/>
      <point x="103" y="597" type="curve" smooth="yes"/>
      <point x="104" y="601"/>
      <point x="101" y="608"/>
    </contour>
  </outline>
</glyph>
<glyph name="F" format="1">
  <advance width="489"/>
  <unicode hex="0046"/>
  <outline>
    <contour>
      <point x="468" y="657" type="curve" name="hr00"/>
      <point x="463" y="666"/>
      <point x="457" y="673"/>
      <point x="448" y="677" type="curve"/>
      <point x="445" y="674"/>
      <point x="440" y="672"/>
      <point x="437" y="669" type="curve"/>
      <point x="360" y="681"/>
      <point x="233" y="665"/>
      <point x="140" y="672" type="curve"/>
      <point x="133" y="669"/>
      <point x="132" y="659"/>
      <point x="123" y="657" type="curve"/>
      <point x="120" y="667"/>
      <point x="109" y="670"/>
      <point x="97" y="672" type="curve"/>
      <point x="89" y="650"/>
      <point x="99" y="635"/>
      <point x="103" y="620" type="curve" smooth="yes"/>
      <point x="112" y="592"/>
      <point x="115" y="562"/>
      <point x="117" y="532" type="curve" smooth="yes"/>
      <point x="120" y="501"/>
      <point x="135" y="425"/>
      <point x="120" y="404" type="curve" smooth="yes"/>
      <point x="117" y="400" type="line"/>
      <point x="118" y="399"/>
      <point x="119" y="398"/>
      <point x="120" y="395" type="curve" smooth="yes"/>
      <point x="126" y="378"/>
      <point x="115" y="324"/>
      <point x="114" y="301" type="curve"/>
      <point x="114" y="280"/>
      <point x="109" y="259"/>
      <point x="109" y="241" type="curve" smooth="yes"/>
      <point x="109" y="160"/>
      <point x="98" y="81"/>
      <point x="92" y="10" type="curve"/>
      <point x="83" y="3"/>
      <point x="60" y="9"/>
      <point x="60" y="-7" type="curve"/>
      <point x="90" y="-13"/>
      <point x="116" y="8"/>
      <point x="149" y="8" type="curve"/>
      <point x="149" y="-1"/>
      <point x="146" y="-12"/>
      <point x="154" y="-12" type="curve"/>
      <point x="167" y="7"/>
      <point x="159" y="31"/>
      <point x="174" y="45" type="curve"/>
      <point x="167" y="111"/>
      <point x="167" y="169"/>
      <point x="163" y="233" type="curve"/>
      <point x="169" y="235"/>
      <point x="172" y="225"/>
      <point x="171" y="236" type="curve"/>
      <point x="172" y="280"/>
      <point x="164" y="311"/>
      <point x="171" y="341" type="curve"/>
      <point x="221" y="341"/>
      <point x="251" y="360"/>
      <point x="291" y="370" type="curve"/>
      <point x="297" y="368"/>
      <point x="289" y="353"/>
      <point x="300" y="355" type="curve" smooth="yes"/>
      <point x="310" y="357"/>
      <point x="314" y="368"/>
      <point x="325" y="361" type="curve"/>
      <point x="325" y="369"/>
      <point x="326" y="375"/>
      <point x="331" y="378" type="curve"/>
      <point x="346" y="380"/>
      <point x="349" y="382"/>
      <point x="360" y="384" type="curve"/>
      <point x="362" y="402"/>
      <point x="338" y="403"/>
      <point x="331" y="404" type="curve"/>
      <point x="333" y="417"/>
      <point x="351" y="431"/>
      <point x="337" y="444" type="curve"/>
      <point x="313" y="438"/>
      <point x="313" y="409"/>
      <point x="294" y="398" type="curve"/>
      <point x="253" y="401"/>
      <point x="209" y="395"/>
      <point x="171" y="390" type="curve"/>
      <point x="180" y="443"/>
      <point x="175" y="495"/>
      <point x="177" y="543" type="curve" smooth="yes"/>
      <point x="179" y="577"/>
      <point x="177" y="614"/>
      <point x="186" y="646" type="curve"/>
      <point x="238" y="651"/>
      <point x="344" y="656"/>
      <point x="408" y="646" type="curve"/>
      <point x="398" y="629"/>
      <point x="404" y="598"/>
      <point x="405" y="583" type="curve"/>
      <point x="420" y="574"/>
      <point x="426" y="584"/>
      <point x="445" y="583" type="curve"/>
      <point x="455" y="597"/>
      <point x="454" y="622"/>
      <point x="456" y="643" type="curve" smooth="yes"/>
      <point x="457" y="651"/>
      <point x="470" y="647"/>
    </contour>
    <contour>
      <point x="143" y="626" type="curve"/>
      <point x="140" y="640"/>
      <point x="146" y="646"/>
      <point x="160" y="643" type="curve"/>
      <point x="159" y="603"/>
      <point x="152" y="579"/>
      <point x="151" y="543" type="curve"/>
      <point x="139" y="567"/>
      <point x="163" y="622"/>
    </contour>
    <contour>
      <point x="149" y="447" type="curve"/>
      <point x="146" y="484" type="line"/>
      <point x="149" y="484"/>
      <point x="151" y="483"/>
      <point x="151" y="481" type="curve"/>
      <point x="151" y="441" type="line"/>
      <point x="152" y="428"/>
      <point x="147" y="440"/>
    </contour>
    <contour>
      <point x="109" y="28" type="line"/>
      <point x="107" y="36"/>
      <point x="114" y="36"/>
      <point x="112" y="45" type="curve"/>
      <point x="118" y="43"/>
      <point x="118" y="34"/>
      <point x="120" y="28" type="curve"/>
    </contour>
    <contour>
      <point x="425" y="632" type="curve"/>
      <point x="420" y="634"/>
      <point x="425" y="637"/>
      <point x="425" y="640" type="curve"/>
      <point x="430" y="638"/>
      <point x="426" y="635"/>
    </contour>
    <contour>
      <point x="151" y="236" type="curve" smooth="yes"/>
      <point x="150" y="230"/>
      <point x="148" y="237"/>
      <point x="149" y="241" type="curve" smooth="yes"/>
      <point x="150" y="247"/>
      <point x="152" y="239"/>
    </contour>
  </outline>
</glyph>
<glyph name="G" format="1">
  <advance width="569"/>
  <unicode hex="0047"/>
  <outline>
    <contour>
      <point x="451" y="647" type="curve" name="hr00"/>
      <point x="436" y="661"/>
      <point x="428" y="683"/>
      <point x="411" y="689" type="curve" smooth="yes"/>
      <point x="367" y="706"/>
      <point x="283" y="670"/>
      <point x="260" y="658" type="curve" smooth="yes"/>
      <point x="231" y="643"/>
      <point x="214" y="632"/>
      <point x="194" y="615" type="curve" smooth="yes"/>
      <point x="165" y="592"/>
      <point x="146" y="561"/>
      <point x="128" y="532" type="curve"/>
      <point x="129" y="453"/>
      <point x="76" y="403"/>
      <point x="80" y="310" type="curve"/>
      <point x="66" y="319"/>
      <point x="70" y="299"/>
      <point x="57" y="299" type="curve"/>
      <point x="57" y="304"/>
      <point x="60" y="313"/>
      <point x="51" y="310" type="curve"/>
      <point x="49" y="284"/>
      <point x="58" y="259"/>
      <point x="57" y="236" type="curve"/>
      <point x="57" y="226"/>
      <point x="42" y="213"/>
      <point x="57" y="208" type="curve"/>
      <point x="59" y="212"/>
      <point x="54" y="222"/>
      <point x="60" y="222" type="curve"/>
      <point x="60" y="202"/>
      <point x="65" y="199"/>
      <point x="54" y="188" type="curve"/>
      <point x="68" y="167"/>
      <point x="74" y="139"/>
      <point x="83" y="113" type="curve"/>
      <point x="110" y="115"/>
      <point x="114" y="93"/>
      <point x="117" y="71" type="curve"/>
      <point x="121" y="67"/>
      <point x="130" y="69"/>
      <point x="134" y="65" type="curve"/>
      <point x="149" y="44"/>
      <point x="170" y="38"/>
      <point x="194" y="19" type="curve" smooth="yes"/>
      <point x="210" y="7"/>
      <point x="222" y="-10"/>
      <point x="234" y="-15" type="curve" smooth="yes"/>
      <point x="271" y="-29"/>
      <point x="306" y="-12"/>
      <point x="339" y="5" type="curve"/>
      <point x="347" y="8"/>
      <point x="347" y="1"/>
      <point x="354" y="2" type="curve"/>
      <point x="367" y="9"/>
      <point x="372" y="26"/>
      <point x="396" y="22" type="curve"/>
      <point x="410" y="37"/>
      <point x="425" y="51"/>
      <point x="439" y="65" type="curve"/>
      <point x="444" y="59"/>
      <point x="441" y="44"/>
      <point x="442" y="34" type="curve"/>
      <point x="447" y="25"/>
      <point x="460" y="38"/>
      <point x="462" y="31" type="curve" smooth="yes"/>
      <point x="465" y="19"/>
      <point x="465" y="5"/>
      <point x="473" y="-1" type="curve"/>
      <point x="486" y="5"/>
      <point x="491" y="1"/>
      <point x="502" y="8" type="curve"/>
      <point x="479" y="79"/>
      <point x="518" y="142"/>
      <point x="490" y="202" type="curve"/>
      <point x="498" y="216"/>
      <point x="498" y="217"/>
      <point x="493" y="233" type="curve"/>
      <point x="492" y="243"/>
      <point x="510" y="233"/>
      <point x="508" y="245" type="curve"/>
      <point x="479" y="253"/>
      <point x="443" y="242"/>
      <point x="413" y="236" type="curve" smooth="yes"/>
      <point x="394" y="232"/>
      <point x="369" y="231"/>
      <point x="362" y="216" type="curve"/>
      <point x="376" y="209"/>
      <point x="398" y="216"/>
      <point x="411" y="219" type="curve"/>
      <point x="415" y="213"/>
      <point x="410" y="215"/>
      <point x="411" y="208" type="curve"/>
      <point x="419" y="207"/>
      <point x="424" y="211"/>
      <point x="431" y="213" type="curve"/>
      <point x="452" y="202"/>
      <point x="423" y="164"/>
      <point x="439" y="151" type="curve"/>
      <point x="444" y="158"/>
      <point x="440" y="174"/>
      <point x="448" y="179" type="curve"/>
      <point x="456" y="129"/>
      <point x="428" y="93"/>
      <point x="399" y="71" type="curve"/>
      <point x="399" y="56" type="line"/>
      <point x="382" y="47"/>
      <point x="373" y="30"/>
      <point x="348" y="28" type="curve"/>
      <point x="319" y="-11"/>
      <point x="231" y="0"/>
      <point x="208" y="37" type="curve"/>
      <point x="206" y="47"/>
      <point x="203" y="58"/>
      <point x="208" y="68" type="curve"/>
      <point x="183" y="87"/>
      <point x="189" y="114"/>
      <point x="188" y="151" type="curve" smooth="yes"/>
      <point x="186" y="317"/>
      <point x="202" y="519"/>
      <point x="274" y="607" type="curve"/>
      <point x="275" y="617"/>
      <point x="261" y="619"/>
      <point x="268" y="627" type="curve" smooth="yes"/>
      <point x="290" y="652"/>
      <point x="317" y="673"/>
      <point x="371" y="666" type="curve"/>
      <point x="370" y="663"/>
      <point x="367" y="661"/>
      <point x="368" y="655" type="curve"/>
      <point x="412" y="644"/>
      <point x="416" y="593"/>
      <point x="462" y="584" type="curve"/>
      <point x="460" y="573"/>
      <point x="466" y="569"/>
      <point x="470" y="564" type="curve"/>
      <point x="472" y="568"/>
      <point x="477" y="569"/>
      <point x="482" y="570" type="curve"/>
      <point x="476" y="664" type="line"/>
      <point x="469" y="664"/>
      <point x="470" y="673"/>
      <point x="462" y="672" type="curve"/>
      <point x="453" y="669"/>
      <point x="458" y="651"/>
    </contour>
    <contour>
      <point x="71" y="213" type="curve" smooth="yes"/>
      <point x="68" y="231"/>
      <point x="61" y="266"/>
      <point x="71" y="293" type="curve"/>
      <point x="82" y="263"/>
      <point x="81" y="206"/>
      <point x="91" y="168" type="curve"/>
      <point x="101" y="156"/>
      <point x="104" y="138"/>
      <point x="108" y="122" type="curve"/>
      <point x="97" y="120"/>
      <point x="93" y="137"/>
      <point x="89" y="148" type="curve"/>
      <point x="80" y="167"/>
      <point x="76" y="186"/>
    </contour>
    <contour>
      <point x="433" y="629" type="curve"/>
      <point x="424" y="629"/>
      <point x="412" y="650"/>
      <point x="399" y="655" type="curve"/>
      <point x="412" y="659"/>
      <point x="424" y="638"/>
    </contour>
    <contour>
      <point x="456" y="225" type="curve"/>
      <point x="457" y="234"/>
      <point x="470" y="229"/>
      <point x="479" y="230" type="curve"/>
      <point x="478" y="216"/>
      <point x="463" y="224"/>
    </contour>
    <contour>
      <point x="185" y="59" type="curve"/>
      <point x="181" y="57"/>
      <point x="169" y="71"/>
      <point x="168" y="82" type="curve"/>
      <point x="175" y="75"/>
      <point x="181" y="68"/>
    </contour>
    <contour>
      <point x="168" y="242" type="curve"/>
      <point x="157" y="240"/>
      <point x="165" y="257"/>
      <point x="163" y="265" type="curve"/>
      <point x="171" y="257"/>
      <point x="165" y="253"/>
    </contour>
    <contour>
      <point x="117" y="170" type="curve"/>
      <point x="109" y="171"/>
      <point x="110" y="184"/>
      <point x="114" y="188" type="curve"/>
      <point x="120" y="187"/>
      <point x="115" y="175"/>
    </contour>
    <contour>
      <point x="54" y="327" type="curve"/>
      <point x="53" y="321"/>
      <point x="48" y="315"/>
      <point x="57" y="313" type="curve"/>
      <point x="56" y="318"/>
      <point x="66" y="328"/>
    </contour>
    <contour>
      <point x="140" y="122" type="curve"/>
      <point x="134" y="125"/>
      <point x="131" y="130"/>
      <point x="131" y="139" type="curve"/>
      <point x="138" y="137"/>
      <point x="138" y="128"/>
    </contour>
    <contour>
      <point x="83" y="456" type="curve"/>
      <point x="86" y="448"/>
      <point x="74" y="442"/>
      <point x="83" y="438" type="curve"/>
      <point x="85" y="440"/>
      <point x="89" y="454"/>
    </contour>
    <contour>
      <point x="63" y="387" type="line"/>
      <point x="63" y="381" type="line"/>
      <point x="69" y="381" type="line"/>
      <point x="69" y="387" type="line"/>
    </contour>
  </outline>
</glyph>
<glyph name="H" format="1">
  <advance width="497"/>
  <unicode hex="0048"/>
  <outline>
    <contour>
      <point x="100" y="668" type="line" name="hr00"/>
      <point x="97" y="665"/>
      <point x="97" y="658"/>
      <point x="97" y="651" type="curve"/>
      <point x="84" y="648"/>
      <point x="64" y="652"/>
      <point x="60" y="640" type="curve"/>
      <point x="64" y="625"/>
      <point x="86" y="645"/>
      <point x="94" y="634" type="curve" smooth="yes"/>
      <point x="100" y="624"/>
      <point x="90" y="615"/>
      <point x="89" y="605" type="curve" smooth="yes"/>
      <point x="84" y="556"/>
      <point x="94" y="496"/>
      <point x="94" y="443" type="curve"/>
      <point x="96" y="330"/>
      <point x="82" y="212"/>
      <point x="80" y="104" type="curve"/>
      <point x="82" y="97"/>
      <point x="91" y="98"/>
      <point x="89" y="87" type="curve" smooth="yes"/>
      <point x="86" y="65"/>
      <point x="89" y="58"/>
      <point x="86" y="38" type="curve"/>
      <point x="66" y="57"/>
      <point x="71" y="6"/>
      <point x="77" y="-5" type="curve"/>
      <point x="99" y="-14"/>
      <point x="147" y="-27"/>
      <point x="171" y="-5" type="curve"/>
      <point x="173" y="15"/>
      <point x="149" y="15"/>
      <point x="140" y="15" type="curve"/>
      <point x="131" y="25"/>
      <point x="149" y="25"/>
      <point x="146" y="38" type="curve"/>
      <point x="145" y="97"/>
      <point x="151" y="149"/>
      <point x="149" y="209" type="curve"/>
      <point x="188" y="214"/>
      <point x="237" y="212"/>
      <point x="283" y="212" type="curve"/>
      <point x="286" y="211"/>
      <point x="288" y="208"/>
      <point x="288" y="204" type="curve"/>
      <point x="301" y="212"/>
      <point x="332" y="216"/>
      <point x="351" y="209" type="curve"/>
      <point x="349" y="149"/>
      <point x="340" y="92"/>
      <point x="351" y="35" type="curve"/>
      <point x="346" y="31"/>
      <point x="336" y="32"/>
      <point x="340" y="18" type="curve"/>
      <point x="355" y="14"/>
      <point x="378" y="17"/>
      <point x="382" y="1" type="curve"/>
      <point x="395" y="24"/>
      <point x="424" y="-9"/>
      <point x="437" y="7" type="curve"/>
      <point x="424" y="17"/>
      <point x="403" y="17"/>
      <point x="391" y="27" type="curve"/>
      <point x="398" y="92"/>
      <point x="390" y="145"/>
      <point x="394" y="198" type="curve" smooth="yes"/>
      <point x="398" y="267"/>
      <point x="391" y="326"/>
      <point x="405" y="395" type="curve"/>
      <point x="409" y="400"/>
      <point x="416" y="401"/>
      <point x="419" y="406" type="curve"/>
      <point x="418" y="482"/>
      <point x="423" y="558"/>
      <point x="428" y="620" type="curve" smooth="yes"/>
      <point x="429" y="631"/>
      <point x="436" y="641"/>
      <point x="428" y="651" type="curve"/>
      <point x="413" y="654"/>
      <point x="417" y="640"/>
      <point x="405" y="640" type="curve"/>
      <point x="396" y="641"/>
      <point x="402" y="658"/>
      <point x="391" y="657" type="curve"/>
      <point x="387" y="652"/>
      <point x="389" y="642"/>
      <point x="382" y="640" type="curve"/>
      <point x="381" y="647"/>
      <point x="373" y="653"/>
      <point x="368" y="648" type="curve"/>
      <point x="352" y="507"/>
      <point x="371" y="372"/>
      <point x="348" y="226" type="curve"/>
      <point x="326" y="222"/>
      <point x="309" y="221"/>
      <point x="294" y="232" type="curve"/>
      <point x="255" y="225"/>
      <point x="195" y="230"/>
      <point x="146" y="235" type="curve"/>
      <point x="152" y="285"/>
      <point x="136" y="322"/>
      <point x="143" y="360" type="curve" smooth="yes"/>
      <point x="146" y="376"/>
      <point x="157" y="393"/>
      <point x="152" y="414" type="curve"/>
      <point x="151" y="425"/>
      <point x="142" y="408"/>
      <point x="143" y="417" type="curve" smooth="yes"/>
      <point x="150" y="467"/>
      <point x="150" y="529"/>
      <point x="157" y="580" type="curve" smooth="yes"/>
      <point x="159" y="590"/>
      <point x="171" y="608"/>
      <point x="157" y="617" type="curve"/>
      <point x="150" y="597"/>
      <point x="157" y="579"/>
      <point x="149" y="563" type="curve"/>
      <point x="148" y="588"/>
      <point x="146" y="611"/>
      <point x="143" y="634" type="curve"/>
      <point x="157" y="634"/>
      <point x="175" y="628"/>
      <point x="183" y="640" type="curve"/>
      <point x="182" y="658"/>
      <point x="142" y="647"/>
      <point x="126" y="660" type="curve"/>
      <point x="123" y="655"/>
      <point x="119" y="653"/>
      <point x="112" y="654" type="curve"/>
      <point x="110" y="659"/>
      <point x="115" y="671"/>
      <point x="106" y="668" type="curve"/>
    </contour>
    <contour>
      <point x="368" y="238" type="curve"/>
      <point x="363" y="247"/>
      <point x="364" y="274"/>
      <point x="368" y="283" type="curve"/>
      <point x="376" y="276"/>
      <point x="371" y="251"/>
    </contour>
    <contour>
      <point x="399" y="580" type="curve"/>
      <point x="391" y="595"/>
      <point x="404" y="613"/>
      <point x="402" y="631" type="curve"/>
      <point x="411" y="631" type="line"/>
      <point x="405" y="616"/>
      <point x="402" y="598"/>
    </contour>
    <contour>
      <point x="374" y="158" type="curve"/>
      <point x="362" y="161"/>
      <point x="371" y="180"/>
      <point x="371" y="189" type="curve"/>
      <point x="376" y="179"/>
      <point x="376" y="169"/>
    </contour>
    <contour>
      <point x="117" y="235" type="curve"/>
      <point x="105" y="235"/>
      <point x="114" y="257"/>
      <point x="112" y="266" type="curve"/>
      <point x="122" y="262"/>
      <point x="113" y="249"/>
    </contour>
    <contour>
      <point x="117" y="47" type="curve"/>
      <point x="119" y="54"/>
      <point x="119" y="59"/>
      <point x="120" y="72" type="curve"/>
      <point x="123" y="81"/>
      <point x="128" y="43"/>
    </contour>
    <contour>
      <point x="117" y="164" type="curve"/>
      <point x="112" y="159"/>
      <point x="116" y="188"/>
      <point x="114" y="198" type="curve"/>
      <point x="120" y="202"/>
      <point x="116" y="173"/>
    </contour>
    <contour>
      <point x="97" y="215" type="curve"/>
      <point x="92" y="208"/>
      <point x="95" y="234"/>
      <point x="94" y="241" type="curve"/>
      <point x="100" y="248"/>
      <point x="96" y="222"/>
    </contour>
    <contour>
      <point x="103" y="21" type="curve"/>
      <point x="96" y="20"/>
      <point x="94" y="25"/>
      <point x="94" y="33" type="curve"/>
      <point x="102" y="33"/>
      <point x="104" y="29"/>
    </contour>
    <contour>
      <point x="368" y="70" type="curve"/>
      <point x="363" y="72"/>
      <point x="362" y="78"/>
      <point x="362" y="87" type="curve"/>
      <point x="373" y="89"/>
      <point x="366" y="75"/>
    </contour>
    <contour>
      <point x="365" y="98" type="curve"/>
      <point x="361" y="90"/>
      <point x="363" y="113"/>
      <point x="362" y="118" type="curve"/>
      <point x="367" y="126"/>
      <point x="365" y="103"/>
    </contour>
    <contour>
      <point x="114" y="326" type="curve"/>
      <point x="108" y="326"/>
      <point x="113" y="338"/>
      <point x="112" y="343" type="curve"/>
      <point x="124" y="343"/>
      <point x="110" y="335"/>
    </contour>
    <contour>
      <point x="92" y="201" type="line"/>
      <point x="94" y="200"/>
      <point x="94" y="202"/>
      <point x="94" y="204" type="curve"/>
      <point x="100" y="205"/>
      <point x="99" y="191"/>
      <point x="92" y="195" type="curve"/>
    </contour>
    <contour>
      <point x="399" y="551" type="curve" smooth="yes"/>
      <point x="396" y="542"/>
      <point x="396" y="559"/>
      <point x="397" y="563" type="curve" smooth="yes"/>
      <point x="400" y="572"/>
      <point x="400" y="555"/>
    </contour>
    <contour>
      <point x="117" y="295" type="curve"/>
      <point x="110" y="295"/>
      <point x="116" y="304"/>
      <point x="117" y="306" type="curve"/>
      <point x="126" y="304"/>
      <point x="115" y="300"/>
    </contour>
    <contour>
      <point x="117" y="275" type="curve" smooth="yes"/>
      <point x="116" y="269"/>
      <point x="114" y="277"/>
      <point x="114" y="280" type="curve"/>
      <point x="116" y="286"/>
      <point x="118" y="279"/>
    </contour>
  </outline>
</glyph>
<glyph name="I" format="1">
  <advance width="316"/>
  <unicode hex="0049"/>
  <outline>
    <contour>
      <point x="208" y="645" type="curve"/>
      <point x="208" y="625"/>
      <point x="200" y="585"/>
      <point x="199" y="557" type="curve"/>
      <point x="199" y="550"/>
      <point x="193" y="527"/>
      <point x="205" y="534" type="curve"/>
      <point x="198" y="553"/>
      <point x="205" y="566"/>
      <point x="214" y="580" type="curve"/>
      <point x="217" y="601"/>
      <point x="214" y="629"/>
      <point x="222" y="645" type="curve"/>
      <point x="230" y="646"/>
      <point x="249" y="637"/>
      <point x="256" y="645" type="curve"/>
      <point x="239" y="644"/>
      <point x="251" y="658"/>
      <point x="248" y="674" type="curve"/>
      <point x="206" y="665"/>
      <point x="137" y="694"/>
      <point x="128" y="657" type="curve"/>
      <point x="129" y="648"/>
      <point x="142" y="651"/>
      <point x="145" y="645" type="curve"/>
      <point x="158" y="551"/>
      <point x="133" y="425"/>
      <point x="125" y="306" type="curve" smooth="yes"/>
      <point x="123" y="268"/>
      <point x="115" y="239"/>
      <point x="114" y="206" type="curve" smooth="yes"/>
      <point x="112" y="172"/>
      <point x="122" y="137"/>
      <point x="120" y="104" type="curve" smooth="yes"/>
      <point x="119" y="93"/>
      <point x="119" y="74"/>
      <point x="111" y="69" type="curve"/>
      <point x="109" y="88"/>
      <point x="115" y="115"/>
      <point x="108" y="129" type="curve"/>
      <point x="108" y="106" type="line"/>
      <point x="107" y="75"/>
      <point x="108" y="57"/>
      <point x="108" y="24" type="curve"/>
      <point x="92" y="12"/>
      <point x="63" y="31"/>
      <point x="60" y="7" type="curve"/>
      <point x="78" y="-4"/>
      <point x="104" y="1"/>
      <point x="125" y="1" type="curve" smooth="yes"/>
      <point x="148" y="1"/>
      <point x="173" y="-4"/>
      <point x="188" y="7" type="curve"/>
      <point x="187" y="20"/>
      <point x="166" y="15"/>
      <point x="162" y="27" type="curve"/>
      <point x="179" y="190"/>
      <point x="185" y="373"/>
      <point x="199" y="528" type="curve" smooth="yes"/>
      <point x="200" y="537"/>
      <point x="191" y="521"/>
      <point x="191" y="531" type="curve"/>
      <point x="188" y="548"/>
      <point x="194" y="564"/>
      <point x="196" y="582" type="curve" smooth="yes"/>
      <point x="199" y="604"/>
      <point x="193" y="631"/>
    </contour>
    <contour>
      <point x="137" y="21" type="curve"/>
      <point x="119" y="21"/>
      <point x="130" y="34"/>
      <point x="128" y="47" type="curve"/>
      <point x="137" y="44"/>
      <point x="134" y="29"/>
    </contour>
    <contour>
      <point x="177" y="394" type="curve"/>
      <point x="175" y="403"/>
      <point x="182" y="404"/>
      <point x="179" y="414" type="curve"/>
      <point x="190" y="416"/>
      <point x="183" y="393"/>
    </contour>
    <contour>
      <point x="174" y="337" type="curve"/>
      <point x="172" y="348"/>
      <point x="177" y="351"/>
      <point x="177" y="360" type="curve"/>
      <point x="180" y="359"/>
      <point x="183" y="334"/>
    </contour>
    <contour>
      <point x="171" y="634" type="curve"/>
      <point x="163" y="633"/>
      <point x="163" y="641"/>
      <point x="162" y="648" type="curve"/>
      <point x="171" y="649"/>
      <point x="171" y="642"/>
    </contour>
    <contour>
      <point x="177" y="323" type="curve"/>
      <point x="175" y="317"/>
      <point x="171" y="321"/>
      <point x="174" y="332" type="curve" smooth="yes"/>
      <point x="176" y="340"/>
      <point x="177" y="325"/>
    </contour>
  </outline>
</glyph>
<glyph name="J" format="1">
  <advance width="336"/>
  <unicode hex="004A"/>
  <outline>
    <contour>
      <point x="104" y="-62" type="curve" name="hr00"/>
      <point x="100" y="-41"/>
      <point x="120" y="-24"/>
      <point x="101" y="-14" type="curve"/>
      <point x="101" y="-49"/>
      <point x="94" y="-69"/>
      <point x="90" y="-94" type="curve" smooth="yes"/>
      <point x="88" y="-105"/>
      <point x="91" y="-123"/>
      <point x="87" y="-133" type="curve" smooth="yes"/>
      <point x="76" y="-163"/>
      <point x="2" y="-191"/>
      <point x="-30" y="-188" type="curve" smooth="yes"/>
      <point x="-66" y="-184"/>
      <point x="-74" y="-153"/>
      <point x="-76" y="-116" type="curve"/>
      <point x="-91" y="-112"/>
      <point x="-93" y="-108"/>
      <point x="-110" y="-102" type="curve"/>
      <point x="-140" y="-116"/>
      <point x="-162" y="-154"/>
      <point x="-141" y="-188" type="curve" smooth="yes"/>
      <point x="-137" y="-194"/>
      <point x="-105" y="-218"/>
      <point x="-98" y="-222" type="curve" smooth="yes"/>
      <point x="-58" y="-244"/>
      <point x="-2" y="-228"/>
      <point x="38" y="-216" type="curve"/>
      <point x="37" y="-200"/>
      <point x="59" y="-205"/>
      <point x="70" y="-199" type="curve"/>
      <point x="71" y="-184"/>
      <point x="93" y="-168"/>
      <point x="115" y="-165" type="curve"/>
      <point x="126" y="-151"/>
      <point x="133" y="-133"/>
      <point x="141" y="-116" type="curve"/>
      <point x="138" y="-92"/>
      <point x="142" y="-66"/>
      <point x="147" y="-42" type="curve" smooth="yes"/>
      <point x="152" y="-12"/>
      <point x="161" y="17"/>
      <point x="167" y="49" type="curve" smooth="yes"/>
      <point x="172" y="79"/>
      <point x="178" y="110"/>
      <point x="181" y="140" type="curve" smooth="yes"/>
      <point x="190" y="221"/>
      <point x="186" y="317"/>
      <point x="204" y="414" type="curve"/>
      <point x="204" y="409"/>
      <point x="202" y="388"/>
      <point x="207" y="397" type="curve"/>
      <point x="204" y="415"/>
      <point x="214" y="429"/>
      <point x="204" y="440" type="curve"/>
      <point x="209" y="441"/>
      <point x="211" y="447"/>
      <point x="212" y="454" type="curve" smooth="yes"/>
      <point x="217" y="510"/>
      <point x="210" y="588"/>
      <point x="209" y="645" type="curve"/>
      <point x="220" y="643"/>
      <point x="228" y="652"/>
      <point x="235" y="645" type="curve"/>
      <point x="242" y="654"/>
      <point x="235" y="659"/>
      <point x="244" y="665" type="curve"/>
      <point x="258" y="670"/>
      <point x="283" y="666"/>
      <point x="286" y="682" type="curve"/>
      <point x="278" y="692"/>
      <point x="256" y="684"/>
      <point x="244" y="682" type="curve"/>
      <point x="238" y="683"/>
      <point x="241" y="693"/>
      <point x="232" y="690" type="curve"/>
      <point x="144" y="685" type="line"/>
      <point x="118" y="682"/>
      <point x="82" y="683"/>
      <point x="67" y="662" type="curve"/>
      <point x="76" y="656"/>
      <point x="87" y="669"/>
      <point x="104" y="665" type="curve"/>
      <point x="113" y="659"/>
      <point x="118" y="648"/>
      <point x="130" y="645" type="curve"/>
      <point x="145" y="541"/>
      <point x="124" y="429"/>
      <point x="130" y="317" type="curve" smooth="yes"/>
      <point x="131" y="287"/>
      <point x="131" y="263"/>
      <point x="130" y="234" type="curve"/>
      <point x="126" y="173"/>
      <point x="111" y="96"/>
      <point x="118" y="55" type="curve" smooth="yes"/>
      <point x="119" y="51"/>
      <point x="124" y="44"/>
      <point x="124" y="40" type="curve" smooth="yes"/>
      <point x="124" y="26"/>
      <point x="118" y="12"/>
      <point x="115" y="-2" type="curve"/>
      <point x="112" y="-24"/>
      <point x="113" y="-46"/>
    </contour>
    <contour>
      <point x="141" y="642" type="curve"/>
      <point x="146" y="642"/>
      <point x="156" y="648"/>
      <point x="164" y="642" type="curve"/>
      <point x="167" y="628"/>
      <point x="150" y="635"/>
      <point x="150" y="625" type="curve" smooth="yes"/>
      <point x="150" y="581"/>
      <point x="149" y="549"/>
      <point x="147" y="514" type="curve"/>
      <point x="145" y="501"/>
      <point x="152" y="516"/>
      <point x="152" y="508" type="curve"/>
      <point x="139" y="497"/>
      <point x="157" y="454"/>
      <point x="138" y="448" type="curve"/>
      <point x="145" y="511"/>
      <point x="139" y="573"/>
    </contour>
    <contour>
      <point x="175" y="388" type="curve" smooth="yes"/>
      <point x="175" y="415"/>
      <point x="171" y="439"/>
      <point x="172" y="468" type="curve"/>
      <point x="176" y="468"/>
      <point x="178" y="467"/>
      <point x="178" y="465" type="curve"/>
      <point x="181" y="449"/>
      <point x="182" y="415"/>
      <point x="178" y="394" type="curve"/>
      <point x="180" y="388"/>
      <point x="175" y="376"/>
    </contour>
    <contour>
      <point x="135" y="365" type="curve"/>
      <point x="133" y="385"/>
      <point x="137" y="407"/>
      <point x="138" y="422" type="curve"/>
      <point x="146" y="421"/>
      <point x="139" y="411"/>
      <point x="138" y="402" type="curve" smooth="yes"/>
      <point x="137" y="386"/>
      <point x="140" y="346"/>
    </contour>
    <contour>
      <point x="135" y="-48" type="curve"/>
      <point x="129" y="-42"/>
      <point x="133" y="-23"/>
      <point x="138" y="-19" type="curve"/>
      <point x="142" y="-12"/>
      <point x="138" y="-43"/>
    </contour>
    <contour>
      <point x="135" y="169" type="curve"/>
      <point x="126" y="174"/>
      <point x="133" y="195"/>
      <point x="135" y="206" type="curve"/>
      <point x="143" y="197"/>
      <point x="131" y="183"/>
    </contour>
    <contour>
      <point x="-121" y="-142" type="curve"/>
      <point x="-129" y="-135"/>
      <point x="-118" y="-122"/>
      <point x="-110" y="-122" type="curve"/>
      <point x="-110" y="-132"/>
      <point x="-120" y="-133"/>
    </contour>
    <contour>
      <point x="141" y="331" type="curve"/>
      <point x="141" y="339"/>
      <point x="140" y="347"/>
      <point x="144" y="351" type="curve"/>
      <point x="148" y="350"/>
      <point x="151" y="328"/>
    </contour>
    <contour>
      <point x="201" y="382" type="curve"/>
      <point x="211" y="380"/>
      <point x="193" y="366"/>
      <point x="204" y="363" type="curve"/>
      <point x="207" y="366"/>
      <point x="210" y="393"/>
    </contour>
    <contour>
      <point x="181" y="497" type="curve"/>
      <point x="178" y="491"/>
      <point x="175" y="509"/>
      <point x="175" y="516" type="curve"/>
      <point x="180" y="512"/>
      <point x="180" y="504"/>
    </contour>
    <contour>
      <point x="133" y="149" type="curve" smooth="yes"/>
      <point x="132" y="155"/>
      <point x="128" y="156"/>
      <point x="133" y="163" type="curve"/>
      <point x="138" y="147"/>
      <point x="135" y="129"/>
    </contour>
    <contour>
      <point x="1" y="-219" type="curve"/>
      <point x="-1" y="-210"/>
      <point x="8" y="-214"/>
      <point x="13" y="-213" type="curve"/>
      <point x="11" y="-217"/>
      <point x="7" y="-219"/>
    </contour>
    <contour>
      <point x="198" y="328" type="curve"/>
      <point x="198" y="324"/>
      <point x="197" y="305"/>
      <point x="201" y="314" type="curve"/>
      <point x="201" y="318"/>
      <point x="202" y="337"/>
    </contour>
    <contour>
      <point x="201" y="354" type="curve" smooth="yes"/>
      <point x="198" y="343"/>
      <point x="202" y="340"/>
      <point x="204" y="345" type="curve"/>
      <point x="204" y="347"/>
      <point x="203" y="362"/>
    </contour>
    <contour>
      <point x="150" y="528" type="line"/>
      <point x="150" y="534" type="line"/>
      <point x="155" y="534" type="line"/>
      <point x="155" y="528" type="line"/>
    </contour>
  </outline>
</glyph>
